<svg xmlns="http://www.w3.org/2000/svg" xmlns:xlink="http://www.w3.org/1999/xlink" contentStyleType="text/css" height="1375px" preserveAspectRatio="none" style="width:1361px;height:1375px;" version="1.1" viewBox="0 0 1361 1375" width="1361.4583px" zoomAndPan="magnify"><defs><filter height="300%" id="f93smemrdss1i" width="300%" x="-1" y="-1"><feGaussianBlur result="blurOut" stdDeviation="2.0833333333333335"/><feColorMatrix in="blurOut" result="blurOut2" type="matrix" values="0 0 0 0 0 0 0 0 0 0 0 0 0 0 0 0 0 0 .4 0"/><feOffset dx="4.166666666666667" dy="4.166666666666667" in="blurOut2" result="blurOut3"/><feBlend in="SourceGraphic" in2="blurOut3" mode="normal"/></filter><linearGradient id="g93smemrdss1i0" x1="50%" x2="50%" y1="0%" y2="100%"><stop offset="0%" stop-color="#2196F3"/><stop offset="100%" stop-color="#1A78C2"/></linearGradient></defs><g><!--cluster cpp_concepts--><g id="cluster_cpp_concepts"><path d="M369.2708,16.6667 L482.723,16.6667 A6.25,6.25 0 0 1 486.8896,20.8333 L494.1813,58.3008 L1191.1458,58.3008 A4.1667,4.1667 0 0 1 1195.3125,62.4674 L1195.3125,263.5417 A4.1667,4.1667 0 0 1 1191.1458,267.7083 L369.2708,267.7083 A4.1667,4.1667 0 0 1 365.1042,263.5417 L365.1042,20.8333 A4.1667,4.1667 0 0 1 369.2708,16.6667 " fill="none" filter="url(#f93smemrdss1i)" style="stroke:#2196F3;stroke-width:2.0833333333333335;"/><line style="stroke:#2196F3;stroke-width:2.0833333333333335;" x1="365.1042" x2="494.1813" y1="58.3008" y2="58.3008"/><text fill="#2196F3" font-family="Verdana" font-size="12.5" font-weight="bold" lengthAdjust="spacing" textLength="94.7021" x="379.6875" y="40.7694">cpp_concepts</text></g><!--cluster cpp_stdlib--><g id="cluster_cpp_stdlib"><path d="M730.7292,1142.7083 L856.8583,1142.7083 A6.25,6.25 0 0 1 861.025,1146.875 L868.3167,1184.3424 L1196.3542,1184.3424 A4.1667,4.1667 0 0 1 1200.5208,1188.5091 L1200.5208,1358.3333 A4.1667,4.1667 0 0 1 1196.3542,1362.5 L730.7292,1362.5 A4.1667,4.1667 0 0 1 726.5625,1358.3333 L726.5625,1146.875 A4.1667,4.1667 0 0 1 730.7292,1142.7083 " fill="none" filter="url(#f93smemrdss1i)" style="stroke:#2196F3;stroke-width:2.0833333333333335;"/><line style="stroke:#2196F3;stroke-width:2.0833333333333335;" x1="726.5625" x2="868.3167" y1="1184.3424" y2="1184.3424"/><text fill="#2196F3" font-family="Verdana" font-size="12.5" font-weight="bold" lengthAdjust="spacing" textLength="107.3792" x="741.1458" y="1166.8111">C++ Stdlib, std</text></g><!--cluster chrono--><g id="cluster_chrono"><path d="M755.7292,1205.2083 L823.0265,1205.2083 A6.25,6.25 0 0 1 827.1932,1209.375 L834.4849,1246.8424 L911.9792,1246.8424 A4.1667,4.1667 0 0 1 916.1458,1251.0091 L916.1458,1333.3333 A4.1667,4.1667 0 0 1 911.9792,1337.5 L755.7292,1337.5 A4.1667,4.1667 0 0 1 751.5625,1333.3333 L751.5625,1209.375 A4.1667,4.1667 0 0 1 755.7292,1205.2083 " fill="none" filter="url(#f93smemrdss1i)" style="stroke:#2196F3;stroke-width:2.0833333333333335;"/><line style="stroke:#2196F3;stroke-width:2.0833333333333335;" x1="751.5625" x2="834.4849" y1="1246.8424" y2="1246.8424"/><text fill="#2196F3" font-family="Verdana" font-size="12.5" font-weight="bold" lengthAdjust="spacing" textLength="48.5474" x="766.1458" y="1229.3111">chrono</text></g><!--cluster five_embeddev--><g id="cluster_five_embeddev"><path d="M188.0208,309.375 L472.0785,309.375 A6.25,6.25 0 0 1 476.2451,313.5417 L483.5368,351.0091 L1345.3125,351.0091 A4.1667,4.1667 0 0 1 1349.4792,355.1758 L1349.4792,1075 A4.1667,4.1667 0 0 1 1345.3125,1079.1667 L188.0208,1079.1667 A4.1667,4.1667 0 0 1 183.8542,1075 L183.8542,313.5417 A4.1667,4.1667 0 0 1 188.0208,309.375 " fill="none" filter="url(#f93smemrdss1i)" style="stroke:#2196F3;stroke-width:2.0833333333333335;"/><line style="stroke:#2196F3;stroke-width:2.0833333333333335;" x1="183.8542" x2="483.5368" y1="351.0091" y2="351.0091"/><text fill="#2196F3" font-family="Verdana" font-size="12.5" font-weight="bold" lengthAdjust="spacing" textLength="265.3076" x="198.4375" y="333.4778">Five Embeddev Baremetal Coroutines</text></g><g id="elem_link"><path d="M410.4167,142.1875 L410.4167,179.6549 A4.1667,4.1667 0 0 0 414.5833,183.8216 L582.5155,183.8216 A4.1667,4.1667 0 0 0 586.6821,179.6549 L586.6821,148.4375 L576.2655,138.0208 L414.5833,138.0208 A4.1667,4.1667 0 0 0 410.4167,142.1875 " fill="none" filter="url(#f93smemrdss1i)" style="stroke:#9C27B0;stroke-width:1.0416666666666667;"/><path d="M576.2655,138.0208 L576.2655,146.3542 A2.0833,2.0833 0 0 0 578.3488,148.4375 L586.6821,148.4375 L576.2655,138.0208 " fill="none" style="stroke:#9C27B0;stroke-width:1.0416666666666667;"/><a href="https://en.cppreference.com/w/cpp/language/coroutines" target="_top" title="https://en.cppreference.com/w/cpp/language/coroutines" xlink:actuate="onRequest" xlink:href="https://en.cppreference.com/w/cpp/language/coroutines" xlink:show="new" xlink:title="https://en.cppreference.com/w/cpp/language/coroutines" xlink:type="simple"><text fill="#FD7E14" font-family="Verdana" font-size="12.5" lengthAdjust="spacing" text-decoration="underline" textLength="133.5571" x="427.0833" y="165.2486">From C++ Reference</text></a></g><!--class awaitable--><g id="elem_awaitable"><rect codeLine="30" fill="none" filter="url(#f93smemrdss1i)" height="163.7695" id="awaitable" rx="4.1667" ry="4.1667" style="stroke:#2196F3;stroke-width:1.0416666666666667;" width="258.9605" x="910.4167" y="79.1667"/><rect fill="url(#g93smemrdss1i0)" height="44.5882" rx="4.1667" ry="4.1667" style="stroke:url(#g93smemrdss1i0);stroke-width:1.0416666666666667;" width="258.9605" x="910.4167" y="79.1667"/><rect fill="url(#g93smemrdss1i0)" height="4.1667" style="stroke:url(#g93smemrdss1i0);stroke-width:1.0416666666666667;" width="258.9605" x="910.4167" y="119.5882"/><rect codeLine="30" fill="none" height="163.7695" id="awaitable" rx="4.1667" ry="4.1667" style="stroke:#2196F3;stroke-width:1.0416666666666667;" width="258.9605" x="910.4167" y="79.1667"/><ellipse cx="951.9875" cy="101.4608" fill="none" rx="10.4167" ry="10.4167" style="stroke:#1A78C2;stroke-width:1.0416666666666667;"/><path d="M948.8787,98.6287 L948.8787,97.0337 L954.2987,97.0337 L954.2987,98.6287 L952.492,98.6287 L952.492,104.5532 L954.2987,104.5532 L954.2987,106.1483 L948.8787,106.1483 L948.8787,104.5532 L950.6854,104.5532 L950.6854,98.6287 L948.8787,98.6287 Z " fill="#2196F3"/><text fill="#222222" font-family="Verdana" font-size="11.4583" font-style="italic" lengthAdjust="spacing" textLength="146.905" x="981.943" y="105.4276">C++ Coroutine Awaitable</text><line style="stroke:#2196F3;stroke-width:1.0416666666666667;" x1="911.4583" x2="1168.3355" y1="123.7549" y2="123.7549"/><line style="stroke:#2196F3;stroke-width:1.0416666666666667;" x1="911.4583" x2="1168.3355" y1="132.0882" y2="132.0882"/><ellipse cx="921.875" cy="154.9032" fill="none" rx="3.125" ry="3.125" style="stroke:#1A78C2;stroke-width:1.0416666666666667;"/><text fill="#222222" font-family="Verdana" font-size="11.4583" lengthAdjust="spacing" textLength="78.597" x="940.625" y="157.3074">await_ready()</text><ellipse cx="921.875" cy="189.0747" fill="none" rx="3.125" ry="3.125" style="stroke:#1A78C2;stroke-width:1.0416666666666667;"/><text fill="#222222" font-family="Verdana" font-size="11.4583" lengthAdjust="spacing" textLength="212.0855" x="940.625" y="191.479">await_suspend(coroutine_handle&lt;&gt;)</text><ellipse cx="921.875" cy="223.2463" fill="none" rx="3.125" ry="3.125" style="stroke:#1A78C2;stroke-width:1.0416666666666667;"/><text fill="#222222" font-family="Verdana" font-size="11.4583" lengthAdjust="spacing" textLength="88.9643" x="940.625" y="225.6505">await_resume()</text></g><!--class co_await_lang--><g id="elem_co_await_lang"><rect codeLine="36" fill="none" filter="url(#f93smemrdss1i)" height="95.4264" id="co_await_lang" rx="4.1667" ry="4.1667" style="stroke:#2196F3;stroke-width:1.0416666666666667;" width="251.1388" x="622.9167" y="113.0208"/><rect fill="url(#g93smemrdss1i0)" height="44.5882" rx="4.1667" ry="4.1667" style="stroke:url(#g93smemrdss1i0);stroke-width:1.0416666666666667;" width="251.1388" x="622.9167" y="113.0208"/><rect fill="url(#g93smemrdss1i0)" height="4.1667" style="stroke:url(#g93smemrdss1i0);stroke-width:1.0416666666666667;" width="251.1388" x="622.9167" y="153.4424"/><rect codeLine="36" fill="none" height="95.4264" id="co_await_lang" rx="4.1667" ry="4.1667" style="stroke:#2196F3;stroke-width:1.0416666666666667;" width="251.1388" x="622.9167" y="113.0208"/><ellipse cx="689.8514" cy="135.3149" fill="none" rx="10.4167" ry="10.4167" style="stroke:#1A78C2;stroke-width:1.0416666666666667;"/><path d="M686.7427,132.4829 L686.7427,130.8879 L692.1626,130.8879 L692.1626,132.4829 L690.3559,132.4829 L690.3559,138.4074 L692.1626,138.4074 L692.1626,140.0024 L686.7427,140.0024 L686.7427,138.4074 L688.5493,138.4074 L688.5493,132.4829 L686.7427,132.4829 Z " fill="#2196F3"/><text fill="#222222" font-family="Verdana" font-size="11.4583" font-style="italic" lengthAdjust="spacing" textLength="88.1027" x="720.0597" y="139.2817">C++ Operators</text><line style="stroke:#2196F3;stroke-width:1.0416666666666667;" x1="623.9583" x2="873.0138" y1="157.609" y2="157.609"/><line style="stroke:#2196F3;stroke-width:1.0416666666666667;" x1="623.9583" x2="873.0138" y1="165.9424" y2="165.9424"/><ellipse cx="634.375" cy="188.7573" fill="none" rx="3.125" ry="3.125" style="stroke:#1A78C2;stroke-width:1.0416666666666667;"/><text fill="#222222" font-family="Verdana" font-size="11.4583" lengthAdjust="spacing" textLength="204.2638" x="653.125" y="191.1616">{operator} co_await(...) : awaitable</text></g><!--class coroutine_handle--><g id="elem_coroutine_handle"><rect codeLine="47" fill="none" filter="url(#f93smemrdss1i)" height="61.2549" id="coroutine_handle" rx="4.1667" ry="4.1667" style="stroke:#2196F3;stroke-width:1.0416666666666667;" width="246.3979" x="936.4583" y="1259.375"/><rect fill="url(#g93smemrdss1i0)" height="44.5882" rx="4.1667" ry="4.1667" style="stroke:url(#g93smemrdss1i0);stroke-width:1.0416666666666667;" width="246.3979" x="936.4583" y="1259.375"/><rect fill="url(#g93smemrdss1i0)" height="4.1667" style="stroke:url(#g93smemrdss1i0);stroke-width:1.0416666666666667;" width="246.3979" x="936.4583" y="1299.7965"/><rect codeLine="47" fill="none" height="61.2549" id="coroutine_handle" rx="4.1667" ry="4.1667" style="stroke:#2196F3;stroke-width:1.0416666666666667;" width="246.3979" x="936.4583" y="1259.375"/><ellipse cx="951.0417" cy="1281.6691" fill="none" rx="10.4167" ry="10.4167" style="stroke:#1A78C2;stroke-width:1.0416666666666667;"/><path d="M952.946,1286.0962 Q952.5228,1286.3078 952.0508,1286.4217 Q951.5788,1286.5356 951.0742,1286.5356 Q949.2188,1286.5356 948.2422,1285.3312 Q947.2819,1284.1105 947.2819,1281.8156 Q947.2819,1279.5044 948.2422,1278.3 Q949.2188,1277.0793 951.0742,1277.0793 Q951.5788,1277.0793 952.0508,1277.1932 Q952.5391,1277.2909 952.946,1277.5187 L952.946,1279.5207 Q952.4902,1279.0975 952.0508,1278.9022 Q951.6113,1278.6906 951.1556,1278.6906 Q950.1628,1278.6906 949.6582,1279.4881 Q949.1536,1280.2694 949.1536,1281.8156 Q949.1536,1283.3455 949.6582,1284.1268 Q950.1628,1284.908 951.1556,1284.908 Q951.6113,1284.908 952.0508,1284.7127 Q952.4902,1284.5174 952.946,1284.0942 L952.946,1286.0962 Z " fill="#2196F3"/><text fill="#222222" font-family="Verdana" font-size="11.4583" lengthAdjust="spacing" textLength="99.0631" x="975" y="1285.6359">coroutine_handle</text><rect fill="none" height="37.4674" style="stroke:#2196F3;stroke-width:1.0416666666666667;stroke-dasharray:2.0,2.0;" width="93.1681" x="1092.8131" y="1256.25"/><text fill="#222222" font-family="Verdana" font-size="12.5" font-style="italic" lengthAdjust="spacing" textLength="70.2515" x="1104.2714" y="1279.3111">PROMISE_T</text><line style="stroke:#2196F3;stroke-width:1.0416666666666667;" x1="937.5" x2="1181.8146" y1="1303.9632" y2="1303.9632"/><line style="stroke:#2196F3;stroke-width:1.0416666666666667;" x1="937.5" x2="1181.8146" y1="1312.2965" y2="1312.2965"/></g><!--class microseconds--><g id="elem_microseconds"><rect codeLine="49" fill="none" filter="url(#f93smemrdss1i)" height="61.2549" id="microseconds" rx="4.1667" ry="4.1667" style="stroke:#2196F3;stroke-width:1.0416666666666667;" width="131.2846" x="768.2292" y="1259.375"/><rect fill="url(#g93smemrdss1i0)" height="44.5882" rx="4.1667" ry="4.1667" style="stroke:url(#g93smemrdss1i0);stroke-width:1.0416666666666667;" width="131.2846" x="768.2292" y="1259.375"/><rect fill="url(#g93smemrdss1i0)" height="4.1667" style="stroke:url(#g93smemrdss1i0);stroke-width:1.0416666666666667;" width="131.2846" x="768.2292" y="1299.7965"/><rect codeLine="49" fill="none" height="61.2549" id="microseconds" rx="4.1667" ry="4.1667" style="stroke:#2196F3;stroke-width:1.0416666666666667;" width="131.2846" x="768.2292" y="1259.375"/><ellipse cx="782.8125" cy="1281.6691" fill="none" rx="10.4167" ry="10.4167" style="stroke:#1A78C2;stroke-width:1.0416666666666667;"/><path d="M784.7168,1286.0962 Q784.2936,1286.3078 783.8216,1286.4217 Q783.3496,1286.5356 782.8451,1286.5356 Q780.9896,1286.5356 780.013,1285.3312 Q779.0527,1284.1105 779.0527,1281.8156 Q779.0527,1279.5044 780.013,1278.3 Q780.9896,1277.0793 782.8451,1277.0793 Q783.3496,1277.0793 783.8216,1277.1932 Q784.3099,1277.2909 784.7168,1277.5187 L784.7168,1279.5207 Q784.2611,1279.0975 783.8216,1278.9022 Q783.3822,1278.6906 782.9264,1278.6906 Q781.9336,1278.6906 781.429,1279.4881 Q780.9245,1280.2694 780.9245,1281.8156 Q780.9245,1283.3455 781.429,1284.1268 Q781.9336,1284.908 782.9264,1284.908 Q783.3822,1284.908 783.8216,1284.7127 Q784.2611,1284.5174 784.7168,1284.0942 L784.7168,1286.0962 Z " fill="#2196F3"/><text fill="#222222" font-family="Verdana" font-size="11.4583" lengthAdjust="spacing" textLength="79.2013" x="806.7708" y="1285.6359">microseconds</text><line style="stroke:#2196F3;stroke-width:1.0416666666666667;" x1="769.2708" x2="898.4721" y1="1303.9632" y2="1303.9632"/><line style="stroke:#2196F3;stroke-width:1.0416666666666667;" x1="769.2708" x2="898.4721" y1="1312.2965" y2="1312.2965"/></g><!--class awaitable_timer--><g id="elem_awaitable_timer"><rect codeLine="89" fill="none" filter="url(#f93smemrdss1i)" height="266.2842" id="awaitable_timer" rx="4.1667" ry="4.1667" style="stroke:#2196F3;stroke-width:1.0416666666666667;" width="545.635" x="786.9792" y="637.5"/><rect fill="url(#g93smemrdss1i0)" height="44.5882" rx="4.1667" ry="4.1667" style="stroke:url(#g93smemrdss1i0);stroke-width:1.0416666666666667;" width="545.635" x="786.9792" y="637.5"/><rect fill="url(#g93smemrdss1i0)" height="4.1667" style="stroke:url(#g93smemrdss1i0);stroke-width:1.0416666666666667;" width="545.635" x="786.9792" y="677.9215"/><rect codeLine="89" fill="none" height="266.2842" id="awaitable_timer" rx="4.1667" ry="4.1667" style="stroke:#2196F3;stroke-width:1.0416666666666667;" width="545.635" x="786.9792" y="637.5"/><ellipse cx="801.5625" cy="659.7941" fill="none" rx="10.4167" ry="10.4167" style="stroke:#1A78C2;stroke-width:1.0416666666666667;"/><path d="M803.4668,664.2212 Q803.0436,664.4328 802.5716,664.5467 Q802.0996,664.6606 801.5951,664.6606 Q799.7396,664.6606 798.763,663.4562 Q797.8027,662.2355 797.8027,659.9406 Q797.8027,657.6294 798.763,656.425 Q799.7396,655.2043 801.5951,655.2043 Q802.0996,655.2043 802.5716,655.3182 Q803.0599,655.4159 803.4668,655.6437 L803.4668,657.6457 Q803.0111,657.2225 802.5716,657.0272 Q802.1322,656.8156 801.6764,656.8156 Q800.6836,656.8156 800.179,657.6131 Q799.6745,658.3944 799.6745,659.9406 Q799.6745,661.4705 800.179,662.2518 Q800.6836,663.033 801.6764,663.033 Q802.1322,663.033 802.5716,662.8377 Q803.0111,662.6424 803.4668,662.2192 L803.4668,664.2212 Z " fill="#2196F3"/><text fill="#222222" font-family="Verdana" font-size="11.4583" lengthAdjust="spacing" textLength="91.9464" x="825.5208" y="663.7609">awaitable_timer</text><rect fill="none" height="37.4674" style="stroke:#2196F3;stroke-width:1.0416666666666667;stroke-dasharray:2.0,2.0;" width="399.5219" x="936.2172" y="634.375"/><text fill="#222222" font-family="Verdana" font-size="12.5" font-style="italic" lengthAdjust="spacing" textLength="376.6052" x="947.6756" y="657.4361">SCHEDULER_T=scheduler_ordered, DELAY_T=microseconds</text><line style="stroke:#2196F3;stroke-width:1.0416666666666667;" x1="788.0208" x2="1331.5725" y1="682.0882" y2="682.0882"/><rect fill="none" height="6.25" style="stroke:#1A78C2;stroke-width:1.0416666666666667;" width="6.25" x="795.3125" y="701.7782"/><text fill="#222222" font-family="Verdana" font-size="11.4583" lengthAdjust="spacing" textLength="151.946" x="817.1875" y="707.3074">scheduler_: SCHEDULER_T</text><rect fill="none" height="6.25" style="stroke:#1A78C2;stroke-width:1.0416666666666667;" width="6.25" x="795.3125" y="735.9497"/><text fill="#222222" font-family="Verdana" font-size="11.4583" lengthAdjust="spacing" textLength="98.1959" x="817.1875" y="741.479">delay_ : DELAY_T</text><line style="stroke:#2196F3;stroke-width:1.0416666666666667;" x1="788.0208" x2="1331.5725" y1="758.7646" y2="758.7646"/><ellipse cx="798.4375" cy="781.5796" fill="none" rx="3.125" ry="3.125" style="stroke:#1A78C2;stroke-width:1.0416666666666667;"/><text fill="#222222" font-family="Verdana" font-size="11.4583" lengthAdjust="spacing" textLength="269.0862" x="817.1875" y="783.9839">awaitable_timer(s: SCHEDULER_T, d: DELAY_T)</text><ellipse cx="798.4375" cy="815.7511" fill="none" rx="3.125" ry="3.125" style="stroke:#1A78C2;stroke-width:1.0416666666666667;"/><text fill="#222222" font-family="Verdana" font-size="11.4583" lengthAdjust="spacing" textLength="110.5774" x="817.1875" y="818.1554">await_ready(): bool</text><ellipse cx="798.4375" cy="849.9227" fill="none" rx="3.125" ry="3.125" style="stroke:#1A78C2;stroke-width:1.0416666666666667;"/><text fill="#222222" font-family="Verdana" font-size="11.4583" lengthAdjust="spacing" textLength="212.0855" x="817.1875" y="852.327">await_suspend(coroutine_handle&lt;&gt;)</text><ellipse cx="798.4375" cy="884.0942" fill="none" rx="3.125" ry="3.125" style="stroke:#1A78C2;stroke-width:1.0416666666666667;"/><text fill="#222222" font-family="Verdana" font-size="11.4583" lengthAdjust="spacing" textLength="88.9643" x="817.1875" y="886.4985">await_resume()</text></g><!--class scheduled_delay--><g id="elem_scheduled_delay"><rect codeLine="57" fill="none" filter="url(#f93smemrdss1i)" height="129.598" id="scheduled_delay" rx="4.1667" ry="4.1667" style="stroke:#2196F3;stroke-width:1.0416666666666667;" width="549.35" x="201.0417" y="706.25"/><rect fill="url(#g93smemrdss1i0)" height="44.5882" rx="4.1667" ry="4.1667" style="stroke:url(#g93smemrdss1i0);stroke-width:1.0416666666666667;" width="549.35" x="201.0417" y="706.25"/><rect fill="url(#g93smemrdss1i0)" height="4.1667" style="stroke:url(#g93smemrdss1i0);stroke-width:1.0416666666666667;" width="549.35" x="201.0417" y="746.6715"/><rect codeLine="57" fill="none" height="129.598" id="scheduled_delay" rx="4.1667" ry="4.1667" style="stroke:#2196F3;stroke-width:1.0416666666666667;" width="549.35" x="201.0417" y="706.25"/><ellipse cx="215.625" cy="728.5441" fill="none" rx="10.4167" ry="10.4167" style="stroke:#1A78C2;stroke-width:1.0416666666666667;"/><path d="M214.5671,729.2277 Q213.2161,728.7069 212.7279,728.1372 Q212.2396,727.5675 212.2396,726.6073 Q212.2396,725.3703 213.0371,724.6704 Q213.8346,723.9543 215.2181,723.9543 Q215.8529,723.9543 216.4714,724.1007 Q217.1061,724.2472 217.7246,724.5239 L217.7246,726.2817 Q217.1387,725.8748 216.5365,725.6632 Q215.9505,725.4354 215.3646,725.4354 Q214.7135,725.4354 214.3555,725.7121 Q214.0137,725.9725 214.0137,726.4608 Q214.0137,726.8351 214.2578,727.0793 Q214.5182,727.3234 215.3158,727.6326 L216.097,727.9256 Q217.2038,728.3162 217.7083,728.9836 Q218.2292,729.6509 218.2292,730.66 Q218.2292,732.0435 217.4154,732.7271 Q216.6016,733.4106 214.9577,733.4106 Q214.2741,733.4106 213.5905,733.2479 Q212.9232,733.0851 212.2884,732.7596 L212.2884,730.9041 Q213.0046,731.425 213.6719,731.6691 Q214.3555,731.9132 215.0065,731.9132 Q215.6738,731.9132 216.0319,731.6203 Q216.4063,731.311 216.4063,730.7739 Q216.4063,730.367 216.1621,730.0578 Q215.918,729.7485 215.4622,729.5695 L214.5671,729.2277 Z " fill="#2196F3"/><text fill="#222222" font-family="Verdana" font-size="11.4583" lengthAdjust="spacing" textLength="95.6614" x="239.5833" y="732.5109">scheduled_delay</text><rect fill="none" height="37.4674" style="stroke:#2196F3;stroke-width:1.0416666666666667;stroke-dasharray:2.0,2.0;" width="399.5219" x="353.9948" y="703.125"/><text fill="#222222" font-family="Verdana" font-size="12.5" font-style="italic" lengthAdjust="spacing" textLength="376.6052" x="365.4531" y="726.1861">SCHEDULER_T=scheduler_ordered, DELAY_T=microseconds</text><line style="stroke:#2196F3;stroke-width:1.0416666666666667;" x1="202.0833" x2="749.35" y1="750.8382" y2="750.8382"/><ellipse cx="212.5" cy="773.6532" fill="none" rx="3.125" ry="3.125" style="stroke:#1A78C2;stroke-width:1.0416666666666667;"/><text fill="#222222" font-family="Verdana" font-size="11.4583" lengthAdjust="spacing" textLength="146.2168" x="231.25" y="776.0574">scheduler: SCHEDULER_T</text><ellipse cx="212.5" cy="807.8247" fill="none" rx="3.125" ry="3.125" style="stroke:#1A78C2;stroke-width:1.0416666666666667;"/><text fill="#222222" font-family="Verdana" font-size="11.4583" lengthAdjust="spacing" textLength="88.8245" x="231.25" y="810.229">delay: DELAY_T</text><line style="stroke:#2196F3;stroke-width:1.0416666666666667;" x1="202.0833" x2="749.35" y1="827.5146" y2="827.5146"/></g><!--class co_await--><g id="elem_co_await"><rect codeLine="62" fill="none" filter="url(#f93smemrdss1i)" height="95.4264" id="co_await" rx="4.1667" ry="4.1667" style="stroke:#2196F3;stroke-width:1.0416666666666667;" width="495.5683" x="227.6042" y="389.5833"/><rect fill="url(#g93smemrdss1i0)" height="44.5882" rx="4.1667" ry="4.1667" style="stroke:url(#g93smemrdss1i0);stroke-width:1.0416666666666667;" width="495.5683" x="227.6042" y="389.5833"/><rect fill="url(#g93smemrdss1i0)" height="4.1667" style="stroke:url(#g93smemrdss1i0);stroke-width:1.0416666666666667;" width="495.5683" x="227.6042" y="430.0049"/><rect codeLine="62" fill="none" height="95.4264" id="co_await" rx="4.1667" ry="4.1667" style="stroke:#2196F3;stroke-width:1.0416666666666667;" width="495.5683" x="227.6042" y="389.5833"/><ellipse cx="416.7536" cy="411.8774" fill="none" rx="10.4167" ry="10.4167" style="stroke:#1A78C2;stroke-width:1.0416666666666667;"/><path d="M413.6449,409.0454 L413.6449,407.4504 L419.0648,407.4504 L419.0648,409.0454 L417.2582,409.0454 L417.2582,414.9699 L419.0648,414.9699 L419.0648,416.5649 L413.6449,416.5649 L413.6449,414.9699 L415.4516,414.9699 L415.4516,409.0454 L413.6449,409.0454 Z " fill="#2196F3"/><text fill="#222222" font-family="Verdana" font-size="11.4583" font-style="italic" lengthAdjust="spacing" textLength="88.1027" x="446.962" y="415.8442">C++ Operators</text><line style="stroke:#2196F3;stroke-width:1.0416666666666667;" x1="228.6458" x2="722.1308" y1="434.1715" y2="434.1715"/><line style="stroke:#2196F3;stroke-width:1.0416666666666667;" x1="228.6458" x2="722.1308" y1="442.5049" y2="442.5049"/><ellipse cx="239.0625" cy="465.3198" fill="none" rx="3.125" ry="3.125" style="stroke:#1A78C2;stroke-width:1.0416666666666667;"/><text fill="#222222" font-family="Verdana" font-size="11.4583" lengthAdjust="spacing" textLength="448.6933" x="257.8125" y="467.7241">{operator} co_await(scheduled_delay &amp;&amp;) : awaitable_timer&lt;SCHEDULER_T&gt;</text></g><g id="elem_GMN19"><path d="M760.4167,367.7083 L760.4167,433.3333 L723.4688,437.5 L760.4167,441.6667 L760.4167,507.0313 A4.1667,4.1667 0 0 0 764.5833,511.1979 L1180.1229,511.1979 A4.1667,4.1667 0 0 0 1184.2896,507.0313 L1184.2896,373.9583 L1173.8729,363.5417 L764.5833,363.5417 A4.1667,4.1667 0 0 0 760.4167,367.7083 " fill="none" filter="url(#f93smemrdss1i)" style="stroke:#9C27B0;stroke-width:1.0416666666666667;"/><path d="M1173.8729,363.5417 L1173.8729,371.875 A2.0833,2.0833 0 0 0 1175.9562,373.9583 L1184.2896,373.9583 L1173.8729,363.5417 " fill="none" style="stroke:#9C27B0;stroke-width:1.0416666666666667;"/><text fill="#9C27B0" font-family="Verdana" font-size="12.5" lengthAdjust="spacing" textLength="158.3557" x="777.0833" y="390.7694">We override the operator</text><text fill="#9C27B0" font-family="Verdana" font-size="12.5" font-weight="bold" lengthAdjust="spacing" textLength="60.9253" x="939.4124" y="390.7694">co_await</text><text fill="#9C27B0" font-family="Verdana" font-size="12.5" lengthAdjust="spacing" textLength="55.6458" x="777.0833" y="405.3202">to take a</text><text fill="#9C27B0" font-family="Verdana" font-size="12.5" font-style="italic" lengthAdjust="spacing" textLength="104.3579" x="836.7025" y="405.3202">scheduled_delay</text><text fill="#9C27B0" font-family="Verdana" font-size="12.5" lengthAdjust="spacing" textLength="36.2488" x="945.0338" y="405.3202">struct</text><text fill="#9C27B0" font-family="Verdana" font-size="12.5" lengthAdjust="spacing" textLength="141.9678" x="777.0833" y="419.871">and use it to create an</text><text fill="#9C27B0" font-family="Verdana" font-size="12.5" font-style="italic" lengthAdjust="spacing" textLength="100.3052" x="923.0245" y="419.871">awaitable_timer</text><text fill="#9C27B0" font-family="Verdana" font-size="12.5" lengthAdjust="spacing" textLength="31.0303" x="1027.3031" y="419.871">class</text><text fill="#9C27B0" font-family="Verdana" font-size="12.5" lengthAdjust="spacing" textLength="293.7927" x="777.0833" y="434.4218">that implements the C++ awaitable co-routine</text><text fill="#9C27B0" font-family="Verdana" font-size="12.5" lengthAdjust="spacing" textLength="53.8147" x="777.0833" y="448.9726">concept.</text><text fill="#9C27B0" font-family="Verdana" font-size="12.5" lengthAdjust="spacing" textLength="3.9734" x="777.0833" y="463.5234">&#160;</text><text fill="#9C27B0" font-family="Verdana" font-size="12.5" lengthAdjust="spacing" textLength="23.2483" x="777.0833" y="478.0741">The</text><text fill="#9C27B0" font-family="Verdana" font-size="12.5" font-style="italic" lengthAdjust="spacing" textLength="104.3579" x="804.305" y="478.0741">scheduled_delay</text><text fill="#9C27B0" font-family="Verdana" font-size="12.5" lengthAdjust="spacing" textLength="157.1045" x="912.6363" y="478.0741">stuct is an agregate type</text><text fill="#9C27B0" font-family="Verdana" font-size="12.5" lengthAdjust="spacing" textLength="381.1646" x="777.0833" y="492.6249">that binds the delay specification and delay implementation.</text></g><!--class SCHEDULER_T--><g id="elem_SCHEDULER_T"><rect codeLine="98" fill="none" filter="url(#f93smemrdss1i)" height="95.4264" id="SCHEDULER_T" rx="4.1667" ry="4.1667" style="stroke:#2196F3;stroke-width:1.0416666666666667;" width="468.31" x="258.8542" y="966.6667"/><rect fill="url(#g93smemrdss1i0)" height="44.5882" rx="4.1667" ry="4.1667" style="stroke:url(#g93smemrdss1i0);stroke-width:1.0416666666666667;" width="468.31" x="258.8542" y="966.6667"/><rect fill="url(#g93smemrdss1i0)" height="4.1667" style="stroke:url(#g93smemrdss1i0);stroke-width:1.0416666666666667;" width="468.31" x="258.8542" y="1007.0882"/><rect codeLine="98" fill="none" height="95.4264" id="SCHEDULER_T" rx="4.1667" ry="4.1667" style="stroke:#2196F3;stroke-width:1.0416666666666667;" width="468.31" x="258.8542" y="966.6667"/><ellipse cx="437.0992" cy="988.9608" fill="none" rx="10.4167" ry="10.4167" style="stroke:#1A78C2;stroke-width:1.0416666666666667;"/><path d="M436.6923,985.9172 L435.8459,989.6444 L437.5549,989.6444 L436.6923,985.9172 Z M435.6018,984.2733 L437.7991,984.2733 L440.2568,993.3879 L438.4501,993.3879 L437.8967,991.1418 L435.4879,991.1418 L434.9345,993.3879 L433.1278,993.3879 L435.6018,984.2733 Z " fill="#2196F3"/><text fill="#222222" font-family="Verdana" font-size="11.4583" font-style="italic" lengthAdjust="spacing" textLength="82.6533" x="467.3075" y="992.9276">SCHEDULER_T</text><line style="stroke:#2196F3;stroke-width:1.0416666666666667;" x1="259.8958" x2="726.1225" y1="1011.2549" y2="1011.2549"/><line style="stroke:#2196F3;stroke-width:1.0416666666666667;" x1="259.8958" x2="726.1225" y1="1019.5882" y2="1019.5882"/><ellipse cx="270.3125" cy="1042.4032" fill="none" rx="3.125" ry="3.125" style="stroke:#1A78C2;stroke-width:1.0416666666666667;"/><text fill="#222222" font-family="Verdana" font-size="11.4583" lengthAdjust="spacing" textLength="421.435" x="289.0625" y="1044.8074">insert(handle : std::coroutine_handle&lt;&gt;, condition: WAKE_CONDITION_T)</text></g><!--class DELAY_T--><g id="elem_DELAY_T"><rect fill="none" filter="url(#f93smemrdss1i)" height="61.2549" id="DELAY_T" rx="4.1667" ry="4.1667" style="stroke:#2196F3;stroke-width:1.0416666666666667;" width="102.096" x="782.8125" y="983.8542"/><rect fill="url(#g93smemrdss1i0)" height="44.5882" rx="4.1667" ry="4.1667" style="stroke:url(#g93smemrdss1i0);stroke-width:1.0416666666666667;" width="102.096" x="782.8125" y="983.8542"/><rect fill="url(#g93smemrdss1i0)" height="4.1667" style="stroke:url(#g93smemrdss1i0);stroke-width:1.0416666666666667;" width="102.096" x="782.8125" y="1024.2757"/><rect fill="none" height="61.2549" id="DELAY_T" rx="4.1667" ry="4.1667" style="stroke:#2196F3;stroke-width:1.0416666666666667;" width="102.096" x="782.8125" y="983.8542"/><ellipse cx="797.3958" cy="1006.1483" fill="none" rx="10.4167" ry="10.4167" style="stroke:#1A78C2;stroke-width:1.0416666666666667;"/><path d="M799.3001,1010.5754 Q798.877,1010.7869 798.4049,1010.9009 Q797.9329,1011.0148 797.4284,1011.0148 Q795.5729,1011.0148 794.5964,1009.8104 Q793.6361,1008.5897 793.6361,1006.2948 Q793.6361,1003.9836 794.5964,1002.7791 Q795.5729,1001.5584 797.4284,1001.5584 Q797.9329,1001.5584 798.4049,1001.6724 Q798.8932,1001.77 799.3001,1001.9979 L799.3001,1003.9998 Q798.8444,1003.5767 798.4049,1003.3813 Q797.9655,1003.1698 797.5098,1003.1698 Q796.5169,1003.1698 796.0124,1003.9673 Q795.5078,1004.7485 795.5078,1006.2948 Q795.5078,1007.8247 796.0124,1008.606 Q796.5169,1009.3872 797.5098,1009.3872 Q797.9655,1009.3872 798.4049,1009.1919 Q798.8444,1008.9966 799.3001,1008.5734 L799.3001,1010.5754 Z " fill="#2196F3"/><text fill="#222222" font-family="Verdana" font-size="11.4583" lengthAdjust="spacing" textLength="50.0127" x="821.3542" y="1010.1151">DELAY_T</text><line style="stroke:#2196F3;stroke-width:1.0416666666666667;" x1="783.8542" x2="883.8669" y1="1028.4424" y2="1028.4424"/><line style="stroke:#2196F3;stroke-width:1.0416666666666667;" x1="783.8542" x2="883.8669" y1="1036.7757" y2="1036.7757"/></g><g id="elem_GMN3"><path d="M16.6667,33.3333 L16.6667,289.0625 A4.1667,4.1667 0 0 0 20.8333,293.2292 L332.2347,293.2292 A4.1667,4.1667 0 0 0 336.4014,289.0625 L336.4014,39.5833 L325.9847,29.1667 L20.8333,29.1667 A4.1667,4.1667 0 0 0 16.6667,33.3333 " fill="none" filter="url(#f93smemrdss1i)" style="stroke:#9C27B0;stroke-width:1.0416666666666667;"/><path d="M325.9847,29.1667 L325.9847,37.5 A2.0833,2.0833 0 0 0 328.068,39.5833 L336.4014,39.5833 L325.9847,29.1667 " fill="none" style="stroke:#9C27B0;stroke-width:1.0416666666666667;"/><text fill="#9C27B0" font-family="Verdana" font-size="12.5" lengthAdjust="spacing" textLength="3.9734" x="33.3333" y="56.3944">&#160;</text><text fill="#9C27B0" font-family="Verdana" font-size="12.5" lengthAdjust="spacing" textLength="232.0129" x="33.3333" y="70.9452">This diagram shows the classes used</text><text fill="#9C27B0" font-family="Verdana" font-size="12.5" lengthAdjust="spacing" textLength="206.6101" x="33.3333" y="85.496">to implement a co-routine that is</text><text fill="#9C27B0" font-family="Verdana" font-size="12.5" lengthAdjust="spacing" textLength="192.9016" x="33.3333" y="100.0468">suspended for a length of time</text><text fill="#9C27B0" font-family="Verdana" font-size="12.5" lengthAdjust="spacing" textLength="239.9048" x="33.3333" y="114.5976">specified in std::chono::microseconds.</text><text fill="#9C27B0" font-family="Verdana" font-size="12.5" lengthAdjust="spacing" textLength="65.686" x="33.3333" y="129.1484">It uses the</text><text fill="#9C27B0" font-family="Verdana" font-size="12.5" font-weight="bold" lengthAdjust="spacing" textLength="60.9253" x="102.9928" y="129.1484">co_await</text><text fill="#9C27B0" font-family="Verdana" font-size="12.5" lengthAdjust="spacing" textLength="69.7937" x="167.8914" y="129.1484">keyword to</text><text fill="#9C27B0" font-family="Verdana" font-size="12.5" lengthAdjust="spacing" textLength="255.0842" x="33.3333" y="143.6991">insert a co-routine handle and delay into</text><text fill="#9C27B0" font-family="Verdana" font-size="12.5" lengthAdjust="spacing" textLength="178.9124" x="33.3333" y="158.2499">into a task scheduler of type</text><text fill="#9C27B0" font-family="Verdana" font-size="12.5" font-style="italic" lengthAdjust="spacing" textLength="90.1672" x="216.2191" y="158.2499">SCHEDULER_T</text><text fill="#9C27B0" font-family="Verdana" font-size="12.5" lengthAdjust="spacing" textLength="3.9734" x="306.3863" y="158.2499">.</text><text fill="#9C27B0" font-family="Verdana" font-size="12.5" lengthAdjust="spacing" textLength="3.9734" x="33.3333" y="172.8007">&#160;</text><text fill="#9C27B0" font-family="Verdana" font-size="12.5" lengthAdjust="spacing" textLength="23.5718" x="33.3333" y="187.3515">e.g.</text><text fill="#9C27B0" font-family="Verdana" font-size="12.5" lengthAdjust="spacing" textLength="3.9734" x="33.3333" y="201.9023">&#160;</text><text fill="#9C27B0" font-family="Verdana" font-size="12.5" lengthAdjust="spacing" textLength="212.677" x="33.3333" y="216.453">SCHEDULER_T s; // task scheduler</text><text fill="#9C27B0" font-family="Verdana" font-size="12.5" lengthAdjust="spacing" textLength="261.8652" x="33.3333" y="231.0038">std::chrono::microseconds wait_t; // delay</text><text fill="#9C27B0" font-family="Verdana" font-size="12.5" font-weight="bold" lengthAdjust="spacing" textLength="60.9253" x="33.3333" y="245.5546">co_await</text><text fill="#9C27B0" font-family="Verdana" font-size="12.5" lengthAdjust="spacing" textLength="3.9734" x="94.2586" y="245.5546">&#160;</text><text fill="#9C27B0" font-family="Verdana" font-size="12.5" font-style="italic" lengthAdjust="spacing" textLength="104.3579" x="98.232" y="245.5546">scheduled_delay</text><text fill="#9C27B0" font-family="Verdana" font-size="12.5" lengthAdjust="spacing" textLength="79.9316" x="202.5899" y="245.5546">{ s, wait_t };</text><text fill="#9C27B0" font-family="Verdana" font-size="12.5" lengthAdjust="spacing" textLength="3.9734" x="33.3333" y="260.1054">&#160;</text><text fill="#9C27B0" font-family="Verdana" font-size="12.5" lengthAdjust="spacing" textLength="3.9734" x="33.3333" y="274.6562">&#160;</text></g><!--link GMN3 to cpp_concepts--><g id="link_GMN3_cpp_concepts"><path d="M336.5208,160.9375 C342.5781,160.9375 348.6354,160.9375 354.6927,160.9375 C357.7214,160.9375 360.75,160.9375 363.7786,160.9375 C364.1572,160.9375 364.5358,160.9375 364.9144,160.9375 C364.9617,160.9375 365.009,160.9375 365.0564,160.9375 " fill="none" id="GMN3-cpp_concepts" style="stroke:#2196F3;stroke-width:3.125;stroke-dasharray:7.0,7.0;"/></g><!--link co_await_lang to awaitable--><g id="link_co_await_lang_awaitable"><path codeLine="40" d="M874.0521,160.9375 C886.1563,160.9375 898.2604,160.9375 910.375,160.9375 " fill="none" id="co_await_lang-awaitable" style="stroke:#2196F3;stroke-width:3.125;stroke-dasharray:7.0,7.0;"/><text fill="#222222" font-family="Verdana" font-size="12.5" lengthAdjust="spacing" textLength="45.2271" x="893.3382" y="135.774">returns</text></g><!--reverse link awaitable to awaitable_timer--><g id="link_awaitable_awaitable_timer"><path codeLine="55" d="M1173.7038,256.1356 C1190.808,273.2189 1192.6667,279.4583 1202.6042,301.0417 C1252.8542,410.1875 1204.2083,541.5938 1150.5,637.4688 " fill="none" id="awaitable-backto-awaitable_timer" style="stroke:#2196F3;stroke-width:3.125;"/><polygon fill="none" points="1160.4375,242.8854,1169.2871,260.5577,1178.1206,251.7135,1160.4375,242.8854" style="stroke:#2196F3;stroke-width:3.125;"/></g><!--reverse link co_await_lang to co_await--><g id="link_co_await_lang_co_await"><path codeLine="77" d="M688.3011,222.4633 C638.1657,272.8904 572.3646,339.0625 522.2813,389.4271 " fill="none" id="co_await_lang-backto-co_await" style="stroke:#2196F3;stroke-width:3.125;"/><polygon fill="none" points="701.5208,209.1667,683.8689,218.0567,692.7333,226.8699,701.5208,209.1667" style="stroke:#2196F3;stroke-width:3.125;"/></g><!--link co_await to scheduled_delay--><g id="link_co_await_scheduled_delay"><path codeLine="79" d="M475.5208,485.6458 C475.5208,543.4375 475.5208,641.6354 475.5208,706.1042 " fill="none" id="co_await-scheduled_delay" style="stroke:#2196F3;stroke-width:3.125;stroke-dasharray:7.0,7.0;"/><text fill="#222222" font-family="Verdana" font-size="12.5" lengthAdjust="spacing" textLength="63.2568" x="397.8455" y="515.3013">consumes</text></g><!--link co_await to awaitable_timer--><g id="link_co_await_awaitable_timer"><path codeLine="80" d="M558.3125,485.4792 C628.1354,525.0521 731.5625,583.6771 826.3958,637.4271 " fill="none" id="co_await-awaitable_timer" style="stroke:#2196F3;stroke-width:3.125;stroke-dasharray:7.0,7.0;"/><text fill="#222222" font-family="Verdana" font-size="12.5" lengthAdjust="spacing" textLength="45.2271" x="509.2381" y="515.5271">returns</text></g><!--reverse link awaitable_timer to SCHEDULER_T--><g id="link_awaitable_timer_SCHEDULER_T"><path codeLine="82" d="M775.3396,901.1462 C769.0896,903.8337 774.3646,901.5521 768.2292,904.1667 C718.3438,925.3854 662.875,947.6875 614.8958,966.5833 " fill="none" id="awaitable_timer-backto-SCHEDULER_T" style="stroke:#2196F3;stroke-width:3.125;"/><polygon fill="none" points="786.8229,896.2083,779.4353,894.8495,775.3396,901.1462,782.7272,902.505,786.8229,896.2083" style="stroke:#2196F3;stroke-width:3.125;"/></g><!--reverse link awaitable_timer to DELAY_T--><g id="link_awaitable_timer_DELAY_T"><path codeLine="83" d="M927.4202,913.5046 C899.4514,943.4109 880.9271,963.2188 861.6875,983.7813 " fill="none" id="awaitable_timer-backto-DELAY_T" style="stroke:#2196F3;stroke-width:3.125;"/><polygon fill="none" points="935.9583,904.375,928.6461,906.0938,927.4202,913.5046,934.7325,911.7859,935.9583,904.375" style="stroke:#2196F3;stroke-width:3.125;"/></g><!--link awaitable_timer to coroutine_handle--><g id="link_awaitable_timer_coroutine_handle"><path codeLine="84" d="M1059.8958,904.3958 C1059.8958,1024.1042 1059.8958,1191.5521 1059.8958,1259.0833 " fill="none" id="awaitable_timer-coroutine_handle" style="stroke:#2196F3;stroke-width:3.125;stroke-dasharray:7.0,7.0;"/></g><!--reverse link scheduled_delay to SCHEDULER_T--><g id="link_scheduled_delay_SCHEDULER_T"><path codeLine="86" d="M481.1107,848.1541 C484.1211,889.2687 487.0625,929.3438 489.7917,966.625 " fill="none" id="scheduled_delay-backto-SCHEDULER_T" style="stroke:#2196F3;stroke-width:3.125;"/><polygon fill="none" points="480.1979,835.6875,476.4988,842.2251,481.1107,848.1541,484.8099,841.6165,480.1979,835.6875" style="stroke:#2196F3;stroke-width:3.125;"/></g><!--reverse link scheduled_delay to DELAY_T--><g id="link_scheduled_delay_DELAY_T"><path codeLine="87" d="M580.4991,842.6763 C651.4158,890.4992 734.8958,946.8021 789.3958,983.5521 " fill="none" id="scheduled_delay-backto-DELAY_T" style="stroke:#2196F3;stroke-width:3.125;"/><polygon fill="none" points="570.1354,835.6875,572.9877,842.6365,580.4991,842.6763,577.6469,835.7273,570.1354,835.6875" style="stroke:#2196F3;stroke-width:3.125;"/></g><!--link DELAY_T to microseconds--><g id="link_DELAY_T_microseconds"><path codeLine="102" d="M833.8542,1045.4063 C833.8542,1098.0104 833.8542,1206.7396 833.8542,1259.3125 " fill="none" id="DELAY_T-microseconds" style="stroke:#2196F3;stroke-width:3.125;stroke-dasharray:7.0,7.0;"/></g><!--SRC=[hLPDR-Cs4BthLqnzM3Y8BTsrhe7KyQ91qqsHk5WKYuL0YsEBi2mQ91qZIFtVEwGecQRNRL5K1m4Yv-CDvysZVZ0LRX6spA0IR2ptfXOD9icEbHksHYXtkwAKJOaxe-7zc2IDD0WrhWp8rTbkaYmgeO4BjbPi2xgI1mqK7SgQQOqQzXev94Q2sEvgIjeOO53AiQAab9DicG6X4xtNEsmu6Q-a8fCQcxMfR3eZ26f2kwLO2TeN3MZ3yxoiP2FpV2jA9JKI8AxJvC7OZ2s4oN9Qoe8Tc32JR3c53RuTfE90O1BHQ5GHb8erl4QWDt2isHjbQatfpS0mlG5TLiZtDIe7x6r7ISJqPVRp_Fxtn_bpiPXaOfec2QPhUWVhe3z2baKn4b-6kgW3BER2E1y79ObheRHT75uu4vlw7VJ8-yBn8oI4X8gnpJlrTZ2xlOL7rgptzclc-pW0fgEs9mc0yxLRn8-D_VxwjJ9cf_CimoObUuKhL4WkQIctsI6ZfQpsmRDI-gFLy4d9BTZCpvt3jsystWaVVT19ergnqeESTUvmPsjYoneTJDPz4KPedzjsiL38-Dlm9bxsv1hsW8gsrvFfpMK4lTzY6-BeKCMmddQec97AdvdlIc6h3W2zIszsx4s6QPhUG7x2xunzalCu0uLchnfAaOwLM5TcF0xS4lA96lfYU2sM8piP0-XwgTsY1-K64YvEuBVdfryVNkR5Okgi-g0jBGUdYbh_aAKU_Z60yacy8iotI-GSN-4dfcZY3QjFhMmFRKLc1NPcBTE2jax-77DvQ8AI2oi2ghNJHkrB0p7zWsdxiH-nWkQTwCP7S3z_lFk3ji82fa6_UfSSWaZzjikHTr72nlqhTlm3CQ9QuCE7CvwqrOSLJaC4RaOTIvmw-w1kwmk2V4Mb14SdYLtkM1kTCScSOHiQzolgua- -RHRDBGajK6daLjBSMPreh6SCstewyhH9dDvtTq4hrFRSJjqF5DbFXbEa5Dfg5nLUnsU9GTSH0Q7x2DSMb5FfK-gbiFfgixP7xU-LaXaXcr3xEuXk8tK1piGgcjYUi_tvdndHGCd6AeiRwN7CtiWscFuhGn0jWlJPO-vUsetFI1plftqLvphXHo_YwRMibtQdh84O_Gt1_yi8n_66-coMHy3x0RwvSd7ai9Io_f-k3_kSEgsAxohBkELR0TyL5xQacMD4wl1V8gYu_OqP-Z-NtFyONS0SsI7YmZ8vXoztlyoBsTFd-uV5mzFdxYnyGe-Xvy6PtfFDNm00]--></g></svg>
