<svg xmlns="http://www.w3.org/2000/svg" xmlns:xlink="http://www.w3.org/1999/xlink" contentStyleType="text/css" height="1428.125px" preserveAspectRatio="none" style="width:1919px;height:1428px;" version="1.1" viewBox="0 0 1919 1428" width="1919.7917px" zoomAndPan="magnify"><defs><filter height="300%" id="fs8rh83q5u8ze" width="300%" x="-1" y="-1"><feGaussianBlur result="blurOut" stdDeviation="2.0833333333333335"/><feColorMatrix in="blurOut" result="blurOut2" type="matrix" values="0 0 0 0 0 0 0 0 0 0 0 0 0 0 0 0 0 0 .4 0"/><feOffset dx="4.166666666666667" dy="4.166666666666667" in="blurOut2" result="blurOut3"/><feBlend in="SourceGraphic" in2="blurOut3" mode="normal"/></filter><linearGradient id="gs8rh83q5u8ze0" x1="50%" x2="50%" y1="0%" y2="100%"><stop offset="0%" stop-color="#2196F3"/><stop offset="100%" stop-color="#1A78C2"/></linearGradient></defs><g><!--cluster lang_concepts--><g id="cluster_lang_concepts"><path d="M880.2083,16.6667 L998.9217,16.6667 A6.25,6.25 0 0 1 1003.0884,20.8333 L1010.38,58.3008 L1903.125,58.3008 A4.1667,4.1667 0 0 1 1907.2917,62.4674 L1907.2917,603.125 A4.1667,4.1667 0 0 1 1903.125,607.2917 L880.2083,607.2917 A4.1667,4.1667 0 0 1 876.0417,603.125 L876.0417,20.8333 A4.1667,4.1667 0 0 1 880.2083,16.6667 " fill="none" filter="url(#fs8rh83q5u8ze)" style="stroke:#2196F3;stroke-width:2.0833333333333335;"/><line style="stroke:#2196F3;stroke-width:2.0833333333333335;" x1="876.0417" x2="1010.38" y1="58.3008" y2="58.3008"/><text fill="#2196F3" font-family="Verdana" font-size="12.5" font-weight="bold" lengthAdjust="spacing" textLength="99.9634" x="890.625" y="40.7694">lang_concepts</text></g><!--cluster compiler_types--><g id="cluster_compiler_types"><path d="M902.6042,640.625 L1089.445,640.625 A6.25,6.25 0 0 1 1093.6117,644.7917 L1100.9033,682.2591 L1259.8958,682.2591 A4.1667,4.1667 0 0 1 1264.0625,686.4258 L1264.0625,1217.7083 A4.1667,4.1667 0 0 1 1259.8958,1221.875 L902.6042,1221.875 A4.1667,4.1667 0 0 1 898.4375,1217.7083 L898.4375,644.7917 A4.1667,4.1667 0 0 1 902.6042,640.625 " fill="none" filter="url(#fs8rh83q5u8ze)" style="stroke:#2196F3;stroke-width:2.0833333333333335;"/><line style="stroke:#2196F3;stroke-width:2.0833333333333335;" x1="898.4375" x2="1100.9033" y1="682.2591" y2="682.2591"/><text fill="#2196F3" font-family="Verdana" font-size="12.5" font-weight="bold" lengthAdjust="spacing" textLength="168.0908" x="913.0208" y="664.7278">Compiler Defined Types</text></g><!--cluster impl--><g id="cluster_impl"><path d="M1445.8333,640.625 L1729.891,640.625 A6.25,6.25 0 0 1 1734.0576,644.7917 L1741.3493,682.2591 L1868.75,682.2591 A4.1667,4.1667 0 0 1 1872.9167,686.4258 L1872.9167,1262.5 A4.1667,4.1667 0 0 1 1868.75,1266.6667 L1445.8333,1266.6667 A4.1667,4.1667 0 0 1 1441.6667,1262.5 L1441.6667,644.7917 A4.1667,4.1667 0 0 1 1445.8333,640.625 " fill="none" filter="url(#fs8rh83q5u8ze)" style="stroke:#2196F3;stroke-width:2.0833333333333335;"/><line style="stroke:#2196F3;stroke-width:2.0833333333333335;" x1="1441.6667" x2="1741.3493" y1="682.2591" y2="682.2591"/><text fill="#2196F3" font-family="Verdana" font-size="12.5" font-weight="bold" lengthAdjust="spacing" textLength="265.3076" x="1456.25" y="664.7278">Five Embeddev Baremetal Coroutines</text></g><!--cluster concepts2--><g id="cluster_concepts2"><path d="M20.8333,1102.0833 L212.325,1102.0833 A6.25,6.25 0 0 1 216.4917,1106.25 L223.7834,1143.7174 L221.875,1143.7174 A4.1667,4.1667 0 0 1 226.0417,1147.8841 L226.0417,1231.25 A4.1667,4.1667 0 0 1 221.875,1235.4167 L20.8333,1235.4167 A4.1667,4.1667 0 0 1 16.6667,1231.25 L16.6667,1106.25 A4.1667,4.1667 0 0 1 20.8333,1102.0833 " fill="none" filter="url(#fs8rh83q5u8ze)" style="stroke:#2196F3;stroke-width:2.0833333333333335;"/><line style="stroke:#2196F3;stroke-width:2.0833333333333335;" x1="16.6667" x2="223.7834" y1="1143.7174" y2="1143.7174"/><text fill="#2196F3" font-family="Verdana" font-size="12.5" font-weight="bold" lengthAdjust="spacing" textLength="172.7417" x="31.25" y="1126.1861">C++ Language Concepts</text></g><!--cluster stdlib--><g id="cluster_stdlib"><path d="M264.5833,825 L451.8331,825 A6.25,6.25 0 0 1 455.9998,829.1667 L463.2914,866.6341 L727.0833,866.6341 A4.1667,4.1667 0 0 1 731.25,870.8008 L731.25,1411.4583 A4.1667,4.1667 0 0 1 727.0833,1415.625 L264.5833,1415.625 A4.1667,4.1667 0 0 1 260.4167,1411.4583 L260.4167,829.1667 A4.1667,4.1667 0 0 1 264.5833,825 " fill="none" filter="url(#fs8rh83q5u8ze)" style="stroke:#2196F3;stroke-width:2.0833333333333335;"/><line style="stroke:#2196F3;stroke-width:2.0833333333333335;" x1="260.4167" x2="463.2914" y1="866.6341" y2="866.6341"/><text fill="#2196F3" font-family="Verdana" font-size="12.5" font-weight="bold" lengthAdjust="spacing" textLength="168.4998" x="275" y="849.1028">C++ Stdlib &lt;coroutine&gt;</text></g><g id="elem_link"><path d="M993.2292,520.8333 L993.2292,558.3008 A4.1667,4.1667 0 0 0 997.3958,562.4674 L1165.328,562.4674 A4.1667,4.1667 0 0 0 1169.4946,558.3008 L1169.4946,527.0833 L1159.078,516.6667 L997.3958,516.6667 A4.1667,4.1667 0 0 0 993.2292,520.8333 " fill="none" filter="url(#fs8rh83q5u8ze)" style="stroke:#9C27B0;stroke-width:1.0416666666666667;"/><path d="M1159.078,516.6667 L1159.078,525 A2.0833,2.0833 0 0 0 1161.1613,527.0833 L1169.4946,527.0833 L1159.078,516.6667 " fill="none" style="stroke:#9C27B0;stroke-width:1.0416666666666667;"/><a href="https://en.cppreference.com/w/cpp/language/coroutines" target="_top" title="https://en.cppreference.com/w/cpp/language/coroutines" xlink:actuate="onRequest" xlink:href="https://en.cppreference.com/w/cpp/language/coroutines" xlink:show="new" xlink:title="https://en.cppreference.com/w/cpp/language/coroutines" xlink:type="simple"><text fill="#FD7E14" font-family="Verdana" font-size="12.5" lengthAdjust="spacing" text-decoration="underline" textLength="133.5571" x="1009.8958" y="543.8944">From C++ Reference</text></a></g><!--class cpp20_coro_promise--><g id="elem_cpp20_coro_promise"><rect codeLine="39" fill="none" filter="url(#fs8rh83q5u8ze)" height="232.1126" id="cpp20_coro_promise" rx="4.1667" ry="4.1667" style="stroke:#2196F3;stroke-width:1.0416666666666667;" width="275.9501" x="943.2292" y="247.3958"/><rect fill="url(#gs8rh83q5u8ze0)" height="44.5882" rx="4.1667" ry="4.1667" style="stroke:url(#gs8rh83q5u8ze0);stroke-width:1.0416666666666667;" width="275.9501" x="943.2292" y="247.3958"/><rect fill="url(#gs8rh83q5u8ze0)" height="4.1667" style="stroke:url(#gs8rh83q5u8ze0);stroke-width:1.0416666666666667;" width="275.9501" x="943.2292" y="287.8174"/><rect codeLine="39" fill="none" height="232.1126" id="cpp20_coro_promise" rx="4.1667" ry="4.1667" style="stroke:#2196F3;stroke-width:1.0416666666666667;" width="275.9501" x="943.2292" y="247.3958"/><ellipse cx="989.2771" cy="269.6899" fill="none" rx="10.4167" ry="10.4167" style="stroke:#1A78C2;stroke-width:1.0416666666666667;"/><path d="M986.1684,266.8579 L986.1684,265.2629 L991.5883,265.2629 L991.5883,266.8579 L989.7817,266.8579 L989.7817,272.7824 L991.5883,272.7824 L991.5883,274.3774 L986.1684,274.3774 L986.1684,272.7824 L987.9751,272.7824 L987.9751,266.8579 L986.1684,266.8579 Z " fill="#2196F3"/><text fill="#222222" font-family="Verdana" font-size="11.4583" font-style="italic" lengthAdjust="spacing" textLength="154.6875" x="1019.4855" y="273.6567">C++ 20 Coroutine Promise</text><line style="stroke:#2196F3;stroke-width:1.0416666666666667;" x1="944.2708" x2="1218.1376" y1="291.984" y2="291.984"/><line style="stroke:#2196F3;stroke-width:1.0416666666666667;" x1="944.2708" x2="1218.1376" y1="300.3174" y2="300.3174"/><text fill="#222222" font-family="Verdana" font-size="11.4583" lengthAdjust="spacing" textLength="242.6168" x="959.8958" y="325.5366">get_return_object() : &#171;C++ 20 Task Type&#187;</text><text fill="#222222" font-family="Verdana" font-size="11.4583" lengthAdjust="spacing" textLength="220.517" x="959.8958" y="359.7082">initial_suspend() : &#171;Trivial Awaitables&#187;</text><text fill="#222222" font-family="Verdana" font-size="11.4583" lengthAdjust="spacing" textLength="213.6912" x="959.8958" y="393.8797">final_suspend() : &#171;Trivial Awaitables&#187;</text><text fill="#222222" font-family="Verdana" font-size="11.4583" lengthAdjust="spacing" textLength="109.7997" x="959.8958" y="428.0512">return_void() : void</text><text fill="#222222" font-family="Verdana" font-size="11.4583" lengthAdjust="spacing" textLength="167.3152" x="959.8958" y="462.2228">unhandled_exception() : void</text></g><g id="elem_GMN8"><path d="M1432.2917,330.2083 L1432.2917,359.375 L1219.4063,363.5417 L1432.2917,367.7083 L1432.2917,396.7773 A4.1667,4.1667 0 0 0 1436.4583,400.944 L1878.0233,400.944 A4.1667,4.1667 0 0 0 1882.1899,396.7773 L1882.1899,336.4583 L1871.7733,326.0417 L1436.4583,326.0417 A4.1667,4.1667 0 0 0 1432.2917,330.2083 " fill="none" filter="url(#fs8rh83q5u8ze)" style="stroke:#9C27B0;stroke-width:1.0416666666666667;"/><path d="M1871.7733,326.0417 L1871.7733,334.375 A2.0833,2.0833 0 0 0 1873.8566,336.4583 L1882.1899,336.4583 L1871.7733,326.0417 " fill="none" style="stroke:#9C27B0;stroke-width:1.0416666666666667;"/><text fill="#9C27B0" font-family="Verdana" font-size="12.5" lengthAdjust="spacing" textLength="372.9492" x="1448.9583" y="353.2694">The promise object, manipulated from inside the coroutine.</text><text fill="#9C27B0" font-family="Verdana" font-size="12.5" lengthAdjust="spacing" textLength="407.1899" x="1448.9583" y="367.8202">The coroutine submits its result or exception through this object.</text><text fill="#9C27B0" font-family="Verdana" font-size="12.5" lengthAdjust="spacing" textLength="339.0869" x="1448.9583" y="382.371">Promise objects are in no way related to std::promise.</text></g><!--class cpp20_coro_task--><g id="elem_cpp20_coro_task"><rect codeLine="54" fill="none" filter="url(#fs8rh83q5u8ze)" height="95.4264" id="cpp20_coro_task" rx="4.1667" ry="4.1667" style="stroke:#2196F3;stroke-width:1.0416666666666667;" width="359.9406" x="901.0417" y="79.1667"/><rect fill="url(#gs8rh83q5u8ze0)" height="44.5882" rx="4.1667" ry="4.1667" style="stroke:url(#gs8rh83q5u8ze0);stroke-width:1.0416666666666667;" width="359.9406" x="901.0417" y="79.1667"/><rect fill="url(#gs8rh83q5u8ze0)" height="4.1667" style="stroke:url(#gs8rh83q5u8ze0);stroke-width:1.0416666666666667;" width="359.9406" x="901.0417" y="119.5882"/><rect codeLine="54" fill="none" height="95.4264" id="cpp20_coro_task" rx="4.1667" ry="4.1667" style="stroke:#2196F3;stroke-width:1.0416666666666667;" width="359.9406" x="901.0417" y="79.1667"/><ellipse cx="1012.7093" cy="101.4608" fill="none" rx="10.4167" ry="10.4167" style="stroke:#1A78C2;stroke-width:1.0416666666666667;"/><path d="M1009.6006,98.6287 L1009.6006,97.0337 L1015.0205,97.0337 L1015.0205,98.6287 L1013.2139,98.6287 L1013.2139,104.5532 L1015.0205,104.5532 L1015.0205,106.1483 L1009.6006,106.1483 L1009.6006,104.5532 L1011.4072,104.5532 L1011.4072,98.6287 L1009.6006,98.6287 Z " fill="#2196F3"/><text fill="#222222" font-family="Verdana" font-size="11.4583" font-style="italic" lengthAdjust="spacing" textLength="107.4387" x="1042.9176" y="105.4276">C++ 20 Task Type</text><line style="stroke:#2196F3;stroke-width:1.0416666666666667;" x1="902.0833" x2="1259.9406" y1="123.7549" y2="123.7549"/><text fill="#222222" font-family="Verdana" font-size="11.4583" lengthAdjust="spacing" textLength="326.6073" x="917.7083" y="148.9741">&#171;datatype&#187; promise_type : &#171;C++ 20 Coroutine Promise&#187;</text><line style="stroke:#2196F3;stroke-width:1.0416666666666667;" x1="902.0833" x2="1259.9406" y1="166.2598" y2="166.2598"/></g><!--class cpp20_coro_suspend--><g id="elem_cpp20_coro_suspend"><rect codeLine="61" fill="none" filter="url(#fs8rh83q5u8ze)" height="61.2549" id="cpp20_coro_suspend" rx="4.1667" ry="4.1667" style="stroke:#2196F3;stroke-width:1.0416666666666667;" width="244.1111" x="959.375" y="695.3125"/><rect fill="url(#gs8rh83q5u8ze0)" height="44.5882" rx="4.1667" ry="4.1667" style="stroke:url(#gs8rh83q5u8ze0);stroke-width:1.0416666666666667;" width="244.1111" x="959.375" y="695.3125"/><rect fill="url(#gs8rh83q5u8ze0)" height="4.1667" style="stroke:url(#gs8rh83q5u8ze0);stroke-width:1.0416666666666667;" width="244.1111" x="959.375" y="735.734"/><rect codeLine="61" fill="none" height="61.2549" id="cpp20_coro_suspend" rx="4.1667" ry="4.1667" style="stroke:#2196F3;stroke-width:1.0416666666666667;" width="244.1111" x="959.375" y="695.3125"/><ellipse cx="973.9583" cy="717.6066" fill="none" rx="10.4167" ry="10.4167" style="stroke:#1A78C2;stroke-width:1.0416666666666667;"/><path d="M975.8626,722.0337 Q975.4395,722.2453 974.9674,722.3592 Q974.4954,722.4731 973.9909,722.4731 Q972.1354,722.4731 971.1589,721.2687 Q970.1986,720.048 970.1986,717.7531 Q970.1986,715.4419 971.1589,714.2375 Q972.1354,713.0168 973.9909,713.0168 Q974.4954,713.0168 974.9674,713.1307 Q975.4557,713.2284 975.8626,713.4562 L975.8626,715.4582 Q975.4069,715.035 974.9674,714.8397 Q974.528,714.6281 974.0723,714.6281 Q973.0794,714.6281 972.5749,715.4256 Q972.0703,716.2069 972.0703,717.7531 Q972.0703,719.283 972.5749,720.0643 Q973.0794,720.8455 974.0723,720.8455 Q974.528,720.8455 974.9674,720.6502 Q975.4069,720.4549 975.8626,720.0317 L975.8626,722.0337 Z " fill="#2196F3"/><text fill="#222222" font-family="Verdana" font-size="11.4583" lengthAdjust="spacing" textLength="192.0278" x="997.9167" y="721.5734">C++ 20 Coroutine Suspend State</text><line style="stroke:#2196F3;stroke-width:1.0416666666666667;" x1="960.4167" x2="1202.4445" y1="739.9007" y2="739.9007"/><line style="stroke:#2196F3;stroke-width:1.0416666666666667;" x1="960.4167" x2="1202.4445" y1="748.234" y2="748.234"/></g><!--class cpp20_coro_state--><g id="elem_cpp20_coro_state"><rect codeLine="64" fill="none" filter="url(#fs8rh83q5u8ze)" height="300.4557" id="cpp20_coro_state" rx="4.1667" ry="4.1667" style="stroke:#2196F3;stroke-width:1.0416666666666667;" width="332.0277" x="915.1042" y="793.75"/><rect fill="url(#gs8rh83q5u8ze0)" height="44.5882" rx="4.1667" ry="4.1667" style="stroke:url(#gs8rh83q5u8ze0);stroke-width:1.0416666666666667;" width="332.0277" x="915.1042" y="793.75"/><rect fill="url(#gs8rh83q5u8ze0)" height="4.1667" style="stroke:url(#gs8rh83q5u8ze0);stroke-width:1.0416666666666667;" width="332.0277" x="915.1042" y="834.1715"/><rect codeLine="64" fill="none" height="300.4557" id="cpp20_coro_state" rx="4.1667" ry="4.1667" style="stroke:#2196F3;stroke-width:1.0416666666666667;" width="332.0277" x="915.1042" y="793.75"/><ellipse cx="997.0238" cy="816.0441" fill="none" rx="10.4167" ry="10.4167" style="stroke:#1A78C2;stroke-width:1.0416666666666667;"/><path d="M998.9281,820.4712 Q998.5049,820.6828 998.0329,820.7967 Q997.5609,820.9106 997.0563,820.9106 Q995.2009,820.9106 994.2243,819.7062 Q993.264,818.4855 993.264,816.1906 Q993.264,813.8794 994.2243,812.675 Q995.2009,811.4543 997.0563,811.4543 Q997.5609,811.4543 998.0329,811.5682 Q998.5212,811.6659 998.9281,811.8937 L998.9281,813.8957 Q998.4723,813.4725 998.0329,813.2772 Q997.5934,813.0656 997.1377,813.0656 Q996.1449,813.0656 995.6403,813.8631 Q995.1358,814.6444 995.1358,816.1906 Q995.1358,817.7205 995.6403,818.5018 Q996.1449,819.283 997.1377,819.283 Q997.5934,819.283 998.0329,819.0877 Q998.4723,818.8924 998.9281,818.4692 L998.9281,820.4712 Z " fill="#2196F3"/><text fill="#222222" font-family="Verdana" font-size="11.4583" lengthAdjust="spacing" textLength="139.0218" x="1027.2321" y="820.0109">C++ 20 Coroutine State</text><line style="stroke:#2196F3;stroke-width:1.0416666666666667;" x1="916.1458" x2="1246.0902" y1="838.3382" y2="838.3382"/><text fill="#222222" font-family="Verdana" font-size="11.4583" lengthAdjust="spacing" textLength="227.7512" x="931.7708" y="863.5574">promise: &lt;C++ 20 Coroutine Promise&gt;</text><text fill="#222222" font-family="Verdana" font-size="11.4583" lengthAdjust="spacing" textLength="298.6944" x="931.7708" y="897.729">suspension_point: C++ 20 Coroutine Suspend State</text><text fill="#222222" font-family="Verdana" font-size="11.4583" lengthAdjust="spacing" textLength="127.9383" x="931.7708" y="931.9005">function_parameters[]</text><text fill="#222222" font-family="Verdana" font-size="11.4583" lengthAdjust="spacing" textLength="93.5633" x="931.7708" y="966.0721">local_variables[]</text><text fill="#222222" font-family="Verdana" font-size="11.4583" lengthAdjust="spacing" textLength="127.0767" x="931.7708" y="1000.2436">temporary_variables[]</text><line style="stroke:#2196F3;stroke-width:1.0416666666666667;" x1="916.1458" x2="1246.0902" y1="1017.5293" y2="1017.5293"/><text fill="#222222" font-family="Verdana" font-size="11.4583" lengthAdjust="spacing" text-decoration="underline" textLength="210.4238" x="931.7708" y="1042.7485">operator new(std::size_t size): void *</text><text fill="#222222" font-family="Verdana" font-size="11.4583" lengthAdjust="spacing" text-decoration="underline" textLength="222.8388" x="931.7708" y="1076.9201">operator delete(std::size_t size): void *</text></g><g id="elem_GMN18"><path d="M917.1875,1134.375 L917.1875,1200.944 A4.1667,4.1667 0 0 0 921.3542,1205.1107 L1240.9098,1205.1107 A4.1667,4.1667 0 0 0 1245.0765,1200.944 L1245.0765,1140.625 L1234.6598,1130.2083 L1085.4167,1130.2083 L1081.25,1094.0625 L1077.0833,1130.2083 L921.3542,1130.2083 A4.1667,4.1667 0 0 0 917.1875,1134.375 " fill="none" filter="url(#fs8rh83q5u8ze)" style="stroke:#9C27B0;stroke-width:1.0416666666666667;"/><path d="M1234.6598,1130.2083 L1234.6598,1138.5417 A2.0833,2.0833 0 0 0 1236.7432,1140.625 L1245.0765,1140.625 L1234.6598,1130.2083 " fill="none" style="stroke:#9C27B0;stroke-width:1.0416666666666667;"/><text fill="#9C27B0" font-family="Verdana" font-size="12.5" font-weight="bold" lengthAdjust="spacing" textLength="285.1807" x="933.8542" y="1157.4361">By default this is allocated on the HEAP.</text><text fill="#9C27B0" font-family="Verdana" font-size="12.5" lengthAdjust="spacing" textLength="251.9226" x="933.8542" y="1171.9869">The operator can be overridden to allow</text><text fill="#9C27B0" font-family="Verdana" font-size="12.5" lengthAdjust="spacing" textLength="139.8743" x="933.8542" y="1186.5377">for no heap operation.</text></g><!--class nop_task--><g id="elem_nop_task"><rect codeLine="87" fill="none" filter="url(#fs8rh83q5u8ze)" height="95.4264" id="nop_task" rx="4.1667" ry="4.1667" style="stroke:#2196F3;stroke-width:1.0416666666666667;" width="326.0412" x="1494.2708" y="850"/><rect fill="url(#gs8rh83q5u8ze0)" height="44.5882" rx="4.1667" ry="4.1667" style="stroke:url(#gs8rh83q5u8ze0);stroke-width:1.0416666666666667;" width="326.0412" x="1494.2708" y="850"/><rect fill="url(#gs8rh83q5u8ze0)" height="4.1667" style="stroke:url(#gs8rh83q5u8ze0);stroke-width:1.0416666666666667;" width="326.0412" x="1494.2708" y="890.4215"/><rect codeLine="87" fill="none" height="95.4264" id="nop_task" rx="4.1667" ry="4.1667" style="stroke:#2196F3;stroke-width:1.0416666666666667;" width="326.0412" x="1494.2708" y="850"/><ellipse cx="1617.0108" cy="872.2941" fill="none" rx="10.4167" ry="10.4167" style="stroke:#1A78C2;stroke-width:1.0416666666666667;"/><path d="M1618.915,876.7212 Q1618.4919,876.9328 1618.0199,877.0467 Q1617.5479,877.1606 1617.0433,877.1606 Q1615.1878,877.1606 1614.2113,875.9562 Q1613.251,874.7355 1613.251,872.4406 Q1613.251,870.1294 1614.2113,868.925 Q1615.1878,867.7043 1617.0433,867.7043 Q1617.5479,867.7043 1618.0199,867.8182 Q1618.5081,867.9159 1618.915,868.1437 L1618.915,870.1457 Q1618.4593,869.7225 1618.0199,869.5272 Q1617.5804,869.3156 1617.1247,869.3156 Q1616.1318,869.3156 1615.6273,870.1131 Q1615.1227,870.8944 1615.1227,872.4406 Q1615.1227,873.9705 1615.6273,874.7518 Q1616.1318,875.533 1617.1247,875.533 Q1617.5804,875.533 1618.0199,875.3377 Q1618.4593,875.1424 1618.915,874.7192 L1618.915,876.7212 Z " fill="#2196F3"/><text fill="#222222" font-family="Verdana" font-size="11.4583" lengthAdjust="spacing" textLength="51.3947" x="1647.2191" y="876.2609">nop_task</text><line style="stroke:#2196F3;stroke-width:1.0416666666666667;" x1="1495.3125" x2="1819.2703" y1="894.5882" y2="894.5882"/><text fill="#222222" font-family="Verdana" font-size="11.4583" lengthAdjust="spacing" textLength="292.7078" x="1510.9375" y="919.8074">&#171;datatype&#187; promise_type : nop_task_promise_type</text><line style="stroke:#2196F3;stroke-width:1.0416666666666667;" x1="1495.3125" x2="1819.2703" y1="937.0931" y2="937.0931"/></g><!--class nop_task_promise_type--><g id="elem_nop_task_promise_type"><rect codeLine="92" fill="none" filter="url(#fs8rh83q5u8ze)" height="232.1126" id="nop_task_promise_type" rx="4.1667" ry="4.1667" style="stroke:#2196F3;stroke-width:1.0416666666666667;" width="250.8179" x="1531.7708" y="1018.2292"/><rect fill="url(#gs8rh83q5u8ze0)" height="44.5882" rx="4.1667" ry="4.1667" style="stroke:url(#gs8rh83q5u8ze0);stroke-width:1.0416666666666667;" width="250.8179" x="1531.7708" y="1018.2292"/><rect fill="url(#gs8rh83q5u8ze0)" height="4.1667" style="stroke:url(#gs8rh83q5u8ze0);stroke-width:1.0416666666666667;" width="250.8179" x="1531.7708" y="1058.6507"/><rect codeLine="92" fill="none" height="232.1126" id="nop_task_promise_type" rx="4.1667" ry="4.1667" style="stroke:#2196F3;stroke-width:1.0416666666666667;" width="250.8179" x="1531.7708" y="1018.2292"/><ellipse cx="1575.192" cy="1040.5233" fill="none" rx="10.4167" ry="10.4167" style="stroke:#1A78C2;stroke-width:1.0416666666666667;"/><path d="M1577.0963,1044.9504 Q1576.6731,1045.1619 1576.2011,1045.2759 Q1575.7291,1045.3898 1575.2246,1045.3898 Q1573.3691,1045.3898 1572.3925,1044.1854 Q1571.4322,1042.9647 1571.4322,1040.6698 Q1571.4322,1038.3586 1572.3925,1037.1541 Q1573.3691,1035.9334 1575.2246,1035.9334 Q1575.7291,1035.9334 1576.2011,1036.0474 Q1576.6894,1036.145 1577.0963,1036.3729 L1577.0963,1038.3748 Q1576.6406,1037.9517 1576.2011,1037.7563 Q1575.7617,1037.5448 1575.3059,1037.5448 Q1574.3131,1037.5448 1573.8085,1038.3423 Q1573.304,1039.1235 1573.304,1040.6698 Q1573.304,1042.1997 1573.8085,1042.981 Q1574.3131,1043.7622 1575.3059,1043.7622 Q1575.7617,1043.7622 1576.2011,1043.5669 Q1576.6406,1043.3716 1577.0963,1042.9484 L1577.0963,1044.9504 Z " fill="#2196F3"/><text fill="#222222" font-family="Verdana" font-size="11.4583" lengthAdjust="spacing" textLength="134.8089" x="1605.4003" y="1044.4901">nop_task_promise_type</text><line style="stroke:#2196F3;stroke-width:1.0416666666666667;" x1="1532.8125" x2="1781.547" y1="1062.8174" y2="1062.8174"/><line style="stroke:#2196F3;stroke-width:1.0416666666666667;" x1="1532.8125" x2="1781.547" y1="1071.1507" y2="1071.1507"/><text fill="#222222" font-family="Verdana" font-size="11.4583" lengthAdjust="spacing" textLength="172.552" x="1548.4375" y="1096.3699">get_return_object() : nop_task</text><text fill="#222222" font-family="Verdana" font-size="11.4583" lengthAdjust="spacing" textLength="217.4845" x="1548.4375" y="1130.5415">initial_suspend() : std::suspend_never</text><text fill="#222222" font-family="Verdana" font-size="11.4583" lengthAdjust="spacing" textLength="210.6588" x="1548.4375" y="1164.713">final_suspend() : std::suspend_never</text><text fill="#222222" font-family="Verdana" font-size="11.4583" lengthAdjust="spacing" textLength="109.7997" x="1548.4375" y="1198.8846">return_void() : void</text><text fill="#222222" font-family="Verdana" font-size="11.4583" lengthAdjust="spacing" textLength="167.3152" x="1548.4375" y="1233.0561">unhandled_exception() : void</text></g><g id="elem_GMN28"><path d="M1458.3333,698.9583 L1458.3333,809.1797 A4.1667,4.1667 0 0 0 1462.5,813.3464 L1653.125,813.3464 L1657.2917,849.9063 L1661.4583,813.3464 L1851.6724,813.3464 A4.1667,4.1667 0 0 0 1855.839,809.1797 L1855.839,705.2083 L1845.4224,694.7917 L1462.5,694.7917 A4.1667,4.1667 0 0 0 1458.3333,698.9583 " fill="none" filter="url(#fs8rh83q5u8ze)" style="stroke:#9C27B0;stroke-width:1.0416666666666667;"/><path d="M1845.4224,694.7917 L1845.4224,703.125 A2.0833,2.0833 0 0 0 1847.5057,705.2083 L1855.839,705.2083 L1845.4224,694.7917 " fill="none" style="stroke:#9C27B0;stroke-width:1.0416666666666667;"/><text fill="#9C27B0" font-family="Verdana" font-size="12.5" font-weight="bold" lengthAdjust="spacing" textLength="293.4082" x="1475" y="722.0194">By default this is allocated on the STACK.</text><text fill="#9C27B0" font-family="Verdana" font-size="12.5" lengthAdjust="spacing" textLength="305.3223" x="1475" y="736.5702">This is the return type of an initialized coroutine.</text><text fill="#9C27B0" font-family="Verdana" font-size="12.5" lengthAdjust="spacing" textLength="338.8062" x="1475" y="751.121">(That is, it is returned by at the first suspension of the</text><text fill="#9C27B0" font-family="Verdana" font-size="12.5" lengthAdjust="spacing" textLength="201.0376" x="1475" y="765.6718">coroutine, NOT the completion.)</text><text fill="#9C27B0" font-family="Verdana" font-size="12.5" lengthAdjust="spacing" textLength="354.7974" x="1475" y="780.2226">It is allocated together with the C++ 20 Coroutine state.</text><text fill="#9C27B0" font-family="Verdana" font-size="12.5" lengthAdjust="spacing" textLength="319.1284" x="1475" y="794.7734">However, this task object is allocated on the stack.</text></g><!--class cpp20_trivial_awaitable--><g id="elem_cpp20_trivial_awaitable"><rect codeLine="122" fill="none" filter="url(#fs8rh83q5u8ze)" height="61.2549" id="cpp20_trivial_awaitable" rx="4.1667" ry="4.1667" style="stroke:#2196F3;stroke-width:1.0416666666666667;" width="153.1942" x="44.7917" y="1156.7708"/><rect fill="url(#gs8rh83q5u8ze0)" height="44.5882" rx="4.1667" ry="4.1667" style="stroke:url(#gs8rh83q5u8ze0);stroke-width:1.0416666666666667;" width="153.1942" x="44.7917" y="1156.7708"/><rect fill="url(#gs8rh83q5u8ze0)" height="4.1667" style="stroke:url(#gs8rh83q5u8ze0);stroke-width:1.0416666666666667;" width="153.1942" x="44.7917" y="1197.1924"/><rect codeLine="122" fill="none" height="61.2549" id="cpp20_trivial_awaitable" rx="4.1667" ry="4.1667" style="stroke:#2196F3;stroke-width:1.0416666666666667;" width="153.1942" x="44.7917" y="1156.7708"/><ellipse cx="59.375" cy="1179.0649" fill="none" rx="10.4167" ry="10.4167" style="stroke:#1A78C2;stroke-width:1.0416666666666667;"/><path d="M56.2663,1176.2329 L56.2663,1174.6379 L61.6862,1174.6379 L61.6862,1176.2329 L59.8796,1176.2329 L59.8796,1182.1574 L61.6862,1182.1574 L61.6862,1183.7524 L56.2663,1183.7524 L56.2663,1182.1574 L58.0729,1182.1574 L58.0729,1176.2329 L56.2663,1176.2329 Z " fill="#2196F3"/><text fill="#222222" font-family="Verdana" font-size="11.4583" font-style="italic" lengthAdjust="spacing" textLength="101.1108" x="83.3333" y="1183.0317">Trivial Awaitables</text><line style="stroke:#2196F3;stroke-width:1.0416666666666667;" x1="45.8333" x2="196.9442" y1="1201.359" y2="1201.359"/><line style="stroke:#2196F3;stroke-width:1.0416666666666667;" x1="45.8333" x2="196.9442" y1="1209.6924" y2="1209.6924"/></g><g id="elem_include_link"><path d="M404.6875,1357.2917 L404.6875,1394.7591 A4.1667,4.1667 0 0 0 408.8542,1398.9258 L583.1278,1398.9258 A4.1667,4.1667 0 0 0 587.2945,1394.7591 L587.2945,1363.5417 L576.8778,1353.125 L408.8542,1353.125 A4.1667,4.1667 0 0 0 404.6875,1357.2917 " fill="none" filter="url(#fs8rh83q5u8ze)" style="stroke:#9C27B0;stroke-width:1.0416666666666667;"/><path d="M576.8778,1353.125 L576.8778,1361.4583 A2.0833,2.0833 0 0 0 578.9612,1363.5417 L587.2945,1363.5417 L576.8778,1353.125 " fill="none" style="stroke:#9C27B0;stroke-width:1.0416666666666667;"/><a href="https://en.cppreference.com/w/cpp/header/coroutine" target="_top" title="https://en.cppreference.com/w/cpp/header/coroutine" xlink:actuate="onRequest" xlink:href="https://en.cppreference.com/w/cpp/header/coroutine" xlink:show="new" xlink:title="https://en.cppreference.com/w/cpp/header/coroutine" xlink:type="simple"><text fill="#FD7E14" font-family="Verdana" font-size="12.5" lengthAdjust="spacing" text-decoration="underline" textLength="139.8987" x="421.3542" y="1380.3528">#include &lt;coroutine&gt;</text></a></g><!--class coro_handle--><g id="elem_coro_handle"><rect codeLine="133" fill="none" filter="url(#fs8rh83q5u8ze)" height="129.598" id="coro_handle" rx="4.1667" ry="4.1667" style="stroke:#2196F3;stroke-width:1.0416666666666667;" width="176.6032" x="407.2917" y="879.1667"/><rect fill="url(#gs8rh83q5u8ze0)" height="44.5882" rx="4.1667" ry="4.1667" style="stroke:url(#gs8rh83q5u8ze0);stroke-width:1.0416666666666667;" width="176.6032" x="407.2917" y="879.1667"/><rect fill="url(#gs8rh83q5u8ze0)" height="4.1667" style="stroke:url(#gs8rh83q5u8ze0);stroke-width:1.0416666666666667;" width="176.6032" x="407.2917" y="919.5882"/><rect codeLine="133" fill="none" height="129.598" id="coro_handle" rx="4.1667" ry="4.1667" style="stroke:#2196F3;stroke-width:1.0416666666666667;" width="176.6032" x="407.2917" y="879.1667"/><ellipse cx="421.875" cy="901.4608" fill="none" rx="10.4167" ry="10.4167" style="stroke:#1A78C2;stroke-width:1.0416666666666667;"/><path d="M423.7793,905.8879 Q423.3561,906.0994 422.8841,906.2134 Q422.4121,906.3273 421.9076,906.3273 Q420.0521,906.3273 419.0755,905.1229 Q418.1152,903.9022 418.1152,901.6073 Q418.1152,899.2961 419.0755,898.0916 Q420.0521,896.8709 421.9076,896.8709 Q422.4121,896.8709 422.8841,896.9849 Q423.3724,897.0825 423.7793,897.3104 L423.7793,899.3123 Q423.3236,898.8892 422.8841,898.6938 Q422.4447,898.4823 421.9889,898.4823 Q420.9961,898.4823 420.4915,899.2798 Q419.987,900.061 419.987,901.6073 Q419.987,903.1372 420.4915,903.9185 Q420.9961,904.6997 421.9889,904.6997 Q422.4447,904.6997 422.8841,904.5044 Q423.3236,904.3091 423.7793,903.8859 L423.7793,905.8879 Z " fill="#2196F3"/><text fill="#222222" font-family="Verdana" font-size="11.4583" lengthAdjust="spacing" textLength="124.5199" x="445.8333" y="905.4276">std::coroutine_handle</text><line style="stroke:#2196F3;stroke-width:1.0416666666666667;" x1="408.3333" x2="582.8532" y1="923.7549" y2="923.7549"/><line style="stroke:#2196F3;stroke-width:1.0416666666666667;" x1="408.3333" x2="582.8532" y1="932.0882" y2="932.0882"/><ellipse cx="418.75" cy="954.9032" fill="none" rx="3.125" ry="3.125" style="stroke:#1A78C2;stroke-width:1.0416666666666667;"/><text fill="#222222" font-family="Verdana" font-size="11.4583" lengthAdjust="spacing" textLength="52.1444" x="437.5" y="957.3074">resume()</text><ellipse cx="418.75" cy="989.0747" fill="none" rx="3.125" ry="3.125" style="stroke:#1A78C2;stroke-width:1.0416666666666667;"/><text fill="#222222" font-family="Verdana" font-size="11.4583" lengthAdjust="spacing" textLength="52.2283" x="437.5" y="991.479">destroy()</text></g><g id="elem_GMN36"><path d="M277.0833,1048.9583 L277.0833,1115.5273 A4.1667,4.1667 0 0 0 281.25,1119.694 L710.376,1119.694 A4.1667,4.1667 0 0 0 714.5426,1115.5273 L714.5426,1055.2083 L704.126,1044.7917 L500,1044.7917 L495.8333,1008.4063 L491.6667,1044.7917 L281.25,1044.7917 A4.1667,4.1667 0 0 0 277.0833,1048.9583 " fill="none" filter="url(#fs8rh83q5u8ze)" style="stroke:#9C27B0;stroke-width:1.0416666666666667;"/><path d="M704.126,1044.7917 L704.126,1053.125 A2.0833,2.0833 0 0 0 706.2093,1055.2083 L714.5426,1055.2083 L704.126,1044.7917 " fill="none" style="stroke:#9C27B0;stroke-width:1.0416666666666667;"/><text fill="#9C27B0" font-family="Verdana" font-size="12.5" lengthAdjust="spacing" textLength="394.751" x="293.75" y="1072.0194">The coroutine handle, manipulated from outside the coroutine.</text><text fill="#9C27B0" font-family="Verdana" font-size="12.5" lengthAdjust="spacing" textLength="357.9834" x="293.75" y="1086.5702">This is a non-owning handle used to resume execution of</text><text fill="#9C27B0" font-family="Verdana" font-size="12.5" lengthAdjust="spacing" textLength="300.8728" x="293.75" y="1101.121">the coroutine or to destroy the coroutine frame.</text></g><!--class std::suspend_never--><g id="elem_std::suspend_never"><rect codeLine="145" fill="none" filter="url(#fs8rh83q5u8ze)" height="61.2549" id="std::suspend_never" rx="4.1667" ry="4.1667" style="stroke:#2196F3;stroke-width:1.0416666666666667;" width="164.1825" x="413.5417" y="1156.7708"/><rect fill="url(#gs8rh83q5u8ze0)" height="44.5882" rx="4.1667" ry="4.1667" style="stroke:url(#gs8rh83q5u8ze0);stroke-width:1.0416666666666667;" width="164.1825" x="413.5417" y="1156.7708"/><rect fill="url(#gs8rh83q5u8ze0)" height="4.1667" style="stroke:url(#gs8rh83q5u8ze0);stroke-width:1.0416666666666667;" width="164.1825" x="413.5417" y="1197.1924"/><rect codeLine="145" fill="none" height="61.2549" id="std::suspend_never" rx="4.1667" ry="4.1667" style="stroke:#2196F3;stroke-width:1.0416666666666667;" width="164.1825" x="413.5417" y="1156.7708"/><ellipse cx="428.125" cy="1179.0649" fill="none" rx="10.4167" ry="10.4167" style="stroke:#1A78C2;stroke-width:1.0416666666666667;"/><path d="M430.0293,1183.492 Q429.6061,1183.7036 429.1341,1183.8175 Q428.6621,1183.9315 428.1576,1183.9315 Q426.3021,1183.9315 425.3255,1182.7271 Q424.3652,1181.5063 424.3652,1179.2114 Q424.3652,1176.9002 425.3255,1175.6958 Q426.3021,1174.4751 428.1576,1174.4751 Q428.6621,1174.4751 429.1341,1174.589 Q429.6224,1174.6867 430.0293,1174.9146 L430.0293,1176.9165 Q429.5736,1176.4933 429.1341,1176.298 Q428.6947,1176.0864 428.2389,1176.0864 Q427.2461,1176.0864 426.7415,1176.884 Q426.237,1177.6652 426.237,1179.2114 Q426.237,1180.7414 426.7415,1181.5226 Q427.2461,1182.3039 428.2389,1182.3039 Q428.6947,1182.3039 429.1341,1182.1086 Q429.5736,1181.9132 430.0293,1181.4901 L430.0293,1183.492 Z " fill="#2196F3"/><text fill="#222222" font-family="Verdana" font-size="11.4583" lengthAdjust="spacing" textLength="112.0992" x="452.0833" y="1183.0317">std::suspend_never</text><line style="stroke:#2196F3;stroke-width:1.0416666666666667;" x1="414.5833" x2="576.6825" y1="1201.359" y2="1201.359"/><line style="stroke:#2196F3;stroke-width:1.0416666666666667;" x1="414.5833" x2="576.6825" y1="1209.6924" y2="1209.6924"/></g><!--class std::suspend_always--><g id="elem_std::suspend_always"><rect codeLine="146" fill="none" filter="url(#fs8rh83q5u8ze)" height="61.2549" id="std::suspend_always" rx="4.1667" ry="4.1667" style="stroke:#2196F3;stroke-width:1.0416666666666667;" width="170.6782" x="410.4167" y="1254.6875"/><rect fill="url(#gs8rh83q5u8ze0)" height="44.5882" rx="4.1667" ry="4.1667" style="stroke:url(#gs8rh83q5u8ze0);stroke-width:1.0416666666666667;" width="170.6782" x="410.4167" y="1254.6875"/><rect fill="url(#gs8rh83q5u8ze0)" height="4.1667" style="stroke:url(#gs8rh83q5u8ze0);stroke-width:1.0416666666666667;" width="170.6782" x="410.4167" y="1295.109"/><rect codeLine="146" fill="none" height="61.2549" id="std::suspend_always" rx="4.1667" ry="4.1667" style="stroke:#2196F3;stroke-width:1.0416666666666667;" width="170.6782" x="410.4167" y="1254.6875"/><ellipse cx="425" cy="1276.9816" fill="none" rx="10.4167" ry="10.4167" style="stroke:#1A78C2;stroke-width:1.0416666666666667;"/><path d="M426.9043,1281.4087 Q426.4811,1281.6203 426.0091,1281.7342 Q425.5371,1281.8481 425.0326,1281.8481 Q423.1771,1281.8481 422.2005,1280.6437 Q421.2402,1279.423 421.2402,1277.1281 Q421.2402,1274.8169 422.2005,1273.6125 Q423.1771,1272.3918 425.0326,1272.3918 Q425.5371,1272.3918 426.0091,1272.5057 Q426.4974,1272.6034 426.9043,1272.8312 L426.9043,1274.8332 Q426.4486,1274.41 426.0091,1274.2147 Q425.5697,1274.0031 425.1139,1274.0031 Q424.1211,1274.0031 423.6165,1274.8006 Q423.112,1275.5819 423.112,1277.1281 Q423.112,1278.658 423.6165,1279.4393 Q424.1211,1280.2205 425.1139,1280.2205 Q425.5697,1280.2205 426.0091,1280.0252 Q426.4486,1279.8299 426.9043,1279.4067 L426.9043,1281.4087 Z " fill="#2196F3"/><text fill="#222222" font-family="Verdana" font-size="11.4583" lengthAdjust="spacing" textLength="118.5949" x="448.9583" y="1280.9484">std::suspend_always</text><line style="stroke:#2196F3;stroke-width:1.0416666666666667;" x1="411.4583" x2="580.0532" y1="1299.2757" y2="1299.2757"/><line style="stroke:#2196F3;stroke-width:1.0416666666666667;" x1="411.4583" x2="580.0532" y1="1307.609" y2="1307.609"/></g><g id="elem_GMN3"><path d="M311.9792,449.4792 L311.9792,748.8607 A4.1667,4.1667 0 0 0 316.1458,753.0273 L675.9115,753.0273 A4.1667,4.1667 0 0 0 680.0781,748.8607 L680.0781,455.7292 L669.6615,445.3125 L316.1458,445.3125 A4.1667,4.1667 0 0 0 311.9792,449.4792 " fill="none" filter="url(#fs8rh83q5u8ze)" style="stroke:#9C27B0;stroke-width:1.0416666666666667;"/><path d="M669.6615,445.3125 L669.6615,453.6458 A2.0833,2.0833 0 0 0 671.7448,455.7292 L680.0781,455.7292 L669.6615,445.3125 " fill="none" style="stroke:#9C27B0;stroke-width:1.0416666666666667;"/><text fill="#9C27B0" font-family="Verdana" font-size="12.5" lengthAdjust="spacing" textLength="23.2483" x="328.6458" y="472.5403">The</text><text fill="#9C27B0" font-family="Verdana" font-size="12.5" font-style="italic" lengthAdjust="spacing" textLength="56.0669" x="355.8675" y="472.5403">nop_task</text><text fill="#9C27B0" font-family="Verdana" font-size="12.5" lengthAdjust="spacing" textLength="238.1287" x="415.9078" y="472.5403">class is returned by functions that will</text><text fill="#9C27B0" font-family="Verdana" font-size="12.5" lengthAdjust="spacing" textLength="220.1599" x="328.6458" y="487.0911">implement tasks using co-routines.</text><text fill="#9C27B0" font-family="Verdana" font-size="12.5" lengthAdjust="spacing" textLength="3.9734" x="328.6458" y="501.6418">&#160;</text><text fill="#9C27B0" font-family="Verdana" font-size="12.5" lengthAdjust="spacing" textLength="23.5718" x="328.6458" y="516.1926">e.g.</text><text fill="#9C27B0" font-family="Verdana" font-size="12.5" lengthAdjust="spacing" textLength="3.9734" x="328.6458" y="530.7434">&#160;</text><text fill="#9C27B0" font-family="Verdana" font-size="12.5" lengthAdjust="spacing" textLength="145.7764" x="328.6458" y="545.2942">nop_task my_task(...) {</text><text fill="#9C27B0" font-family="Verdana" font-size="12.5" lengthAdjust="spacing" textLength="11.9202" x="344.5394" y="559.845">...</text><text fill="#9C27B0" font-family="Verdana" font-size="12.5" lengthAdjust="spacing" textLength="74.7925" x="340.566" y="574.3958">co_await ...;</text><text fill="#9C27B0" font-family="Verdana" font-size="12.5" lengthAdjust="spacing" textLength="11.9202" x="344.5394" y="588.9465">...</text><text fill="#9C27B0" font-family="Verdana" font-size="12.5" lengthAdjust="spacing" textLength="63.6963" x="340.566" y="603.4973">co_return;</text><text fill="#9C27B0" font-family="Verdana" font-size="12.5" lengthAdjust="spacing" textLength="7.9529" x="328.6458" y="618.0481">}</text><text fill="#9C27B0" font-family="Verdana" font-size="12.5" lengthAdjust="spacing" textLength="3.9734" x="328.6458" y="632.5989">&#160;</text><text fill="#9C27B0" font-family="Verdana" font-size="12.5" lengthAdjust="spacing" textLength="73.1812" x="328.6458" y="647.1497">int main() {</text><text fill="#9C27B0" font-family="Verdana" font-size="12.5" lengthAdjust="spacing" textLength="11.9202" x="344.5394" y="661.7004">...</text><text fill="#9C27B0" font-family="Verdana" font-size="12.5" lengthAdjust="spacing" textLength="259.8267" x="344.5394" y="676.2512">// Create a task t that runs asyncronously</text><text fill="#9C27B0" font-family="Verdana" font-size="12.5" lengthAdjust="spacing" textLength="69.9036" x="344.5394" y="690.802">// to main()</text><text fill="#9C27B0" font-family="Verdana" font-size="12.5" lengthAdjust="spacing" textLength="133.4473" x="344.5394" y="705.3528">auto t = my_task(...);</text><text fill="#9C27B0" font-family="Verdana" font-size="12.5" lengthAdjust="spacing" textLength="11.9202" x="344.5394" y="719.9036">...</text><text fill="#9C27B0" font-family="Verdana" font-size="12.5" lengthAdjust="spacing" textLength="7.9529" x="328.6458" y="734.4543">}</text></g><!--link GMN3 to lang_concepts--><g id="link_GMN3_lang_concepts"><path d="M679.8438,598.9583 C721.9427,598.9583 767.5677,598.9583 812.4338,598.9583 C823.6503,598.9583 834.8193,598.9583 845.874,598.9583 C851.4014,598.9583 856.9001,598.9583 862.3619,598.9583 C865.0928,598.9583 867.8145,598.9583 870.5258,598.9583 C871.8815,598.9583 873.2346,598.9583 874.585,598.9583 " fill="none" id="GMN3-lang_concepts" style="stroke:#2196F3;stroke-width:3.125;stroke-dasharray:7.0,7.0;"/></g><!--reverse link cpp20_coro_task to cpp20_coro_promise--><g id="link_cpp20_coro_task_cpp20_coro_promise"><path codeLine="52" d="M1081.25,191.7292 C1081.25,212.7708 1081.25,221.8125 1081.25,247.3958 " fill="none" id="cpp20_coro_task-backto-cpp20_coro_promise" style="stroke:#2196F3;stroke-width:3.125;"/><ellipse cx="1081.25" cy="183.3958" fill="none" rx="8.3333" ry="8.3333" style="stroke:#2196F3;stroke-width:3.125;"/><line style="stroke:#2196F3;stroke-width:3.125;" x1="1081.25" x2="1081.25" y1="191.7292" y2="175.0625"/><line style="stroke:#2196F3;stroke-width:3.125;" x1="1072.9167" x2="1089.5833" y1="183.3958" y2="183.3958"/><text fill="#222222" font-family="Verdana" font-size="12.5" lengthAdjust="spacing" textLength="107.8369" x="1006.25" y="216.0299">imports datatype</text></g><!--reverse link cpp20_coro_state to cpp20_coro_promise--><g id="link_cpp20_coro_state_cpp20_coro_promise"><path codeLine="74" d="M904.4478,864.5215 C858.7082,835.8757 825.2292,804.75 799.4792,756.7708 C748.9167,662.5313 744.75,608.0208 799.4792,516.1458 C831.0833,463.0938 888.25,427.3542 942.875,403.8958 " fill="none" id="cpp20_coro_state-backto-cpp20_coro_promise" style="stroke:#2196F3;stroke-width:3.125;"/><polygon fill="none" points="915.0417,871.1563,911.9563,864.3076,904.4478,864.5215,907.5331,871.3702,915.0417,871.1563" style="stroke:#2196F3;stroke-width:3.125;"/></g><!--reverse link cpp20_coro_state to cpp20_coro_suspend--><g id="link_cpp20_coro_state_cpp20_coro_suspend"><path codeLine="75" d="M1081.25,781.1458 C1081.25,768.9167 1081.25,769.1771 1081.25,756.9375 " fill="none" id="cpp20_coro_state-backto-cpp20_coro_suspend" style="stroke:#2196F3;stroke-width:3.125;"/><polygon fill="none" points="1081.25,793.6458,1085.4167,787.3958,1081.25,781.1458,1077.0833,787.3958,1081.25,793.6458" style="stroke:#2196F3;stroke-width:3.125;"/></g><!--reverse link cpp20_coro_promise to nop_task_promise_type--><g id="link_cpp20_coro_promise_nop_task_promise_type"><path codeLine="101" d="M1234.0427,449.7739 C1254.8344,466.8468 1259.2292,474.9583 1272.3958,497.9167 C1298.5208,543.4688 1276.4167,683.4167 1292.7083,733.3333 C1329.8438,847.0833 1352.3125,874.5521 1432.2917,963.5417 C1461.3021,995.8229 1497.1146,1026.25 1531.5313,1052.2396 " fill="none" id="cpp20_coro_promise-backto-nop_task_promise_type" style="stroke:#2196F3;stroke-width:3.125;"/><polygon fill="none" points="1219.5521,437.875,1230.0764,454.6041,1238.009,444.9437,1219.5521,437.875" style="stroke:#2196F3;stroke-width:3.125;"/><polygon fill="#222222" points="1295.0302,711.8727,1296.1715,719.7156,1300.5634,717.5469,1295.0302,711.8727" style="stroke:#222222;stroke-width:1.0416666666666667;"/><text fill="#222222" font-family="Verdana" font-size="12.5" lengthAdjust="spacing" textLength="73.9502" x="1316.6667" y="719.9361">implements</text></g><!--reverse link cpp20_coro_task to nop_task--><g id="link_cpp20_coro_task_nop_task"><path codeLine="102" d="M1222.9119,184.5205 C1247.4849,198.7914 1254.8542,207.2188 1272.3958,229.1667 C1405.8958,396.1667 1348.9167,485.3542 1401.0417,692.7083 C1416.4271,753.9271 1389.1875,785.1354 1432.2917,831.25 C1449.2604,849.4063 1470.9271,862.6875 1494.0729,872.3854 " fill="none" id="cpp20_coro_task-backto-nop_task" style="stroke:#2196F3;stroke-width:3.125;"/><polygon fill="none" points="1206.6979,175.1042,1219.7731,189.9252,1226.0507,179.1159,1206.6979,175.1042" style="stroke:#2196F3;stroke-width:3.125;"/><polygon fill="#222222" points="1295.3469,237.774,1295.8328,245.6846,1300.3897,243.8882,1295.3469,237.774" style="stroke:#222222;stroke-width:1.0416666666666667;"/><text fill="#222222" font-family="Verdana" font-size="12.5" lengthAdjust="spacing" textLength="73.9502" x="1316.6667" y="245.9778">implements</text></g><!--reverse link nop_task to nop_task_promise_type--><g id="link_nop_task_nop_task_promise_type"><path codeLine="104" d="M1657.2917,962.5625 C1657.2917,983.6042 1657.2917,992.6458 1657.2917,1018.2292 " fill="none" id="nop_task-backto-nop_task_promise_type" style="stroke:#2196F3;stroke-width:3.125;"/><ellipse cx="1657.2917" cy="954.2292" fill="none" rx="8.3333" ry="8.3333" style="stroke:#2196F3;stroke-width:3.125;"/><line style="stroke:#2196F3;stroke-width:3.125;" x1="1657.2917" x2="1657.2917" y1="962.5625" y2="945.8958"/><line style="stroke:#2196F3;stroke-width:3.125;" x1="1648.9583" x2="1665.625" y1="954.2292" y2="954.2292"/><text fill="#222222" font-family="Verdana" font-size="12.5" lengthAdjust="spacing" textLength="107.8369" x="1582.2917" y="986.8632">imports datatype</text></g><!--reverse link cpp20_coro_state to nop_task_promise_type--><g id="link_cpp20_coro_state_nop_task_promise_type"><path codeLine="105" d="M1259.3944,1002.5743 C1349.8111,1032.5952 1448.1354,1065.2604 1531.3229,1092.8854 " fill="none" id="cpp20_coro_state-backto-nop_task_promise_type" style="stroke:#2196F3;stroke-width:3.125;"/><polygon fill="none" points="1247.5313,998.6354,1252.1499,1004.5593,1259.3944,1002.5743,1254.7758,996.6505,1247.5313,998.6354" style="stroke:#2196F3;stroke-width:3.125;"/></g><!--link std::suspend_never to nop_task_promise_type--><g id="link_std::suspend_never_nop_task_promise_type"><path codeLine="148" d="M578.3854,1199.4479 C719.9896,1218.3438 1020.4479,1250.2292 1272.3958,1221.875 C1360.1875,1212 1457.1771,1189.7917 1531.6979,1170.2188 " fill="none" id="std::suspend_never-nop_task_promise_type" style="stroke:#2196F3;stroke-width:3.125;"/></g><!--reverse link cpp20_trivial_awaitable to std::suspend_never--><g id="link_cpp20_trivial_awaitable_std::suspend_never"><path codeLine="150" d="M216.9583,1187.5 C279.4792,1187.5 349.2396,1187.5 413.2813,1187.5 " fill="none" id="cpp20_trivial_awaitable-backto-std::suspend_never" style="stroke:#2196F3;stroke-width:3.125;"/><polygon fill="none" points="198.2083,1187.5,216.9583,1193.75,216.9583,1181.25,198.2083,1187.5" style="stroke:#2196F3;stroke-width:3.125;"/></g><!--reverse link cpp20_trivial_awaitable to std::suspend_always--><g id="link_cpp20_trivial_awaitable_std::suspend_always"><path codeLine="151" d="M215.4012,1224.8472 C233.0262,1231.3889 234.2708,1231.3333 252.0833,1236.4583 C303.9271,1251.3646 363.2708,1263.4271 410.3021,1271.8438 " fill="none" id="cpp20_trivial_awaitable-backto-std::suspend_always" style="stroke:#2196F3;stroke-width:3.125;"/><polygon fill="none" points="197.8229,1218.3229,213.2264,1230.7067,217.576,1218.9878,197.8229,1218.3229" style="stroke:#2196F3;stroke-width:3.125;"/></g><!--reverse link coro_handle to cpp20_coro_state--><g id="link_coro_handle_cpp20_coro_state"><path codeLine="153" d="M603.2708,943.75 C690.4167,943.75 807.5,943.75 914.9583,943.75 " fill="none" id="coro_handle-backto-cpp20_coro_state" style="stroke:#2196F3;stroke-width:3.125;"/><polygon fill="none" points="584.5208,943.75,603.2708,950,603.2708,937.5,584.5208,943.75" style="stroke:#2196F3;stroke-width:3.125;"/><polygon fill="#222222" points="747.9167,926.0254,755.4542,928.4745,755.4542,923.5763,747.9167,926.0254" style="stroke:#222222;stroke-width:1.0416666666666667;"/><text fill="#222222" font-family="Verdana" font-size="12.5" lengthAdjust="spacing" textLength="68.5852" x="771.875" y="930.3528">resolves to</text></g><!--link cpp20_trivial_awaitable to cpp20_coro_promise--><g id="link_cpp20_trivial_awaitable_cpp20_coro_promise"><path codeLine="155" d="M122.8333,1156.5625 C125.3438,1026.6563 142.1042,527.3438 252.0833,427.0833 C439.625,256.1042 760.7188,290.1875 943.0833,328.1875 " fill="none" id="cpp20_trivial_awaitable-cpp20_coro_promise" style="stroke:#2196F3;stroke-width:3.125;"/></g><!--SRC=[fLVVR-9647xtNp5DNv8cmEaUEOgKI-zqLQisQdYBJjPY3x2DsRLsrr2QyhztPdTjZ0rSgg8WuztvjJFVDplvpgrmZR0M3eqK0rsvGYfCaW8N3fm68vSh1xaqc3cfLPAK8diHIuH2g6MQQPLXwIoyxfD4QKVBhASNnzl9R8KmaLEbozG9-p8PoIbaXR0Mf0M3hZ8ASvZlO54fxyU2Mma7MraKYLoN1SMeA1xIjL1PgPQGwO6XQ2bOEqmI72w7746m3-kTVruFXyCRU4s0FlIJdvbEnLP8n-yVEXiXa0y9dKMIjxMGwhgZ3gCHF1YaR87muO0BaPgAOXPsfpAZbQviiQl5AOdHabyH5Iqu-F4enaCa-mHL3fpAv93hguVRM_YLCbhnsqFCwXNvwvQ1bCWGVtqrM42g5tv_VbuvLzhnQ8Hgc9MbmGKQ9BrXfjUZxOYMHaLqCSfqdLluRFGQsFyVjSBNhsol5IQzKRxGB4GMOtt_ZgAC9k2HB4YBFbpoylvTokRJCYp7_D9dYIwM8DNpFmblbB8nJ2RHu8opFTkLE9tM6b999qMHsigM54-KdncveLMuvpgBUO7seB6GwZ_9ntWsMWPf_b7lLMebL5vWdk9Vd7w2xP7ClYb3816nedzybc5srDa89xyZo2XPLWK1BOS5bq0gAtCai24qrHdMsiqAs6g-beG4_XgqLK5-3JG1aZv9BbVq9EO5PzxAuv5_Wh91SadXmrRio5A8XA1hNJuUnsY7nq1W5XqEwDbnE_1d7vmg_1Y8sTgGirmuuQYoPw3KLBuB8U-YmSzaKjkPJkjyflpQHb4Fbg7MUoPzYszwNSe23Vo4X1WwE7iFXClYbhTiW_VGolh8VmeuWoSAgnTy166mi4yksZcfpuj1EnwMZddsb2mMF5g2GLfgIlCOBaVCEdL3JajXn1gfDFRPyx_G6J5f8-ZMOCg4HOTSKM5stOrNZbPcUz0b6k48aWgtrnvBLlvDPG9-t0Jom0-dLN8iA83BMlik34EQzE0CzxuX6OkKD5HskkmGsTQfciod7tSKv48mwpp1w4yKd2acZsSVmfTFzu_3oMW-hSdRd2yJ2kRqla5ZP9wZOhwn_jPNWfEcOOMYZ2fKbcC67c7uizmWV5hFaInju2CHcif7RQufTi0ptwvyRpJmQoxHXbWNcLMBf-trM8c-qIEfRxN-MkbIkmzW20kfGahT-LP_NlR_jVakvEe6D_bdaEkj6fmvlUz_ORAnC3dLFNi6eAiKS5dMpVQIf-DEUnhwPmma1_pFjNDq6n45sjLv8_IVPlSFlxIm7yHu9nG0VBHacuWGYqtypZiNtlMC1ovfx-YIwywFmdbp2sciQ_KxjadhOSwBjkxWjzzdyJxbb7ewtR38p-uuUgS9dokw3RRIhRn6hs_w1FhelkWj8-ikPC7N9K3wP4P8BtlfNAFxjqr-zT3tFhAtTM_s9vhMvU72PXY3UVE4noUN5t8EaoPPqojW2pQiloRj2LEghAXoJEj9yut39ZMo7CrXr8Jlew6ss-wiURWaFPaRmJHmD2Q641tU3ntcbeUXDLxVD0ivMcVqBgpi-nt-OAK_PONr4rCQxPyTqo8fo8iQ4AlvdvWOPMN3R1LYf6aDiye5sFfRzSWtNGCa6gFlx2tuZXxsn_EGizFzxyIUA6ZeirwphmE3yssYwIeza74lEnV0MpLQORLhJ7A3VZEZOOZpgOiDJMbENunjC3Wv7Z0l_WK0]--></g></svg>
