<svg xmlns="http://www.w3.org/2000/svg" xmlns:xlink="http://www.w3.org/1999/xlink" contentStyleType="text/css" height="1294.7917px" preserveAspectRatio="none" style="width:2531px;height:1294px;" version="1.1" viewBox="0 0 2531 1294" width="2531.25px" zoomAndPan="magnify"><defs><linearGradient id="gc106xs8edxyo0" x1="50%" x2="50%" y1="0%" y2="100%"><stop offset="0%" stop-color="#59B6EC"/><stop offset="100%" stop-color="#2FA4E7"/></linearGradient><linearGradient id="gc106xs8edxyo1" x1="50%" x2="50%" y1="0%" y2="100%"><stop offset="0%" stop-color="#35638F"/><stop offset="100%" stop-color="#033C73"/></linearGradient></defs><g><rect fill="#F8F9FA" height="1272.7865" rx="4.1667" ry="4.1667" style="stroke:#868E96;stroke-width:1.0416666666666667;" width="176.5727" x="53.125" y="11.4583"/><text fill="#343A40" font-family="Verdana" font-size="12.5" font-weight="bold" lengthAdjust="spacing" textLength="28.4851" x="127.1688" y="28.2694">CPU</text><rect fill="#F8F9FA" height="1272.7865" rx="4.1667" ry="4.1667" style="stroke:#868E96;stroke-width:1.0416666666666667;" width="965.5853" x="335.6893" y="11.4583"/><text fill="#343A40" font-family="Verdana" font-size="12.5" font-weight="bold" lengthAdjust="spacing" textLength="117.2546" x="759.8546" y="28.2694">Active Functions</text><rect fill="#F8F9FA" height="1272.7865" rx="4.1667" ry="4.1667" style="stroke:#868E96;stroke-width:1.0416666666666667;" width="940.7756" x="1386.6913" y="11.4583"/><text fill="#343A40" font-family="Verdana" font-size="12.5" font-weight="bold" lengthAdjust="spacing" textLength="92.3462" x="1810.906" y="28.2694">Object Space</text><rect fill="#EDF0F2" height="1023.1445" style="stroke:#BABDBF;stroke-width:1.0416666666666667;" width="10.4167" x="136.203" y="149.8047"/><rect fill="#EDF0F2" height="280.9896" style="stroke:#BABDBF;stroke-width:1.0416666666666667;" width="10.4167" x="409.3068" y="149.8047"/><rect fill="#EDF0F2" height="210.2539" style="stroke:#BABDBF;stroke-width:1.0416666666666667;" width="10.4167" x="409.3068" y="549.4466"/><rect fill="#EDF0F2" height="17.7083" style="stroke:#BABDBF;stroke-width:1.0416666666666667;" width="10.4167" x="409.3068" y="1155.2409"/><rect fill="#EDF0F2" height="395.5404" style="stroke:#BABDBF;stroke-width:1.0416666666666667;" width="10.4167" x="814.3789" y="759.7005"/><rect fill="#EDF0F2" height="39.5508" style="stroke:#BABDBF;stroke-width:1.0416666666666667;" width="10.4167" x="1198.2981" y="470.3451"/><rect fill="#EDF0F2" height="609.8958" style="stroke:#BABDBF;stroke-width:1.0416666666666667;" width="10.4167" x="1487.4237" y="149.8047"/><rect fill="#EDF0F2" height="267.513" style="stroke:#BABDBF;stroke-width:1.0416666666666667;" width="10.4167" x="1487.4237" y="905.4362"/><rect fill="#EDF0F2" height="1023.1445" style="stroke:#BABDBF;stroke-width:1.0416666666666667;" width="10.4167" x="1790.8437" y="149.8047"/><rect fill="#EDF0F2" height="1023.1445" style="stroke:#BABDBF;stroke-width:1.0416666666666667;" width="10.4167" x="2174.2442" y="149.8047"/><rect fill="none" height="1004.3945" rx="4.1667" ry="4.1667" style="stroke:#59B6EC;stroke-width:1.0416666666666667;" width="2461.4899" x="46.875" y="159.1797"/><line style="stroke:#BABDBF;stroke-width:1.0416666666666667;stroke-dasharray:5.0,5.0;" x1="140.625" x2="140.625" y1="139.388" y2="1182.3242"/><line style="stroke:#BABDBF;stroke-width:1.0416666666666667;stroke-dasharray:5.0,5.0;" x1="413.8143" x2="413.8143" y1="139.388" y2="1182.3242"/><line style="stroke:#BABDBF;stroke-width:1.0416666666666667;stroke-dasharray:5.0,5.0;" x1="819.0806" x2="819.0806" y1="139.388" y2="1182.3242"/><line style="stroke:#BABDBF;stroke-width:1.0416666666666667;stroke-dasharray:5.0,5.0;" x1="1202.6133" x2="1202.6133" y1="139.388" y2="1182.3242"/><line style="stroke:#BABDBF;stroke-width:1.0416666666666667;stroke-dasharray:5.0,5.0;" x1="1491.8996" x2="1491.8996" y1="139.388" y2="1182.3242"/><line style="stroke:#BABDBF;stroke-width:1.0416666666666667;stroke-dasharray:5.0,5.0;" x1="1795.1904" x2="1795.1904" y1="139.388" y2="1182.3242"/><line style="stroke:#BABDBF;stroke-width:1.0416666666666667;stroke-dasharray:5.0,5.0;" x1="2179.3549" x2="2179.3549" y1="139.388" y2="1182.3242"/><rect fill="url(#gc106xs8edxyo0)" height="54.1016" rx="4.1667" ry="4.1667" style="stroke:#2FA4E7;stroke-width:1.0416666666666667;" width="84.906" x="98.9583" y="84.2448"/><text fill="#FFFFFF" font-family="Verdana" font-size="12.5" lengthAdjust="spacing" textLength="55.2368" x="113.7929" y="108.3476">Interrupt</text><text fill="#FFFFFF" font-family="Verdana" font-size="12.5" lengthAdjust="spacing" textLength="59.906" x="111.4583" y="122.8984">controller</text><rect fill="url(#gc106xs8edxyo0)" height="54.1016" rx="4.1667" ry="4.1667" style="stroke:#2FA4E7;stroke-width:1.0416666666666667;" width="84.906" x="98.9583" y="1181.2826"/><text fill="#FFFFFF" font-family="Verdana" font-size="12.5" lengthAdjust="spacing" textLength="55.2368" x="113.7929" y="1205.3853">Interrupt</text><text fill="#FFFFFF" font-family="Verdana" font-size="12.5" lengthAdjust="spacing" textLength="59.906" x="111.4583" y="1219.9361">controller</text><rect fill="url(#gc106xs8edxyo0)" height="39.5508" rx="4.1667" ry="4.1667" style="stroke:#2FA4E7;stroke-width:1.0416666666666667;" width="65.9851" x="381.5226" y="98.7956"/><text fill="#FFFFFF" font-family="Verdana" font-size="12.5" lengthAdjust="spacing" textLength="40.9851" x="394.0226" y="122.8984">main()</text><rect fill="url(#gc106xs8edxyo0)" height="39.5508" rx="4.1667" ry="4.1667" style="stroke:#2FA4E7;stroke-width:1.0416666666666667;" width="65.9851" x="381.5226" y="1181.2826"/><text fill="#FFFFFF" font-family="Verdana" font-size="12.5" lengthAdjust="spacing" textLength="40.9851" x="394.0226" y="1205.3853">main()</text><rect fill="url(#gc106xs8edxyo0)" height="97.7539" rx="4.1667" ry="4.1667" style="stroke:#2FA4E7;stroke-width:1.0416666666666667;" width="238.5132" x="700.3306" y="40.5924"/><text fill="#FFFFFF" font-family="Verdana" font-size="12.5" lengthAdjust="spacing" textLength="56.0669" x="791.5538" y="64.6952">nop_task</text><text fill="#FFFFFF" font-family="Verdana" font-size="12.5" lengthAdjust="spacing" textLength="125.8728" x="756.6508" y="79.246">resuming_on_delay(</text><text fill="#FFFFFF" font-family="Verdana" font-size="12.5" lengthAdjust="spacing" textLength="163.8794" x="737.6475" y="93.7968">SCHEDULER_T &amp;schedule,</text><text fill="#FFFFFF" font-family="Verdana" font-size="12.5" lengthAdjust="spacing" textLength="213.5132" x="712.8306" y="108.3476">std::chrono::microseconds period,</text><text fill="#FFFFFF" font-family="Verdana" font-size="12.5" lengthAdjust="spacing" textLength="208.2092" x="715.4826" y="122.8984">volatile uint32_t&amp; resume_count)</text><rect fill="url(#gc106xs8edxyo0)" height="97.7539" rx="4.1667" ry="4.1667" style="stroke:#2FA4E7;stroke-width:1.0416666666666667;" width="238.5132" x="700.3306" y="1181.2826"/><text fill="#FFFFFF" font-family="Verdana" font-size="12.5" lengthAdjust="spacing" textLength="56.0669" x="791.5538" y="1205.3853">nop_task</text><text fill="#FFFFFF" font-family="Verdana" font-size="12.5" lengthAdjust="spacing" textLength="125.8728" x="756.6508" y="1219.9361">resuming_on_delay(</text><text fill="#FFFFFF" font-family="Verdana" font-size="12.5" lengthAdjust="spacing" textLength="163.8794" x="737.6475" y="1234.4869">SCHEDULER_T &amp;schedule,</text><text fill="#FFFFFF" font-family="Verdana" font-size="12.5" lengthAdjust="spacing" textLength="213.5132" x="712.8306" y="1249.0377">std::chrono::microseconds period,</text><text fill="#FFFFFF" font-family="Verdana" font-size="12.5" lengthAdjust="spacing" textLength="208.2092" x="715.4826" y="1263.5885">volatile uint32_t&amp; resume_count)</text><rect fill="url(#gc106xs8edxyo0)" height="39.5508" rx="4.1667" ry="4.1667" style="stroke:#2FA4E7;stroke-width:1.0416666666666667;" width="103.8696" x="1151.5717" y="98.7956"/><text fill="#FFFFFF" font-family="Verdana" font-size="12.5" lengthAdjust="spacing" textLength="78.8696" x="1164.0717" y="122.8984">isr_handler()</text><rect fill="url(#gc106xs8edxyo0)" height="39.5508" rx="4.1667" ry="4.1667" style="stroke:#2FA4E7;stroke-width:1.0416666666666667;" width="103.8696" x="1151.5717" y="1181.2826"/><text fill="#FFFFFF" font-family="Verdana" font-size="12.5" lengthAdjust="spacing" textLength="78.8696" x="1164.0717" y="1205.3853">isr_handler()</text><rect fill="url(#gc106xs8edxyo0)" height="39.5508" rx="4.1667" ry="4.1667" style="stroke:#2FA4E7;stroke-width:1.0416666666666667;" width="120.2148" x="1432.5246" y="98.7956"/><text fill="#FFFFFF" font-family="Verdana" font-size="12.5" lengthAdjust="spacing" textLength="95.2148" x="1445.0246" y="122.8984">C++ Awaitable</text><rect fill="url(#gc106xs8edxyo0)" height="39.5508" rx="4.1667" ry="4.1667" style="stroke:#2FA4E7;stroke-width:1.0416666666666667;" width="120.2148" x="1432.5246" y="1181.2826"/><text fill="#FFFFFF" font-family="Verdana" font-size="12.5" lengthAdjust="spacing" textLength="95.2148" x="1445.0246" y="1205.3853">C++ Awaitable</text><rect fill="url(#gc106xs8edxyo0)" height="39.5508" rx="4.1667" ry="4.1667" style="stroke:#2FA4E7;stroke-width:1.0416666666666667;" width="180.8899" x="1705.6071" y="98.7956"/><text fill="#FFFFFF" font-family="Verdana" font-size="12.5" lengthAdjust="spacing" textLength="155.8899" x="1718.1071" y="122.8984">scheduler_delay&lt;timer&gt;</text><rect fill="url(#gc106xs8edxyo0)" height="39.5508" rx="4.1667" ry="4.1667" style="stroke:#2FA4E7;stroke-width:1.0416666666666667;" width="180.8899" x="1705.6071" y="1181.2826"/><text fill="#FFFFFF" font-family="Verdana" font-size="12.5" lengthAdjust="spacing" textLength="155.8899" x="1718.1071" y="1205.3853">scheduler_delay&lt;timer&gt;</text><rect fill="url(#gc106xs8edxyo0)" height="39.5508" rx="4.1667" ry="4.1667" style="stroke:#2FA4E7;stroke-width:1.0416666666666667;" width="200.1953" x="2081.4382" y="94.6289"/><rect fill="url(#gc106xs8edxyo0)" height="39.5508" rx="4.1667" ry="4.1667" style="stroke:#2FA4E7;stroke-width:1.0416666666666667;" width="200.1953" x="2077.2715" y="98.7956"/><text fill="#FFFFFF" font-family="Verdana" font-size="12.5" lengthAdjust="spacing" textLength="175.1953" x="2089.7715" y="122.8984">static_list&lt;schedule_entry&gt;</text><rect fill="url(#gc106xs8edxyo0)" height="39.5508" rx="4.1667" ry="4.1667" style="stroke:#2FA4E7;stroke-width:1.0416666666666667;" width="200.1953" x="2081.4382" y="1181.2826"/><rect fill="url(#gc106xs8edxyo0)" height="39.5508" rx="4.1667" ry="4.1667" style="stroke:#2FA4E7;stroke-width:1.0416666666666667;" width="200.1953" x="2077.2715" y="1185.4492"/><text fill="#FFFFFF" font-family="Verdana" font-size="12.5" lengthAdjust="spacing" textLength="175.1953" x="2089.7715" y="1209.552">static_list&lt;schedule_entry&gt;</text><rect fill="#EDF0F2" height="1023.1445" style="stroke:#BABDBF;stroke-width:1.0416666666666667;" width="10.4167" x="136.203" y="149.8047"/><rect fill="#EDF0F2" height="280.9896" style="stroke:#BABDBF;stroke-width:1.0416666666666667;" width="10.4167" x="409.3068" y="149.8047"/><rect fill="#EDF0F2" height="210.2539" style="stroke:#BABDBF;stroke-width:1.0416666666666667;" width="10.4167" x="409.3068" y="549.4466"/><rect fill="#EDF0F2" height="17.7083" style="stroke:#BABDBF;stroke-width:1.0416666666666667;" width="10.4167" x="409.3068" y="1155.2409"/><rect fill="#EDF0F2" height="395.5404" style="stroke:#BABDBF;stroke-width:1.0416666666666667;" width="10.4167" x="814.3789" y="759.7005"/><rect fill="#EDF0F2" height="39.5508" style="stroke:#BABDBF;stroke-width:1.0416666666666667;" width="10.4167" x="1198.2981" y="470.3451"/><rect fill="#EDF0F2" height="609.8958" style="stroke:#BABDBF;stroke-width:1.0416666666666667;" width="10.4167" x="1487.4237" y="149.8047"/><rect fill="#EDF0F2" height="267.513" style="stroke:#BABDBF;stroke-width:1.0416666666666667;" width="10.4167" x="1487.4237" y="905.4362"/><rect fill="#EDF0F2" height="1023.1445" style="stroke:#BABDBF;stroke-width:1.0416666666666667;" width="10.4167" x="1790.8437" y="149.8047"/><rect fill="#EDF0F2" height="1023.1445" style="stroke:#BABDBF;stroke-width:1.0416666666666667;" width="10.4167" x="2174.2442" y="149.8047"/><line style="stroke:#000000;stroke-width:1.0416666666666667;stroke-dasharray:2.0,2.0;" x1="10.4167" x2="2518.7815" y1="150.8464" y2="150.8464"/><path d="M51.0417,159.1797 L134.5744,159.1797 L134.5744,175.8138 L124.1577,186.2305 L46.875,186.2305 L46.875,163.3464 A4.1667,4.1667 0 0 1 51.0417,159.1797 " fill="#E9ECEF" style="stroke:#868E96;stroke-width:1.0416666666666667;"/><rect fill="none" height="1004.3945" rx="4.1667" ry="4.1667" style="stroke:#59B6EC;stroke-width:1.0416666666666667;" width="2461.4899" x="46.875" y="159.1797"/><text fill="#033C73" font-family="Verdana" font-size="12.5" font-weight="bold" lengthAdjust="spacing" textLength="30.4077" x="67.7083" y="177.0325">loop</text><text fill="#343A40" font-family="Verdana" font-size="12.5" font-weight="bold" lengthAdjust="spacing" textLength="86.0107" x="155.4077" y="178.0741">[10 times: i]</text><polygon fill="#2FA4E7" points="1778.3437,225.7487,1788.7604,229.9154,1778.3437,234.082,1782.5104,229.9154" style="stroke:#2FA4E7;stroke-width:1.0416666666666667;"/><line style="stroke:#2FA4E7;stroke-width:3.125;" x1="419.7235" x2="1784.5937" y1="229.9154" y2="229.9154"/><text fill="#343A40" font-family="Verdana" font-size="12.5" lengthAdjust="spacing" textLength="92.4316" x="432.2235" y="219.6757">resume(now())</text><path d="M1806.25,204.9479 L1806.25,230.9896 A4.1667,4.1667 0 0 0 1810.4167,235.1563 L1939.5833,235.1563 A4.1667,4.1667 0 0 0 1943.75,230.9896 L1943.75,211.1979 L1933.3333,200.7813 L1810.4167,200.7813 A4.1667,4.1667 0 0 0 1806.25,204.9479 " fill="url(#gc106xs8edxyo1)" style="stroke:#033C73;stroke-width:1.0416666666666667;"/><path d="M1933.3333,200.7813 L1933.3333,209.1146 A2.0833,2.0833 0 0 0 1935.4167,211.1979 L1943.75,211.1979 L1933.3333,200.7813 " fill="url(#gc106xs8edxyo1)" style="stroke:#033C73;stroke-width:1.0416666666666667;"/><text fill="#FFFFFF" font-family="Verdana" font-size="12.5" lengthAdjust="spacing" textLength="106.2378" x="1817.7083" y="222.8007">now() = i*100ms</text><polygon fill="#2FA4E7" points="2161.7442,268.4245,2172.1608,272.5911,2161.7442,276.7578,2165.9108,272.5911" style="stroke:#2FA4E7;stroke-width:1.0416666666666667;"/><line style="stroke:#2FA4E7;stroke-width:3.125;" x1="1801.2604" x2="2167.9942" y1="272.5911" y2="272.5911"/><text fill="#343A40" font-family="Verdana" font-size="12.5" lengthAdjust="spacing" textLength="94.2688" x="1813.7604" y="262.3515">waiting.begin()</text><polygon fill="#2FA4E7" points="1812.7187,307.9753,1802.302,312.1419,1812.7187,316.3086,1808.552,312.1419" style="stroke:#2FA4E7;stroke-width:1.0416666666666667;"/><line style="stroke:#2FA4E7;stroke-width:3.125;" x1="1806.4687" x2="2173.2025" y1="312.1419" y2="312.1419"/><text fill="#343A40" font-family="Verdana" font-size="12.5" lengthAdjust="spacing" textLength="201.5869" x="1824.177" y="301.9023">i = {handle, i*100ms + 100ms}</text><polygon fill="#2FA4E7" points="431.1818,347.526,420.7652,351.6927,431.1818,355.8594,427.0152,351.6927" style="stroke:#2FA4E7;stroke-width:1.0416666666666667;"/><line style="stroke:#2FA4E7;stroke-width:3.125;" x1="424.9318" x2="1789.802" y1="351.6927" y2="351.6927"/><text fill="#343A40" font-family="Verdana" font-size="12.5" lengthAdjust="spacing" textLength="189.5264" x="442.6402" y="341.453">return true, i*100ms + 100ms</text><polygon fill="#2FA4E7" points="158.078,387.0768,147.6613,391.2435,158.078,395.4102,153.9113,391.2435" style="stroke:#2FA4E7;stroke-width:1.0416666666666667;"/><line style="stroke:#2FA4E7;stroke-width:3.125;" x1="151.828" x2="408.2652" y1="391.2435" y2="391.2435"/><text fill="#343A40" font-family="Verdana" font-size="12.5" lengthAdjust="spacing" textLength="222.7905" x="169.5363" y="381.0038">timer deadline = i*100ms + 100ms</text><polygon fill="#2FA4E7" points="158.078,426.6276,147.6613,430.7943,158.078,434.9609,153.9113,430.7943" style="stroke:#2FA4E7;stroke-width:1.0416666666666667;"/><line style="stroke:#2FA4E7;stroke-width:3.125;" x1="151.828" x2="413.4735" y1="430.7943" y2="430.7943"/><text fill="#343A40" font-family="Verdana" font-size="12.5" lengthAdjust="spacing" textLength="55.4138" x="169.5363" y="420.5546">wfi enter</text><polygon fill="#2FA4E7" points="1185.7981,466.1784,1196.2148,470.3451,1185.7981,474.5117,1189.9648,470.3451" style="stroke:#2FA4E7;stroke-width:1.0416666666666667;"/><line style="stroke:#2FA4E7;stroke-width:3.125;" x1="146.6197" x2="1192.0481" y1="470.3451" y2="470.3451"/><text fill="#343A40" font-family="Verdana" font-size="12.5" lengthAdjust="spacing" textLength="224.0356" x="159.1197" y="460.1054">timer interrupt = i*100ms + 100ms</text><polygon fill="#2FA4E7" points="158.078,505.7292,147.6613,509.8958,158.078,514.0625,153.9113,509.8958" style="stroke:#2FA4E7;stroke-width:1.0416666666666667;"/><line style="stroke:#2FA4E7;stroke-width:3.125;" x1="151.828" x2="1202.4648" y1="509.8958" y2="509.8958"/><text fill="#343A40" font-family="Verdana" font-size="12.5" lengthAdjust="spacing" textLength="23.4619" x="169.5363" y="499.6562">exit</text><polygon fill="#2FA4E7" points="396.8068,545.2799,407.2235,549.4466,396.8068,553.6133,400.9735,549.4466" style="stroke:#2FA4E7;stroke-width:1.0416666666666667;"/><line style="stroke:#2FA4E7;stroke-width:3.125;" x1="146.6197" x2="403.0568" y1="549.4466" y2="549.4466"/><text fill="#343A40" font-family="Verdana" font-size="12.5" lengthAdjust="spacing" textLength="45.5322" x="159.1197" y="539.2069">wfi exit</text><polygon fill="#2FA4E7" points="1778.3437,587.9557,1788.7604,592.1224,1778.3437,596.2891,1782.5104,592.1224" style="stroke:#2FA4E7;stroke-width:1.0416666666666667;"/><line style="stroke:#2FA4E7;stroke-width:3.125;" x1="419.7235" x2="1784.5937" y1="592.1224" y2="592.1224"/><text fill="#343A40" font-family="Verdana" font-size="12.5" lengthAdjust="spacing" textLength="92.4316" x="432.2235" y="581.8827">resume(now())</text><path d="M1806.25,567.1549 L1806.25,593.1966 A4.1667,4.1667 0 0 0 1810.4167,597.3633 L2001.0417,597.3633 A4.1667,4.1667 0 0 0 2005.2083,593.1966 L2005.2083,573.4049 L1994.7917,562.9883 L1810.4167,562.9883 A4.1667,4.1667 0 0 0 1806.25,567.1549 " fill="url(#gc106xs8edxyo1)" style="stroke:#033C73;stroke-width:1.0416666666666667;"/><path d="M1994.7917,562.9883 L1994.7917,571.3216 A2.0833,2.0833 0 0 0 1996.875,573.4049 L2005.2083,573.4049 L1994.7917,562.9883 " fill="url(#gc106xs8edxyo1)" style="stroke:#033C73;stroke-width:1.0416666666666667;"/><text fill="#FFFFFF" font-family="Verdana" font-size="12.5" lengthAdjust="spacing" textLength="167.2058" x="1817.7083" y="585.0077">now() = i*100ms + 100ms</text><polygon fill="#2FA4E7" points="2161.7442,630.6315,2172.1608,634.7982,2161.7442,638.9648,2165.9108,634.7982" style="stroke:#2FA4E7;stroke-width:1.0416666666666667;"/><line style="stroke:#2FA4E7;stroke-width:3.125;" x1="1801.2604" x2="2167.9942" y1="634.7982" y2="634.7982"/><text fill="#343A40" font-family="Verdana" font-size="12.5" lengthAdjust="spacing" textLength="94.2688" x="1813.7604" y="624.5585">waiting.begin()</text><polygon fill="#2FA4E7" points="1812.7187,670.1823,1802.302,674.349,1812.7187,678.5156,1808.552,674.349" style="stroke:#2FA4E7;stroke-width:1.0416666666666667;"/><line style="stroke:#2FA4E7;stroke-width:3.125;" x1="1806.4687" x2="2173.2025" y1="674.349" y2="674.349"/><text fill="#343A40" font-family="Verdana" font-size="12.5" lengthAdjust="spacing" textLength="201.5869" x="1824.177" y="664.1093">i = {handle, i*100ms + 100ms}</text><polygon fill="#2FA4E7" points="2161.7442,712.8581,2172.1608,717.0247,2161.7442,721.1914,2165.9108,717.0247" style="stroke:#2FA4E7;stroke-width:1.0416666666666667;"/><line style="stroke:#2FA4E7;stroke-width:3.125;" x1="1801.2604" x2="2167.9942" y1="717.0247" y2="717.0247"/><text fill="#343A40" font-family="Verdana" font-size="12.5" lengthAdjust="spacing" textLength="47.9187" x="1813.7604" y="706.7851">erase(i)</text><path d="M2189.5833,692.0573 L2189.5833,718.099 A4.1667,4.1667 0 0 0 2193.75,722.2656 L2313.5417,722.2656 A4.1667,4.1667 0 0 0 2317.7083,718.099 L2317.7083,698.3073 L2307.2917,687.8906 L2193.75,687.8906 A4.1667,4.1667 0 0 0 2189.5833,692.0573 " fill="url(#gc106xs8edxyo1)" style="stroke:#033C73;stroke-width:1.0416666666666667;"/><path d="M2307.2917,687.8906 L2307.2917,696.224 A2.0833,2.0833 0 0 0 2309.375,698.3073 L2317.7083,698.3073 L2307.2917,687.8906 " fill="url(#gc106xs8edxyo1)" style="stroke:#033C73;stroke-width:1.0416666666666667;"/><text fill="#FFFFFF" font-family="Verdana" font-size="12.5" lengthAdjust="spacing" textLength="96.0938" x="2201.0417" y="709.9101">waiting list = []</text><polygon fill="#2FA4E7" points="836.2539,755.5339,825.8372,759.7005,836.2539,763.8672,832.0872,759.7005" style="stroke:#2FA4E7;stroke-width:1.0416666666666667;"/><line style="stroke:#2FA4E7;stroke-width:3.125;" x1="830.0039" x2="1789.802" y1="759.7005" y2="759.7005"/><text fill="#343A40" font-family="Verdana" font-size="12.5" lengthAdjust="spacing" textLength="103.4607" x="847.7122" y="749.4609">handle.resume()</text><line style="stroke:#2FA4E7;stroke-width:3.125;" x1="824.7955" x2="868.5455" y1="799.2513" y2="799.2513"/><line style="stroke:#2FA4E7;stroke-width:3.125;" x1="868.5455" x2="868.5455" y1="799.2513" y2="812.793"/><line style="stroke:#2FA4E7;stroke-width:3.125;" x1="825.8372" x2="868.5455" y1="812.793" y2="812.793"/><polygon fill="#2FA4E7" points="836.2539,808.6263,825.8372,812.793,836.2539,816.9596,832.0872,812.793" style="stroke:#2FA4E7;stroke-width:1.0416666666666667;"/><text fill="#343A40" font-family="Verdana" font-size="12.5" lengthAdjust="spacing" textLength="136.9141" x="837.2955" y="789.0116">resume_count = i + 1</text><line style="stroke:#2FA4E7;stroke-width:3.125;" x1="824.7955" x2="868.5455" y1="852.3438" y2="852.3438"/><line style="stroke:#2FA4E7;stroke-width:3.125;" x1="868.5455" x2="868.5455" y1="852.3438" y2="865.8854"/><line style="stroke:#2FA4E7;stroke-width:3.125;" x1="825.8372" x2="868.5455" y1="865.8854" y2="865.8854"/><polygon fill="#2FA4E7" points="836.2539,861.7188,825.8372,865.8854,836.2539,870.0521,832.0872,865.8854" style="stroke:#2FA4E7;stroke-width:1.0416666666666667;"/><text fill="#343A40" font-family="Verdana" font-size="12.5" lengthAdjust="spacing" textLength="338.0859" x="837.2955" y="842.1041">run until co_await scheduled_delay{schedule,100ms}</text><polygon fill="#2FA4E7" points="1474.9237,901.2695,1485.3404,905.4362,1474.9237,909.6029,1479.0904,905.4362" style="stroke:#2FA4E7;stroke-width:1.0416666666666667;"/><line style="stroke:#2FA4E7;stroke-width:3.125;" x1="824.7955" x2="1481.1737" y1="905.4362" y2="905.4362"/><text fill="#343A40" font-family="Verdana" font-size="12.5" lengthAdjust="spacing" textLength="346.0632" x="837.2955" y="895.1965">construct awaitable_timer awaitable{schedule,100ms}</text><polygon fill="#2FA4E7" points="1474.9237,940.8203,1485.3404,944.987,1474.9237,949.1536,1479.0904,944.987" style="stroke:#2FA4E7;stroke-width:1.0416666666666667;"/><line style="stroke:#2FA4E7;stroke-width:3.125;" x1="824.7955" x2="1481.1737" y1="944.987" y2="944.987"/><text fill="#343A40" font-family="Verdana" font-size="12.5" lengthAdjust="spacing" textLength="144.9524" x="837.2955" y="934.7473">await_suspend(handle)</text><polygon fill="#2FA4E7" points="1778.3437,983.4961,1788.7604,987.6628,1778.3437,991.8294,1782.5104,987.6628" style="stroke:#2FA4E7;stroke-width:1.0416666666666667;"/><line style="stroke:#2FA4E7;stroke-width:3.125;" x1="1497.8404" x2="1784.5937" y1="987.6628" y2="987.6628"/><text fill="#343A40" font-family="Verdana" font-size="12.5" lengthAdjust="spacing" textLength="257.5867" x="1510.3404" y="977.4231">scheduler.insert(handle, now() + 100ms)</text><path d="M1806.25,962.6953 L1806.25,988.737 A4.1667,4.1667 0 0 0 1810.4167,992.9036 L2001.0417,992.9036 A4.1667,4.1667 0 0 0 2005.2083,988.737 L2005.2083,968.9453 L1994.7917,958.5286 L1810.4167,958.5286 A4.1667,4.1667 0 0 0 1806.25,962.6953 " fill="url(#gc106xs8edxyo1)" style="stroke:#033C73;stroke-width:1.0416666666666667;"/><path d="M1994.7917,958.5286 L1994.7917,966.862 A2.0833,2.0833 0 0 0 1996.875,968.9453 L2005.2083,968.9453 L1994.7917,958.5286 " fill="url(#gc106xs8edxyo1)" style="stroke:#033C73;stroke-width:1.0416666666666667;"/><text fill="#FFFFFF" font-family="Verdana" font-size="12.5" lengthAdjust="spacing" textLength="167.2058" x="1817.7083" y="980.5481">now() = i*100ms + 100ms</text><polygon fill="#2FA4E7" points="2161.7442,1029.2969,2172.1608,1033.4635,2161.7442,1037.6302,2165.9108,1033.4635" style="stroke:#2FA4E7;stroke-width:1.0416666666666667;"/><line style="stroke:#2FA4E7;stroke-width:3.125;" x1="1801.2604" x2="2167.9942" y1="1033.4635" y2="1033.4635"/><text fill="#343A40" font-family="Verdana" font-size="12.5" lengthAdjust="spacing" textLength="337.5671" x="1813.7604" y="1023.2239">waiting.emplace(handle, i*100ms + 100ms + 100ms)</text><path d="M2189.5833,1008.4961 L2189.5833,1034.5378 A4.1667,4.1667 0 0 0 2193.75,1038.7044 L2492.7083,1038.7044 A4.1667,4.1667 0 0 0 2496.875,1034.5378 L2496.875,1014.7461 L2486.4583,1004.3294 L2193.75,1004.3294 A4.1667,4.1667 0 0 0 2189.5833,1008.4961 " fill="url(#gc106xs8edxyo1)" style="stroke:#033C73;stroke-width:1.0416666666666667;"/><path d="M2486.4583,1004.3294 L2486.4583,1012.6628 A2.0833,2.0833 0 0 0 2488.5417,1014.7461 L2496.875,1014.7461 L2486.4583,1004.3294 " fill="url(#gc106xs8edxyo1)" style="stroke:#033C73;stroke-width:1.0416666666666667;"/><text fill="#FFFFFF" font-family="Verdana" font-size="12.5" lengthAdjust="spacing" textLength="275.7874" x="2201.0417" y="1026.3489">waiting list = [{handle, i*100ms + 100ms}]</text><polygon fill="#2FA4E7" points="1812.7187,1071.9727,1802.302,1076.1393,1812.7187,1080.306,1808.552,1076.1393" style="stroke:#2FA4E7;stroke-width:1.0416666666666667;"/><line style="stroke:#2FA4E7;stroke-width:3.125;" x1="1806.4687" x2="2173.2025" y1="1076.1393" y2="1076.1393"/><text fill="#343A40" font-family="Verdana" font-size="12.5" lengthAdjust="spacing" textLength="38.7146" x="1824.177" y="1065.8997">return</text><polygon fill="#2FA4E7" points="1509.2987,1111.5234,1498.882,1115.6901,1509.2987,1119.8568,1505.132,1115.6901" style="stroke:#2FA4E7;stroke-width:1.0416666666666667;"/><line style="stroke:#2FA4E7;stroke-width:3.125;" x1="1503.0487" x2="1789.802" y1="1115.6901" y2="1115.6901"/><text fill="#343A40" font-family="Verdana" font-size="12.5" lengthAdjust="spacing" textLength="38.7146" x="1520.757" y="1105.4504">return</text><polygon fill="#2FA4E7" points="431.1818,1151.0742,420.7652,1155.2409,431.1818,1159.4076,427.0152,1155.2409" style="stroke:#2FA4E7;stroke-width:1.0416666666666667;"/><line style="stroke:#2FA4E7;stroke-width:3.125;stroke-dasharray:2.0,2.0;" x1="424.9318" x2="1486.382" y1="1155.2409" y2="1155.2409"/><text fill="#343A40" font-family="Verdana" font-size="12.5" lengthAdjust="spacing" textLength="47.1313" x="442.6402" y="1145.0012">resume</text><line style="stroke:#000000;stroke-width:1.0416666666666667;stroke-dasharray:2.0,2.0;" x1="10.4167" x2="2518.7815" y1="1170.8659" y2="1170.8659"/><!--SRC=[tLXRRzGu57xFh_3s0MRej2hBKuUBXBf58AsqYCiJWo8tENJC9dPaEmmLuhzpx2JEtSbCGQZaAUCv_dmktpd-bB_q5b8W4SWy0Sg3u4fy9KSNhzyV1GIVZ4hD8fPHhidHAwv1oZpJ6nu9hgL84f17X2h2eW1uJ71l2V0yqkmBa1SvnnV1rG1QIXbVBErsyzetu28BDLN_RxW4bQUCNuU2Xp4az6QnuMylNbx-y_xVopVXEt9FHLk8CO3LXYiThzVHLWekrkkKHL8eG6zZHJAGJCHeyaKaLBC4ICwuVlHtgEyHUmA4aSYvBdoAX1HzdvYIuPRo60ClVSULJkp_NNs6I9Et6OrW8EwBusFoV4UPfbS9M0XQ_UeRLu798kudcgKWdzbTxY-xApB5A7ADkpJ65uK9K_f9PHO2Lkocs6hEmtJMVj-_JrwB7KWYU41DwQW6KrI3p29oyioMYAnDda2l21WcaAA2WRL2XClcebbpIAw-vh58YEZyHrWiaD8onwnr0sxOFGuSXaDk9w5wQcWyfmosTKWZFyxWSGk22qINx7ghMylcAUs9sKwUaWyVMnOcfsPpq5fr3bUfxu9MMQdpxFY8PvoDsXkQcWJI927zDd69M967PsUfMhM97lHWiOmlcCIu363htnY6ozcApZLDyx4kdZHZqxdaf6hl4ViwjAfi9njUxIa9vjabSqumH9QSc64LsXPpl8YBz7npOyCcv_iefclGZZjkFRHzMTjD8hkCjNj_ZWFk_TI-XIfN6P9kKOobvI1ElR_JUExzb745KfSeAwpERh4anmLjXa4zBLAR61JaRwe6RLop3FqvrCNeSlbs2ccMu8Hr7kCPj_QtszhV1i2_Vzm_b0gta_sY4wQ3RvRViwTHvUuawTatsjasRS1Xbz7hScmbGcGOBJ6qLcl2XeyRdGT3Wye5LBcqiEHOUhWpMQucnTW3MvrHMszzPj3j2gxTnRP7YHcwvbXK-kYODC-NzjZ4sTD7cim-Nk9hKWmfh7oSC0vrplP3sNrYnVq_QDwz9WQD2ac1oiavnIffETEhMgGeEUgsEQ3o6huoFUNm65PB0Tdm3TZFx0doQvjYii1tjpbgNq1I1GjswzpvvTtXMIk5IH7kQLdkvM5Dr30O5n1-LTRLJ3tDoKmb9hSrfHOvM6XDYYto-wJMdH1OSnhzPugjpdc_JdXrfy8VARxyjqXGHjZGQC6jLTP4JIfUdO-egj647tXHpBaWpgSkY4dLT3xH9NwrjDVkOPNa7Un-LUGxtQjWl2h8etvcg1w_sjbVvSmavSEpEylA6N9b8WdJycHU5cR8aL6sUkN7-6Zpoetpdjpmo8mq0_EfSz2yP2ngaSwq7fkwuopUZy6UmdcPErYl0nWxmbPtXQE4MGOpv-KdcYWaDrxx-cOeWStFc8tb-dDibpi_0000]--></g></svg>
