<svg xmlns="http://www.w3.org/2000/svg" xmlns:xlink="http://www.w3.org/1999/xlink" contentStyleType="text/css" height="970.8333px" preserveAspectRatio="none" style="width:2531px;height:970px;" version="1.1" viewBox="0 0 2531 970" width="2531.25px" zoomAndPan="magnify"><defs><linearGradient id="gc106xs8edxyo0" x1="50%" x2="50%" y1="0%" y2="100%"><stop offset="0%" stop-color="#59B6EC"/><stop offset="100%" stop-color="#2FA4E7"/></linearGradient><linearGradient id="gc106xs8edxyo1" x1="50%" x2="50%" y1="0%" y2="100%"><stop offset="0%" stop-color="#35638F"/><stop offset="100%" stop-color="#033C73"/></linearGradient></defs><g><rect fill="#F8F9FA" height="948.0143" rx="4.1667" ry="4.1667" style="stroke:#868E96;stroke-width:1.0416666666666667;" width="176.5727" x="53.125" y="11.4583"/><text fill="#343A40" font-family="Verdana" font-size="12.5" font-weight="bold" lengthAdjust="spacing" textLength="28.4851" x="127.1688" y="28.2694">CPU</text><rect fill="#F8F9FA" height="948.0143" rx="4.1667" ry="4.1667" style="stroke:#868E96;stroke-width:1.0416666666666667;" width="965.5853" x="335.6893" y="11.4583"/><text fill="#343A40" font-family="Verdana" font-size="12.5" font-weight="bold" lengthAdjust="spacing" textLength="117.2546" x="759.8546" y="28.2694">Active Functions</text><rect fill="#F8F9FA" height="948.0143" rx="4.1667" ry="4.1667" style="stroke:#868E96;stroke-width:1.0416666666666667;" width="940.7756" x="1386.6913" y="11.4583"/><text fill="#343A40" font-family="Verdana" font-size="12.5" font-weight="bold" lengthAdjust="spacing" textLength="92.3462" x="1810.906" y="28.2694">Object Space</text><rect fill="#EDF0F2" height="698.3724" style="stroke:#BABDBF;stroke-width:1.0416666666666667;" width="10.4167" x="136.203" y="149.8047"/><rect fill="#EDF0F2" height="177.9948" style="stroke:#BABDBF;stroke-width:1.0416666666666667;" width="10.4167" x="409.3068" y="181.0221"/><rect fill="#EDF0F2" height="10.4167" style="stroke:#BABDBF;stroke-width:1.0416666666666667;" width="10.4167" x="409.3068" y="837.7604"/><rect fill="#EDF0F2" height="478.7435" style="stroke:#BABDBF;stroke-width:1.0416666666666667;" width="10.4167" x="814.3789" y="359.0169"/><rect fill="#EDF0F2" height="260.2214" style="stroke:#BABDBF;stroke-width:1.0416666666666667;" width="10.4167" x="1487.4237" y="587.9557"/><rect fill="#EDF0F2" height="627.6042" style="stroke:#BABDBF;stroke-width:1.0416666666666667;" width="10.4167" x="1790.8437" y="220.5729"/><rect fill="#EDF0F2" height="584.9284" style="stroke:#BABDBF;stroke-width:1.0416666666666667;" width="10.4167" x="2174.2442" y="263.2487"/><line style="stroke:#BABDBF;stroke-width:1.0416666666666667;stroke-dasharray:5.0,5.0;" x1="140.625" x2="140.625" y1="139.388" y2="857.5521"/><line style="stroke:#BABDBF;stroke-width:1.0416666666666667;stroke-dasharray:5.0,5.0;" x1="413.8143" x2="413.8143" y1="139.388" y2="857.5521"/><line style="stroke:#BABDBF;stroke-width:1.0416666666666667;stroke-dasharray:5.0,5.0;" x1="819.0806" x2="819.0806" y1="139.388" y2="857.5521"/><line style="stroke:#BABDBF;stroke-width:1.0416666666666667;stroke-dasharray:5.0,5.0;" x1="1202.6133" x2="1202.6133" y1="139.388" y2="857.5521"/><line style="stroke:#BABDBF;stroke-width:1.0416666666666667;stroke-dasharray:5.0,5.0;" x1="1491.8996" x2="1491.8996" y1="139.388" y2="857.5521"/><line style="stroke:#BABDBF;stroke-width:1.0416666666666667;stroke-dasharray:5.0,5.0;" x1="1795.1904" x2="1795.1904" y1="139.388" y2="857.5521"/><line style="stroke:#BABDBF;stroke-width:1.0416666666666667;stroke-dasharray:5.0,5.0;" x1="2179.3549" x2="2179.3549" y1="139.388" y2="857.5521"/><rect fill="url(#gc106xs8edxyo0)" height="54.1016" rx="4.1667" ry="4.1667" style="stroke:#2FA4E7;stroke-width:1.0416666666666667;" width="84.906" x="98.9583" y="84.2448"/><text fill="#FFFFFF" font-family="Verdana" font-size="12.5" lengthAdjust="spacing" textLength="55.2368" x="113.7929" y="108.3476">Interrupt</text><text fill="#FFFFFF" font-family="Verdana" font-size="12.5" lengthAdjust="spacing" textLength="59.906" x="111.4583" y="122.8984">controller</text><rect fill="url(#gc106xs8edxyo0)" height="54.1016" rx="4.1667" ry="4.1667" style="stroke:#2FA4E7;stroke-width:1.0416666666666667;" width="84.906" x="98.9583" y="856.5104"/><text fill="#FFFFFF" font-family="Verdana" font-size="12.5" lengthAdjust="spacing" textLength="55.2368" x="113.7929" y="880.6132">Interrupt</text><text fill="#FFFFFF" font-family="Verdana" font-size="12.5" lengthAdjust="spacing" textLength="59.906" x="111.4583" y="895.164">controller</text><rect fill="url(#gc106xs8edxyo0)" height="39.5508" rx="4.1667" ry="4.1667" style="stroke:#2FA4E7;stroke-width:1.0416666666666667;" width="65.9851" x="381.5226" y="98.7956"/><text fill="#FFFFFF" font-family="Verdana" font-size="12.5" lengthAdjust="spacing" textLength="40.9851" x="394.0226" y="122.8984">main()</text><rect fill="url(#gc106xs8edxyo0)" height="39.5508" rx="4.1667" ry="4.1667" style="stroke:#2FA4E7;stroke-width:1.0416666666666667;" width="65.9851" x="381.5226" y="856.5104"/><text fill="#FFFFFF" font-family="Verdana" font-size="12.5" lengthAdjust="spacing" textLength="40.9851" x="394.0226" y="880.6132">main()</text><rect fill="url(#gc106xs8edxyo0)" height="97.7539" rx="4.1667" ry="4.1667" style="stroke:#2FA4E7;stroke-width:1.0416666666666667;" width="238.5132" x="700.3306" y="40.5924"/><text fill="#FFFFFF" font-family="Verdana" font-size="12.5" lengthAdjust="spacing" textLength="56.0669" x="791.5538" y="64.6952">nop_task</text><text fill="#FFFFFF" font-family="Verdana" font-size="12.5" lengthAdjust="spacing" textLength="125.8728" x="756.6508" y="79.246">resuming_on_delay(</text><text fill="#FFFFFF" font-family="Verdana" font-size="12.5" lengthAdjust="spacing" textLength="163.8794" x="737.6475" y="93.7968">SCHEDULER_T &amp;schedule,</text><text fill="#FFFFFF" font-family="Verdana" font-size="12.5" lengthAdjust="spacing" textLength="213.5132" x="712.8306" y="108.3476">std::chrono::microseconds period,</text><text fill="#FFFFFF" font-family="Verdana" font-size="12.5" lengthAdjust="spacing" textLength="208.2092" x="715.4826" y="122.8984">volatile uint32_t&amp; resume_count)</text><rect fill="url(#gc106xs8edxyo0)" height="97.7539" rx="4.1667" ry="4.1667" style="stroke:#2FA4E7;stroke-width:1.0416666666666667;" width="238.5132" x="700.3306" y="856.5104"/><text fill="#FFFFFF" font-family="Verdana" font-size="12.5" lengthAdjust="spacing" textLength="56.0669" x="791.5538" y="880.6132">nop_task</text><text fill="#FFFFFF" font-family="Verdana" font-size="12.5" lengthAdjust="spacing" textLength="125.8728" x="756.6508" y="895.164">resuming_on_delay(</text><text fill="#FFFFFF" font-family="Verdana" font-size="12.5" lengthAdjust="spacing" textLength="163.8794" x="737.6475" y="909.7148">SCHEDULER_T &amp;schedule,</text><text fill="#FFFFFF" font-family="Verdana" font-size="12.5" lengthAdjust="spacing" textLength="213.5132" x="712.8306" y="924.2655">std::chrono::microseconds period,</text><text fill="#FFFFFF" font-family="Verdana" font-size="12.5" lengthAdjust="spacing" textLength="208.2092" x="715.4826" y="938.8163">volatile uint32_t&amp; resume_count)</text><rect fill="url(#gc106xs8edxyo0)" height="39.5508" rx="4.1667" ry="4.1667" style="stroke:#2FA4E7;stroke-width:1.0416666666666667;" width="103.8696" x="1151.5717" y="98.7956"/><text fill="#FFFFFF" font-family="Verdana" font-size="12.5" lengthAdjust="spacing" textLength="78.8696" x="1164.0717" y="122.8984">isr_handler()</text><rect fill="url(#gc106xs8edxyo0)" height="39.5508" rx="4.1667" ry="4.1667" style="stroke:#2FA4E7;stroke-width:1.0416666666666667;" width="103.8696" x="1151.5717" y="856.5104"/><text fill="#FFFFFF" font-family="Verdana" font-size="12.5" lengthAdjust="spacing" textLength="78.8696" x="1164.0717" y="880.6132">isr_handler()</text><rect fill="url(#gc106xs8edxyo0)" height="39.5508" rx="4.1667" ry="4.1667" style="stroke:#2FA4E7;stroke-width:1.0416666666666667;" width="120.2148" x="1432.5246" y="98.7956"/><text fill="#FFFFFF" font-family="Verdana" font-size="12.5" lengthAdjust="spacing" textLength="95.2148" x="1445.0246" y="122.8984">C++ Awaitable</text><rect fill="url(#gc106xs8edxyo0)" height="39.5508" rx="4.1667" ry="4.1667" style="stroke:#2FA4E7;stroke-width:1.0416666666666667;" width="120.2148" x="1432.5246" y="856.5104"/><text fill="#FFFFFF" font-family="Verdana" font-size="12.5" lengthAdjust="spacing" textLength="95.2148" x="1445.0246" y="880.6132">C++ Awaitable</text><rect fill="url(#gc106xs8edxyo0)" height="39.5508" rx="4.1667" ry="4.1667" style="stroke:#2FA4E7;stroke-width:1.0416666666666667;" width="180.8899" x="1705.6071" y="98.7956"/><text fill="#FFFFFF" font-family="Verdana" font-size="12.5" lengthAdjust="spacing" textLength="155.8899" x="1718.1071" y="122.8984">scheduler_delay&lt;timer&gt;</text><rect fill="url(#gc106xs8edxyo0)" height="39.5508" rx="4.1667" ry="4.1667" style="stroke:#2FA4E7;stroke-width:1.0416666666666667;" width="180.8899" x="1705.6071" y="856.5104"/><text fill="#FFFFFF" font-family="Verdana" font-size="12.5" lengthAdjust="spacing" textLength="155.8899" x="1718.1071" y="880.6132">scheduler_delay&lt;timer&gt;</text><rect fill="url(#gc106xs8edxyo0)" height="39.5508" rx="4.1667" ry="4.1667" style="stroke:#2FA4E7;stroke-width:1.0416666666666667;" width="200.1953" x="2081.4382" y="94.6289"/><rect fill="url(#gc106xs8edxyo0)" height="39.5508" rx="4.1667" ry="4.1667" style="stroke:#2FA4E7;stroke-width:1.0416666666666667;" width="200.1953" x="2077.2715" y="98.7956"/><text fill="#FFFFFF" font-family="Verdana" font-size="12.5" lengthAdjust="spacing" textLength="175.1953" x="2089.7715" y="122.8984">static_list&lt;schedule_entry&gt;</text><rect fill="url(#gc106xs8edxyo0)" height="39.5508" rx="4.1667" ry="4.1667" style="stroke:#2FA4E7;stroke-width:1.0416666666666667;" width="200.1953" x="2081.4382" y="856.5104"/><rect fill="url(#gc106xs8edxyo0)" height="39.5508" rx="4.1667" ry="4.1667" style="stroke:#2FA4E7;stroke-width:1.0416666666666667;" width="200.1953" x="2077.2715" y="860.6771"/><text fill="#FFFFFF" font-family="Verdana" font-size="12.5" lengthAdjust="spacing" textLength="175.1953" x="2089.7715" y="884.7799">static_list&lt;schedule_entry&gt;</text><rect fill="#EDF0F2" height="698.3724" style="stroke:#BABDBF;stroke-width:1.0416666666666667;" width="10.4167" x="136.203" y="149.8047"/><rect fill="#EDF0F2" height="177.9948" style="stroke:#BABDBF;stroke-width:1.0416666666666667;" width="10.4167" x="409.3068" y="181.0221"/><rect fill="#EDF0F2" height="10.4167" style="stroke:#BABDBF;stroke-width:1.0416666666666667;" width="10.4167" x="409.3068" y="837.7604"/><rect fill="#EDF0F2" height="478.7435" style="stroke:#BABDBF;stroke-width:1.0416666666666667;" width="10.4167" x="814.3789" y="359.0169"/><rect fill="#EDF0F2" height="260.2214" style="stroke:#BABDBF;stroke-width:1.0416666666666667;" width="10.4167" x="1487.4237" y="587.9557"/><rect fill="#EDF0F2" height="627.6042" style="stroke:#BABDBF;stroke-width:1.0416666666666667;" width="10.4167" x="1790.8437" y="220.5729"/><rect fill="#EDF0F2" height="584.9284" style="stroke:#BABDBF;stroke-width:1.0416666666666667;" width="10.4167" x="2174.2442" y="263.2487"/><polygon fill="#2FA4E7" points="396.8068,176.8555,407.2235,181.0221,396.8068,185.1888,400.9735,181.0221" style="stroke:#2FA4E7;stroke-width:1.0416666666666667;"/><line style="stroke:#2FA4E7;stroke-width:3.125;" x1="146.6197" x2="403.0568" y1="181.0221" y2="181.0221"/><text fill="#343A40" font-family="Verdana" font-size="12.5" lengthAdjust="spacing" textLength="118.1824" x="159.1197" y="170.7825">reset, enter main()</text><polygon fill="#2FA4E7" points="1778.3437,216.4063,1788.7604,220.5729,1778.3437,224.7396,1782.5104,220.5729" style="stroke:#2FA4E7;stroke-width:1.0416666666666667;"/><line style="stroke:#2FA4E7;stroke-width:3.125;" x1="419.7235" x2="1784.5937" y1="220.5729" y2="220.5729"/><text fill="#343A40" font-family="Verdana" font-size="12.5" lengthAdjust="spacing" textLength="254.5166" x="432.2235" y="210.3333">construct scheduler_delay&lt;&gt; scheduler;</text><polygon fill="#2FA4E7" points="2161.7442,259.082,2172.1608,263.2487,2161.7442,267.4154,2165.9108,263.2487" style="stroke:#2FA4E7;stroke-width:1.0416666666666667;"/><line style="stroke:#2FA4E7;stroke-width:3.125;" x1="1801.2604" x2="2167.9942" y1="263.2487" y2="263.2487"/><text fill="#343A40" font-family="Verdana" font-size="12.5" lengthAdjust="spacing" textLength="196.3135" x="1813.7604" y="253.009">construct static_list&lt;&gt; waiting;</text><path d="M2189.5833,238.2813 L2189.5833,264.3229 A4.1667,4.1667 0 0 0 2193.75,268.4896 L2313.5417,268.4896 A4.1667,4.1667 0 0 0 2317.7083,264.3229 L2317.7083,244.5313 L2307.2917,234.1146 L2193.75,234.1146 A4.1667,4.1667 0 0 0 2189.5833,238.2813 " fill="url(#gc106xs8edxyo1)" style="stroke:#033C73;stroke-width:1.0416666666666667;"/><path d="M2307.2917,234.1146 L2307.2917,242.4479 A2.0833,2.0833 0 0 0 2309.375,244.5313 L2317.7083,244.5313 L2307.2917,234.1146 " fill="url(#gc106xs8edxyo1)" style="stroke:#033C73;stroke-width:1.0416666666666667;"/><text fill="#FFFFFF" font-family="Verdana" font-size="12.5" lengthAdjust="spacing" textLength="96.0938" x="2201.0417" y="256.134">waiting list = []</text><line style="stroke:#2FA4E7;stroke-width:3.125;" x1="419.7235" x2="463.4735" y1="305.9245" y2="305.9245"/><line style="stroke:#2FA4E7;stroke-width:3.125;" x1="463.4735" x2="463.4735" y1="305.9245" y2="319.4661"/><line style="stroke:#2FA4E7;stroke-width:3.125;" x1="420.7652" x2="463.4735" y1="319.4661" y2="319.4661"/><polygon fill="#2FA4E7" points="431.1818,315.2995,420.7652,319.4661,431.1818,323.6328,427.0152,319.4661" style="stroke:#2FA4E7;stroke-width:1.0416666666666667;"/><text fill="#343A40" font-family="Verdana" font-size="12.5" lengthAdjust="spacing" textLength="115.0208" x="432.2235" y="295.6848">resume_count = 0</text><polygon fill="#2FA4E7" points="801.8789,354.8503,812.2955,359.0169,801.8789,363.1836,806.0455,359.0169" style="stroke:#2FA4E7;stroke-width:1.0416666666666667;"/><line style="stroke:#2FA4E7;stroke-width:3.125;" x1="414.5152" x2="808.1289" y1="359.0169" y2="359.0169"/><text fill="#343A40" font-family="Verdana" font-size="12.5" lengthAdjust="spacing" textLength="364.447" x="427.0152" y="348.7773">call resuming_on_delay(scheduler, 100ms, resume_count)</text><polygon fill="#2FA4E7" points="425.9735,394.401,415.5568,398.5677,425.9735,402.7344,421.8068,398.5677" style="stroke:#2FA4E7;stroke-width:1.0416666666666667;"/><line style="stroke:#2FA4E7;stroke-width:3.125;stroke-dasharray:2.0,2.0;" x1="419.7235" x2="813.3372" y1="398.5677" y2="398.5677"/><text fill="#343A40" font-family="Verdana" font-size="12.5" lengthAdjust="spacing" textLength="98.7549" x="437.4318" y="388.328">return nop_task</text><line style="stroke:#2FA4E7;stroke-width:3.125;" x1="824.7955" x2="868.5455" y1="452.6693" y2="452.6693"/><line style="stroke:#2FA4E7;stroke-width:3.125;" x1="868.5455" x2="868.5455" y1="452.6693" y2="466.2109"/><line style="stroke:#2FA4E7;stroke-width:3.125;" x1="825.8372" x2="868.5455" y1="466.2109" y2="466.2109"/><polygon fill="#2FA4E7" points="836.2539,462.0443,825.8372,466.2109,836.2539,470.3776,832.0872,466.2109" style="stroke:#2FA4E7;stroke-width:1.0416666666666667;"/><text fill="#343A40" font-family="Verdana" font-size="12.5" lengthAdjust="spacing" textLength="63.2019" x="837.2955" y="427.8788">construct-</text><text fill="#343A40" font-family="Verdana" font-size="12.5" lengthAdjust="spacing" textLength="65.8203" x="837.2955" y="442.4296">nop_task()</text><line style="stroke:#2FA4E7;stroke-width:3.125;" x1="824.7955" x2="868.5455" y1="520.3125" y2="520.3125"/><line style="stroke:#2FA4E7;stroke-width:3.125;" x1="868.5455" x2="868.5455" y1="520.3125" y2="533.8542"/><line style="stroke:#2FA4E7;stroke-width:3.125;" x1="825.8372" x2="868.5455" y1="533.8542" y2="533.8542"/><polygon fill="#2FA4E7" points="836.2539,529.6875,825.8372,533.8542,836.2539,538.0208,832.0872,533.8542" style="stroke:#2FA4E7;stroke-width:1.0416666666666667;"/><text fill="#343A40" font-family="Verdana" font-size="12.5" lengthAdjust="spacing" textLength="57.1594" x="837.2955" y="495.5221">run until-</text><text fill="#343A40" font-family="Verdana" font-size="12.5" lengthAdjust="spacing" textLength="281.4636" x="837.2955" y="510.0728">co_await scheduled_delay{schedule,100ms}</text><polygon fill="#2FA4E7" points="1474.9237,583.7891,1485.3404,587.9557,1474.9237,592.1224,1479.0904,587.9557" style="stroke:#2FA4E7;stroke-width:1.0416666666666667;"/><line style="stroke:#2FA4E7;stroke-width:3.125;" x1="824.7955" x2="1481.1737" y1="587.9557" y2="587.9557"/><text fill="#343A40" font-family="Verdana" font-size="12.5" lengthAdjust="spacing" textLength="63.2019" x="837.2955" y="563.1653">construct-</text><text fill="#343A40" font-family="Verdana" font-size="12.5" lengthAdjust="spacing" textLength="283.3984" x="837.2955" y="577.7161">awaitable_timer awaitable{schedule,100ms}</text><polygon fill="#2FA4E7" points="1474.9237,623.3398,1485.3404,627.5065,1474.9237,631.6732,1479.0904,627.5065" style="stroke:#2FA4E7;stroke-width:1.0416666666666667;"/><line style="stroke:#2FA4E7;stroke-width:3.125;" x1="824.7955" x2="1481.1737" y1="627.5065" y2="627.5065"/><text fill="#343A40" font-family="Verdana" font-size="12.5" lengthAdjust="spacing" textLength="209.6008" x="837.2955" y="617.2668">awaitable.await_suspend(handle)</text><polygon fill="#2FA4E7" points="1778.3437,666.0156,1788.7604,670.1823,1778.3437,674.349,1782.5104,670.1823" style="stroke:#2FA4E7;stroke-width:1.0416666666666667;"/><line style="stroke:#2FA4E7;stroke-width:3.125;" x1="1497.8404" x2="1784.5937" y1="670.1823" y2="670.1823"/><text fill="#343A40" font-family="Verdana" font-size="12.5" lengthAdjust="spacing" textLength="257.5867" x="1510.3404" y="659.9426">scheduler.insert(handle, now() + 100ms)</text><path d="M1806.25,645.2148 L1806.25,671.2565 A4.1667,4.1667 0 0 0 1810.4167,675.4232 L1914.5833,675.4232 A4.1667,4.1667 0 0 0 1918.75,671.2565 L1918.75,651.4648 L1908.3333,641.0482 L1810.4167,641.0482 A4.1667,4.1667 0 0 0 1806.25,645.2148 " fill="url(#gc106xs8edxyo1)" style="stroke:#033C73;stroke-width:1.0416666666666667;"/><path d="M1908.3333,641.0482 L1908.3333,649.3815 A2.0833,2.0833 0 0 0 1910.4167,651.4648 L1918.75,651.4648 L1908.3333,641.0482 " fill="url(#gc106xs8edxyo1)" style="stroke:#033C73;stroke-width:1.0416666666666667;"/><text fill="#FFFFFF" font-family="Verdana" font-size="12.5" lengthAdjust="spacing" textLength="80.6091" x="1817.7083" y="663.0676">now() = 0ms</text><polygon fill="#2FA4E7" points="2161.7442,711.8164,2172.1608,715.9831,2161.7442,720.1497,2165.9108,715.9831" style="stroke:#2FA4E7;stroke-width:1.0416666666666667;"/><line style="stroke:#2FA4E7;stroke-width:3.125;" x1="1801.2604" x2="2167.9942" y1="715.9831" y2="715.9831"/><text fill="#343A40" font-family="Verdana" font-size="12.5" lengthAdjust="spacing" textLength="250.9705" x="1813.7604" y="705.7434">waiting.emplace(handle, 0ms + 100ms)</text><path d="M2189.5833,691.0156 L2189.5833,717.0573 A4.1667,4.1667 0 0 0 2193.75,721.224 L2467.7083,721.224 A4.1667,4.1667 0 0 0 2471.875,717.0573 L2471.875,697.2656 L2461.4583,686.849 L2193.75,686.849 A4.1667,4.1667 0 0 0 2189.5833,691.0156 " fill="url(#gc106xs8edxyo1)" style="stroke:#033C73;stroke-width:1.0416666666666667;"/><path d="M2461.4583,686.849 L2461.4583,695.1823 A2.0833,2.0833 0 0 0 2463.5417,697.2656 L2471.875,697.2656 L2461.4583,686.849 " fill="url(#gc106xs8edxyo1)" style="stroke:#033C73;stroke-width:1.0416666666666667;"/><text fill="#FFFFFF" font-family="Verdana" font-size="12.5" lengthAdjust="spacing" textLength="250.1587" x="2201.0417" y="708.8684">waiting list = [{handle, 0ms + 100ms}]</text><polygon fill="#2FA4E7" points="1812.7187,754.4922,1802.302,758.6589,1812.7187,762.8255,1808.552,758.6589" style="stroke:#2FA4E7;stroke-width:1.0416666666666667;"/><line style="stroke:#2FA4E7;stroke-width:3.125;" x1="1806.4687" x2="2173.2025" y1="758.6589" y2="758.6589"/><text fill="#343A40" font-family="Verdana" font-size="12.5" lengthAdjust="spacing" textLength="38.7146" x="1824.177" y="748.4192">return</text><polygon fill="#2FA4E7" points="1509.2987,794.043,1498.882,798.2096,1509.2987,802.3763,1505.132,798.2096" style="stroke:#2FA4E7;stroke-width:1.0416666666666667;"/><line style="stroke:#2FA4E7;stroke-width:3.125;" x1="1503.0487" x2="1789.802" y1="798.2096" y2="798.2096"/><text fill="#343A40" font-family="Verdana" font-size="12.5" lengthAdjust="spacing" textLength="38.7146" x="1520.757" y="787.97">return</text><polygon fill="#2FA4E7" points="431.1818,833.5938,420.7652,837.7604,431.1818,841.9271,427.0152,837.7604" style="stroke:#2FA4E7;stroke-width:1.0416666666666667;"/><line style="stroke:#2FA4E7;stroke-width:3.125;stroke-dasharray:2.0,2.0;" x1="424.9318" x2="1486.382" y1="837.7604" y2="837.7604"/><text fill="#343A40" font-family="Verdana" font-size="12.5" lengthAdjust="spacing" textLength="47.1313" x="442.6402" y="827.5208">resume</text><line style="stroke:#000000;stroke-width:1.0416666666666667;stroke-dasharray:2.0,2.0;" x1="10.4167" x2="2518.7815" y1="846.0938" y2="846.0938"/><!--SRC=[tLXRRzGu57xFh_3s0MRej2hBKuUBXBf58AsqYCiJWo8tENJC9dPaEmmLuhzpx2JEtSbCGQZaAUCv_dmktpd-bB_q5b8W4SWy0Sg3u4fy9KSNhzyV1GIVZ4hD8fPHhidHAwv1oZpJ6nu9hgL84f17X2h2eW1uJ71l2V0yqkmBa1SvnnV1rG1QIXbVBErsyzetu28BDLN_RxW4bQUCNuU2Xp4az6QnuMylNbx-y_xVopVXEt9FHLk8CO3LXYiThzVHLWekrkkKHL8eG6zZHJAGJCHeyaKaLBC4ICwuVlHtgEyHUmA4aSYvBdoAX1HzdvYIuPRo60ClVSULJkp_NNs6I9Et6OrW8EwBusFoV4UPfbS9M0XQ_UeRLu798kudcgKWdzbTxY-xApB5A7ADkpJ65uK9K_f9PHO2Lkocs6hEmtJMVj-_JrwB7KWYU41DwQW6KrI3p29oyioMYAnDda2l21WcaAA2WRL2XClcebbpIAw-vh58YEZyHrWiaD8onwnr0sxOFGuSXaDk9w5wQcWyfmosTKWZFyxWSGk22qINx7ghMylcAUs9sKwUaWyVMnOcfsPpq5fr3bUfxu9MMQdpxFY8PvoDsXkQcWJI927zDd69M967PsUfMhM97lHWiOmlcCIu363htnY6ozcApZLDyx4kdZHZqxdaf6hl4ViwjAfi9njUxIa9vjabSqumH9QSc64LsXPpl8YBz7npOyCcv_iefclGZZjkFRHzMTjD8hkCjNj_ZWFk_TI-XIfN6P9kKOobvI1ElR_JUExzb745KfSeAwpERh4anmLjXa4zBLAR61JaRwe6RLop3FqvrCNeSlbs2ccMu8Hr7kCPj_QtszhV1i2_Vzm_b0gta_sY4wQ3RvRViwTHvUuawTatsjasRS1Xbz7hScmbGcGOBJ6qLcl2XeyRdGT3Wye5LBcqiEHOUhWpMQucnTW3MvrHMszzPj3j2gxTnRP7YHcwvbXK-kYODC-NzjZ4sTD7cim-Nk9hKWmfh7oSC0vrplP3sNrYnVq_QDwz9WQD2ac1oiavnIffETEhMgGeEUgsEQ3o6huoFUNm65PB0Tdm3TZFx0doQvjYii1tjpbgNq1I1GjswzpvvTtXMIk5IH7kQLdkvM5Dr30O5n1-LTRLJ3tDoKmb9hSrfHOvM6XDYYto-wJMdH1OSnhzPugjpdc_JdXrfy8VARxyjqXGHjZGQC6jLTP4JIfUdO-egj647tXHpBaWpgSkY4dLT3xH9NwrjDVkOPNa7Un-LUGxtQjWl2h8etvcg1w_sjbVvSmavSEpEylA6N9b8WdJycHU5cR8aL6sUkN7-6Zpoetpdjpmo8mq0_EfSz2yP2ngaSwq7fkwuopUZy6UmdcPErYl0nWxmbPtXQE4MGOpv-KdcYWaDrxx-cOeWStFc8tb-dDibpi_0000]--></g></svg>
