<svg xmlns="http://www.w3.org/2000/svg" xmlns:xlink="http://www.w3.org/1999/xlink" contentStyleType="text/css" height="1158.3333px" preserveAspectRatio="none" style="width:2531px;height:1158px;" version="1.1" viewBox="0 0 2531 1158" width="2531.25px" zoomAndPan="magnify"><defs><linearGradient id="gc106xs8edxyo0" x1="50%" x2="50%" y1="0%" y2="100%"><stop offset="0%" stop-color="#59B6EC"/><stop offset="100%" stop-color="#2FA4E7"/></linearGradient><linearGradient id="gc106xs8edxyo1" x1="50%" x2="50%" y1="0%" y2="100%"><stop offset="0%" stop-color="#35638F"/><stop offset="100%" stop-color="#033C73"/></linearGradient></defs><g><rect fill="#F8F9FA" height="1135.4167" rx="4.1667" ry="4.1667" style="stroke:#868E96;stroke-width:1.0416666666666667;" width="176.5727" x="53.125" y="11.4583"/><text fill="#343A40" font-family="Verdana" font-size="12.5" font-weight="bold" lengthAdjust="spacing" textLength="28.4851" x="127.1688" y="28.2694">CPU</text><rect fill="#F8F9FA" height="1135.4167" rx="4.1667" ry="4.1667" style="stroke:#868E96;stroke-width:1.0416666666666667;" width="965.5853" x="335.6893" y="11.4583"/><text fill="#343A40" font-family="Verdana" font-size="12.5" font-weight="bold" lengthAdjust="spacing" textLength="117.2546" x="759.8546" y="28.2694">Active Functions</text><rect fill="#F8F9FA" height="1135.4167" rx="4.1667" ry="4.1667" style="stroke:#868E96;stroke-width:1.0416666666666667;" width="940.7756" x="1386.6913" y="11.4583"/><text fill="#343A40" font-family="Verdana" font-size="12.5" font-weight="bold" lengthAdjust="spacing" textLength="92.3462" x="1810.906" y="28.2694">Object Space</text><rect fill="#EDF0F2" height="885.7747" style="stroke:#BABDBF;stroke-width:1.0416666666666667;" width="10.4167" x="136.203" y="149.8047"/><rect fill="#EDF0F2" height="237.3047" style="stroke:#BABDBF;stroke-width:1.0416666666666667;" width="10.4167" x="409.3068" y="149.8047"/><rect fill="#EDF0F2" height="210.2539" style="stroke:#BABDBF;stroke-width:1.0416666666666667;" width="10.4167" x="409.3068" y="505.7617"/><rect fill="#EDF0F2" height="164.4531" style="stroke:#BABDBF;stroke-width:1.0416666666666667;" width="10.4167" x="409.3068" y="861.7513"/><rect fill="#EDF0F2" height="145.7357" style="stroke:#BABDBF;stroke-width:1.0416666666666667;" width="10.4167" x="814.3789" y="716.0156"/><rect fill="#EDF0F2" height="39.5508" style="stroke:#BABDBF;stroke-width:1.0416666666666667;" width="10.4167" x="1198.2981" y="426.6602"/><rect fill="#EDF0F2" height="566.2109" style="stroke:#BABDBF;stroke-width:1.0416666666666667;" width="10.4167" x="1487.4237" y="149.8047"/><rect fill="#EDF0F2" height="876.3997" style="stroke:#BABDBF;stroke-width:1.0416666666666667;" width="10.4167" x="1790.8437" y="149.8047"/><rect fill="#EDF0F2" height="876.3997" style="stroke:#BABDBF;stroke-width:1.0416666666666667;" width="10.4167" x="2174.2442" y="149.8047"/><line style="stroke:#BABDBF;stroke-width:1.0416666666666667;stroke-dasharray:5.0,5.0;" x1="140.625" x2="140.625" y1="139.388" y2="1044.9544"/><line style="stroke:#BABDBF;stroke-width:1.0416666666666667;stroke-dasharray:5.0,5.0;" x1="413.8143" x2="413.8143" y1="139.388" y2="1044.9544"/><line style="stroke:#BABDBF;stroke-width:1.0416666666666667;stroke-dasharray:5.0,5.0;" x1="819.0806" x2="819.0806" y1="139.388" y2="1044.9544"/><line style="stroke:#BABDBF;stroke-width:1.0416666666666667;stroke-dasharray:5.0,5.0;" x1="1202.6133" x2="1202.6133" y1="139.388" y2="1044.9544"/><line style="stroke:#BABDBF;stroke-width:1.0416666666666667;stroke-dasharray:5.0,5.0;" x1="1491.8996" x2="1491.8996" y1="139.388" y2="1044.9544"/><line style="stroke:#BABDBF;stroke-width:1.0416666666666667;stroke-dasharray:5.0,5.0;" x1="1795.1904" x2="1795.1904" y1="139.388" y2="1044.9544"/><line style="stroke:#BABDBF;stroke-width:1.0416666666666667;stroke-dasharray:5.0,5.0;" x1="2179.3549" x2="2179.3549" y1="139.388" y2="1044.9544"/><rect fill="url(#gc106xs8edxyo0)" height="54.1016" rx="4.1667" ry="4.1667" style="stroke:#2FA4E7;stroke-width:1.0416666666666667;" width="84.906" x="98.9583" y="84.2448"/><text fill="#FFFFFF" font-family="Verdana" font-size="12.5" lengthAdjust="spacing" textLength="55.2368" x="113.7929" y="108.3476">Interrupt</text><text fill="#FFFFFF" font-family="Verdana" font-size="12.5" lengthAdjust="spacing" textLength="59.906" x="111.4583" y="122.8984">controller</text><rect fill="url(#gc106xs8edxyo0)" height="54.1016" rx="4.1667" ry="4.1667" style="stroke:#2FA4E7;stroke-width:1.0416666666666667;" width="84.906" x="98.9583" y="1043.9128"/><text fill="#FFFFFF" font-family="Verdana" font-size="12.5" lengthAdjust="spacing" textLength="55.2368" x="113.7929" y="1068.0155">Interrupt</text><text fill="#FFFFFF" font-family="Verdana" font-size="12.5" lengthAdjust="spacing" textLength="59.906" x="111.4583" y="1082.5663">controller</text><rect fill="url(#gc106xs8edxyo0)" height="39.5508" rx="4.1667" ry="4.1667" style="stroke:#2FA4E7;stroke-width:1.0416666666666667;" width="65.9851" x="381.5226" y="98.7956"/><text fill="#FFFFFF" font-family="Verdana" font-size="12.5" lengthAdjust="spacing" textLength="40.9851" x="394.0226" y="122.8984">main()</text><rect fill="url(#gc106xs8edxyo0)" height="39.5508" rx="4.1667" ry="4.1667" style="stroke:#2FA4E7;stroke-width:1.0416666666666667;" width="65.9851" x="381.5226" y="1043.9128"/><text fill="#FFFFFF" font-family="Verdana" font-size="12.5" lengthAdjust="spacing" textLength="40.9851" x="394.0226" y="1068.0155">main()</text><rect fill="url(#gc106xs8edxyo0)" height="97.7539" rx="4.1667" ry="4.1667" style="stroke:#2FA4E7;stroke-width:1.0416666666666667;" width="238.5132" x="700.3306" y="40.5924"/><text fill="#FFFFFF" font-family="Verdana" font-size="12.5" lengthAdjust="spacing" textLength="56.0669" x="791.5538" y="64.6952">nop_task</text><text fill="#FFFFFF" font-family="Verdana" font-size="12.5" lengthAdjust="spacing" textLength="125.8728" x="756.6508" y="79.246">resuming_on_delay(</text><text fill="#FFFFFF" font-family="Verdana" font-size="12.5" lengthAdjust="spacing" textLength="163.8794" x="737.6475" y="93.7968">SCHEDULER_T &amp;schedule,</text><text fill="#FFFFFF" font-family="Verdana" font-size="12.5" lengthAdjust="spacing" textLength="213.5132" x="712.8306" y="108.3476">std::chrono::microseconds period,</text><text fill="#FFFFFF" font-family="Verdana" font-size="12.5" lengthAdjust="spacing" textLength="208.2092" x="715.4826" y="122.8984">volatile uint32_t&amp; resume_count)</text><rect fill="url(#gc106xs8edxyo0)" height="97.7539" rx="4.1667" ry="4.1667" style="stroke:#2FA4E7;stroke-width:1.0416666666666667;" width="238.5132" x="700.3306" y="1043.9128"/><text fill="#FFFFFF" font-family="Verdana" font-size="12.5" lengthAdjust="spacing" textLength="56.0669" x="791.5538" y="1068.0155">nop_task</text><text fill="#FFFFFF" font-family="Verdana" font-size="12.5" lengthAdjust="spacing" textLength="125.8728" x="756.6508" y="1082.5663">resuming_on_delay(</text><text fill="#FFFFFF" font-family="Verdana" font-size="12.5" lengthAdjust="spacing" textLength="163.8794" x="737.6475" y="1097.1171">SCHEDULER_T &amp;schedule,</text><text fill="#FFFFFF" font-family="Verdana" font-size="12.5" lengthAdjust="spacing" textLength="213.5132" x="712.8306" y="1111.6679">std::chrono::microseconds period,</text><text fill="#FFFFFF" font-family="Verdana" font-size="12.5" lengthAdjust="spacing" textLength="208.2092" x="715.4826" y="1126.2187">volatile uint32_t&amp; resume_count)</text><rect fill="url(#gc106xs8edxyo0)" height="39.5508" rx="4.1667" ry="4.1667" style="stroke:#2FA4E7;stroke-width:1.0416666666666667;" width="103.8696" x="1151.5717" y="98.7956"/><text fill="#FFFFFF" font-family="Verdana" font-size="12.5" lengthAdjust="spacing" textLength="78.8696" x="1164.0717" y="122.8984">isr_handler()</text><rect fill="url(#gc106xs8edxyo0)" height="39.5508" rx="4.1667" ry="4.1667" style="stroke:#2FA4E7;stroke-width:1.0416666666666667;" width="103.8696" x="1151.5717" y="1043.9128"/><text fill="#FFFFFF" font-family="Verdana" font-size="12.5" lengthAdjust="spacing" textLength="78.8696" x="1164.0717" y="1068.0155">isr_handler()</text><rect fill="url(#gc106xs8edxyo0)" height="39.5508" rx="4.1667" ry="4.1667" style="stroke:#2FA4E7;stroke-width:1.0416666666666667;" width="120.2148" x="1432.5246" y="98.7956"/><text fill="#FFFFFF" font-family="Verdana" font-size="12.5" lengthAdjust="spacing" textLength="95.2148" x="1445.0246" y="122.8984">C++ Awaitable</text><rect fill="url(#gc106xs8edxyo0)" height="39.5508" rx="4.1667" ry="4.1667" style="stroke:#2FA4E7;stroke-width:1.0416666666666667;" width="120.2148" x="1432.5246" y="1043.9128"/><text fill="#FFFFFF" font-family="Verdana" font-size="12.5" lengthAdjust="spacing" textLength="95.2148" x="1445.0246" y="1068.0155">C++ Awaitable</text><rect fill="url(#gc106xs8edxyo0)" height="39.5508" rx="4.1667" ry="4.1667" style="stroke:#2FA4E7;stroke-width:1.0416666666666667;" width="180.8899" x="1705.6071" y="98.7956"/><text fill="#FFFFFF" font-family="Verdana" font-size="12.5" lengthAdjust="spacing" textLength="155.8899" x="1718.1071" y="122.8984">scheduler_delay&lt;timer&gt;</text><rect fill="url(#gc106xs8edxyo0)" height="39.5508" rx="4.1667" ry="4.1667" style="stroke:#2FA4E7;stroke-width:1.0416666666666667;" width="180.8899" x="1705.6071" y="1043.9128"/><text fill="#FFFFFF" font-family="Verdana" font-size="12.5" lengthAdjust="spacing" textLength="155.8899" x="1718.1071" y="1068.0155">scheduler_delay&lt;timer&gt;</text><rect fill="url(#gc106xs8edxyo0)" height="39.5508" rx="4.1667" ry="4.1667" style="stroke:#2FA4E7;stroke-width:1.0416666666666667;" width="200.1953" x="2081.4382" y="94.6289"/><rect fill="url(#gc106xs8edxyo0)" height="39.5508" rx="4.1667" ry="4.1667" style="stroke:#2FA4E7;stroke-width:1.0416666666666667;" width="200.1953" x="2077.2715" y="98.7956"/><text fill="#FFFFFF" font-family="Verdana" font-size="12.5" lengthAdjust="spacing" textLength="175.1953" x="2089.7715" y="122.8984">static_list&lt;schedule_entry&gt;</text><rect fill="url(#gc106xs8edxyo0)" height="39.5508" rx="4.1667" ry="4.1667" style="stroke:#2FA4E7;stroke-width:1.0416666666666667;" width="200.1953" x="2081.4382" y="1043.9128"/><rect fill="url(#gc106xs8edxyo0)" height="39.5508" rx="4.1667" ry="4.1667" style="stroke:#2FA4E7;stroke-width:1.0416666666666667;" width="200.1953" x="2077.2715" y="1048.0794"/><text fill="#FFFFFF" font-family="Verdana" font-size="12.5" lengthAdjust="spacing" textLength="175.1953" x="2089.7715" y="1072.1822">static_list&lt;schedule_entry&gt;</text><rect fill="#EDF0F2" height="885.7747" style="stroke:#BABDBF;stroke-width:1.0416666666666667;" width="10.4167" x="136.203" y="149.8047"/><rect fill="#EDF0F2" height="237.3047" style="stroke:#BABDBF;stroke-width:1.0416666666666667;" width="10.4167" x="409.3068" y="149.8047"/><rect fill="#EDF0F2" height="210.2539" style="stroke:#BABDBF;stroke-width:1.0416666666666667;" width="10.4167" x="409.3068" y="505.7617"/><rect fill="#EDF0F2" height="164.4531" style="stroke:#BABDBF;stroke-width:1.0416666666666667;" width="10.4167" x="409.3068" y="861.7513"/><rect fill="#EDF0F2" height="145.7357" style="stroke:#BABDBF;stroke-width:1.0416666666666667;" width="10.4167" x="814.3789" y="716.0156"/><rect fill="#EDF0F2" height="39.5508" style="stroke:#BABDBF;stroke-width:1.0416666666666667;" width="10.4167" x="1198.2981" y="426.6602"/><rect fill="#EDF0F2" height="566.2109" style="stroke:#BABDBF;stroke-width:1.0416666666666667;" width="10.4167" x="1487.4237" y="149.8047"/><rect fill="#EDF0F2" height="876.3997" style="stroke:#BABDBF;stroke-width:1.0416666666666667;" width="10.4167" x="1790.8437" y="149.8047"/><rect fill="#EDF0F2" height="876.3997" style="stroke:#BABDBF;stroke-width:1.0416666666666667;" width="10.4167" x="2174.2442" y="149.8047"/><line style="stroke:#000000;stroke-width:1.0416666666666667;stroke-dasharray:2.0,2.0;" x1="10.4167" x2="2518.7815" y1="150.8464" y2="150.8464"/><polygon fill="#2FA4E7" points="1778.3437,182.0638,1788.7604,186.2305,1778.3437,190.3971,1782.5104,186.2305" style="stroke:#2FA4E7;stroke-width:1.0416666666666667;"/><line style="stroke:#2FA4E7;stroke-width:3.125;" x1="419.7235" x2="1784.5937" y1="186.2305" y2="186.2305"/><text fill="#343A40" font-family="Verdana" font-size="12.5" lengthAdjust="spacing" textLength="92.4316" x="432.2235" y="175.9908">resume(now())</text><path d="M1806.25,161.263 L1806.25,187.3047 A4.1667,4.1667 0 0 0 1810.4167,191.4714 L1944.7917,191.4714 A4.1667,4.1667 0 0 0 1948.9583,187.3047 L1948.9583,167.513 L1938.5417,157.0964 L1810.4167,157.0964 A4.1667,4.1667 0 0 0 1806.25,161.263 " fill="url(#gc106xs8edxyo1)" style="stroke:#033C73;stroke-width:1.0416666666666667;"/><path d="M1938.5417,157.0964 L1938.5417,165.4297 A2.0833,2.0833 0 0 0 1940.625,167.513 L1948.9583,167.513 L1938.5417,157.0964 " fill="url(#gc106xs8edxyo1)" style="stroke:#033C73;stroke-width:1.0416666666666667;"/><text fill="#FFFFFF" font-family="Verdana" font-size="12.5" lengthAdjust="spacing" textLength="110.7178" x="1817.7083" y="179.1158">now() = 9*100ms</text><polygon fill="#2FA4E7" points="2161.7442,224.7396,2172.1608,228.9063,2161.7442,233.0729,2165.9108,228.9063" style="stroke:#2FA4E7;stroke-width:1.0416666666666667;"/><line style="stroke:#2FA4E7;stroke-width:3.125;" x1="1801.2604" x2="2167.9942" y1="228.9063" y2="228.9063"/><text fill="#343A40" font-family="Verdana" font-size="12.5" lengthAdjust="spacing" textLength="94.2688" x="1813.7604" y="218.6666">waiting.begin()</text><polygon fill="#2FA4E7" points="1812.7187,264.2904,1802.302,268.457,1812.7187,272.6237,1808.552,268.457" style="stroke:#2FA4E7;stroke-width:1.0416666666666667;"/><line style="stroke:#2FA4E7;stroke-width:3.125;" x1="1806.4687" x2="2173.2025" y1="268.457" y2="268.457"/><text fill="#343A40" font-family="Verdana" font-size="12.5" lengthAdjust="spacing" textLength="206.0669" x="1824.177" y="258.2174">i = {handle, 9*100ms + 100ms}</text><polygon fill="#2FA4E7" points="431.1818,303.8411,420.7652,308.0078,431.1818,312.1745,427.0152,308.0078" style="stroke:#2FA4E7;stroke-width:1.0416666666666667;"/><line style="stroke:#2FA4E7;stroke-width:3.125;" x1="424.9318" x2="1789.802" y1="308.0078" y2="308.0078"/><text fill="#343A40" font-family="Verdana" font-size="12.5" lengthAdjust="spacing" textLength="194.0063" x="442.6402" y="297.7681">return true, 9*100ms + 100ms</text><polygon fill="#2FA4E7" points="158.078,343.3919,147.6613,347.5586,158.078,351.7253,153.9113,347.5586" style="stroke:#2FA4E7;stroke-width:1.0416666666666667;"/><line style="stroke:#2FA4E7;stroke-width:3.125;" x1="151.828" x2="408.2652" y1="347.5586" y2="347.5586"/><text fill="#343A40" font-family="Verdana" font-size="12.5" lengthAdjust="spacing" textLength="227.2705" x="169.5363" y="337.3189">timer deadline = 9*100ms + 100ms</text><polygon fill="#2FA4E7" points="158.078,382.9427,147.6613,387.1094,158.078,391.276,153.9113,387.1094" style="stroke:#2FA4E7;stroke-width:1.0416666666666667;"/><line style="stroke:#2FA4E7;stroke-width:3.125;" x1="151.828" x2="413.4735" y1="387.1094" y2="387.1094"/><text fill="#343A40" font-family="Verdana" font-size="12.5" lengthAdjust="spacing" textLength="55.4138" x="169.5363" y="376.8697">wfi enter</text><polygon fill="#2FA4E7" points="1185.7981,422.4935,1196.2148,426.6602,1185.7981,430.8268,1189.9648,426.6602" style="stroke:#2FA4E7;stroke-width:1.0416666666666667;"/><line style="stroke:#2FA4E7;stroke-width:3.125;" x1="146.6197" x2="1192.0481" y1="426.6602" y2="426.6602"/><text fill="#343A40" font-family="Verdana" font-size="12.5" lengthAdjust="spacing" textLength="228.5156" x="159.1197" y="416.4205">timer interrupt = 9*100ms + 100ms</text><polygon fill="#2FA4E7" points="158.078,462.0443,147.6613,466.2109,158.078,470.3776,153.9113,466.2109" style="stroke:#2FA4E7;stroke-width:1.0416666666666667;"/><line style="stroke:#2FA4E7;stroke-width:3.125;" x1="151.828" x2="1202.4648" y1="466.2109" y2="466.2109"/><text fill="#343A40" font-family="Verdana" font-size="12.5" lengthAdjust="spacing" textLength="23.4619" x="169.5363" y="455.9713">exit</text><polygon fill="#2FA4E7" points="396.8068,501.5951,407.2235,505.7617,396.8068,509.9284,400.9735,505.7617" style="stroke:#2FA4E7;stroke-width:1.0416666666666667;"/><line style="stroke:#2FA4E7;stroke-width:3.125;" x1="146.6197" x2="403.0568" y1="505.7617" y2="505.7617"/><text fill="#343A40" font-family="Verdana" font-size="12.5" lengthAdjust="spacing" textLength="45.5322" x="159.1197" y="495.5221">wfi exit</text><polygon fill="#2FA4E7" points="1778.3437,544.2708,1788.7604,548.4375,1778.3437,552.6042,1782.5104,548.4375" style="stroke:#2FA4E7;stroke-width:1.0416666666666667;"/><line style="stroke:#2FA4E7;stroke-width:3.125;" x1="419.7235" x2="1784.5937" y1="548.4375" y2="548.4375"/><text fill="#343A40" font-family="Verdana" font-size="12.5" lengthAdjust="spacing" textLength="92.4316" x="432.2235" y="538.1978">resume(now())</text><path d="M1806.25,523.4701 L1806.25,549.5117 A4.1667,4.1667 0 0 0 1810.4167,553.6784 L1952.0833,553.6784 A4.1667,4.1667 0 0 0 1956.25,549.5117 L1956.25,529.7201 L1945.8333,519.3034 L1810.4167,519.3034 A4.1667,4.1667 0 0 0 1806.25,523.4701 " fill="url(#gc106xs8edxyo1)" style="stroke:#033C73;stroke-width:1.0416666666666667;"/><path d="M1945.8333,519.3034 L1945.8333,527.6367 A2.0833,2.0833 0 0 0 1947.9167,529.7201 L1956.25,529.7201 L1945.8333,519.3034 " fill="url(#gc106xs8edxyo1)" style="stroke:#033C73;stroke-width:1.0416666666666667;"/><text fill="#FFFFFF" font-family="Verdana" font-size="12.5" lengthAdjust="spacing" textLength="118.6707" x="1817.7083" y="541.3228">now() = 10*100ms</text><polygon fill="#2FA4E7" points="2161.7442,586.9466,2172.1608,591.1133,2161.7442,595.2799,2165.9108,591.1133" style="stroke:#2FA4E7;stroke-width:1.0416666666666667;"/><line style="stroke:#2FA4E7;stroke-width:3.125;" x1="1801.2604" x2="2167.9942" y1="591.1133" y2="591.1133"/><text fill="#343A40" font-family="Verdana" font-size="12.5" lengthAdjust="spacing" textLength="94.2688" x="1813.7604" y="580.8736">waiting.begin()</text><polygon fill="#2FA4E7" points="1812.7187,626.4974,1802.302,630.6641,1812.7187,634.8307,1808.552,630.6641" style="stroke:#2FA4E7;stroke-width:1.0416666666666667;"/><line style="stroke:#2FA4E7;stroke-width:3.125;" x1="1806.4687" x2="2173.2025" y1="630.6641" y2="630.6641"/><text fill="#343A40" font-family="Verdana" font-size="12.5" lengthAdjust="spacing" textLength="206.0669" x="1824.177" y="620.4244">i = {handle, 9*100ms + 100ms}</text><polygon fill="#2FA4E7" points="2161.7442,669.1732,2172.1608,673.3398,2161.7442,677.5065,2165.9108,673.3398" style="stroke:#2FA4E7;stroke-width:1.0416666666666667;"/><line style="stroke:#2FA4E7;stroke-width:3.125;" x1="1801.2604" x2="2167.9942" y1="673.3398" y2="673.3398"/><text fill="#343A40" font-family="Verdana" font-size="12.5" lengthAdjust="spacing" textLength="47.9187" x="1813.7604" y="663.1002">erase(i)</text><path d="M2189.5833,648.3724 L2189.5833,674.4141 A4.1667,4.1667 0 0 0 2193.75,678.5807 L2313.5417,678.5807 A4.1667,4.1667 0 0 0 2317.7083,674.4141 L2317.7083,654.6224 L2307.2917,644.2057 L2193.75,644.2057 A4.1667,4.1667 0 0 0 2189.5833,648.3724 " fill="url(#gc106xs8edxyo1)" style="stroke:#033C73;stroke-width:1.0416666666666667;"/><path d="M2307.2917,644.2057 L2307.2917,652.5391 A2.0833,2.0833 0 0 0 2309.375,654.6224 L2317.7083,654.6224 L2307.2917,644.2057 " fill="url(#gc106xs8edxyo1)" style="stroke:#033C73;stroke-width:1.0416666666666667;"/><text fill="#FFFFFF" font-family="Verdana" font-size="12.5" lengthAdjust="spacing" textLength="96.0938" x="2201.0417" y="666.2252">waiting list = []</text><polygon fill="#2FA4E7" points="836.2539,711.849,825.8372,716.0156,836.2539,720.1823,832.0872,716.0156" style="stroke:#2FA4E7;stroke-width:1.0416666666666667;"/><line style="stroke:#2FA4E7;stroke-width:3.125;" x1="830.0039" x2="1789.802" y1="716.0156" y2="716.0156"/><text fill="#343A40" font-family="Verdana" font-size="12.5" lengthAdjust="spacing" textLength="103.4607" x="847.7122" y="705.776">handle.resume()</text><line style="stroke:#2FA4E7;stroke-width:3.125;" x1="824.7955" x2="868.5455" y1="755.5664" y2="755.5664"/><line style="stroke:#2FA4E7;stroke-width:3.125;" x1="868.5455" x2="868.5455" y1="755.5664" y2="769.1081"/><line style="stroke:#2FA4E7;stroke-width:3.125;" x1="825.8372" x2="868.5455" y1="769.1081" y2="769.1081"/><polygon fill="#2FA4E7" points="836.2539,764.9414,825.8372,769.1081,836.2539,773.2747,832.0872,769.1081" style="stroke:#2FA4E7;stroke-width:1.0416666666666667;"/><text fill="#343A40" font-family="Verdana" font-size="12.5" lengthAdjust="spacing" textLength="141.394" x="837.2955" y="745.3267">resume_count = 9 + 1</text><line style="stroke:#2FA4E7;stroke-width:3.125;" x1="824.7955" x2="868.5455" y1="808.6589" y2="808.6589"/><line style="stroke:#2FA4E7;stroke-width:3.125;" x1="868.5455" x2="868.5455" y1="808.6589" y2="822.2005"/><line style="stroke:#2FA4E7;stroke-width:3.125;" x1="825.8372" x2="868.5455" y1="822.2005" y2="822.2005"/><polygon fill="#2FA4E7" points="836.2539,818.0339,825.8372,822.2005,836.2539,826.3672,832.0872,822.2005" style="stroke:#2FA4E7;stroke-width:1.0416666666666667;"/><text fill="#343A40" font-family="Verdana" font-size="12.5" lengthAdjust="spacing" textLength="122.8882" x="837.2955" y="798.4192">run until competion</text><polygon fill="#2FA4E7" points="431.1818,857.5846,420.7652,861.7513,431.1818,865.918,427.0152,861.7513" style="stroke:#2FA4E7;stroke-width:1.0416666666666667;"/><line style="stroke:#2FA4E7;stroke-width:3.125;" x1="424.9318" x2="818.5455" y1="861.7513" y2="861.7513"/><text fill="#343A40" font-family="Verdana" font-size="12.5" lengthAdjust="spacing" textLength="59.4849" x="442.6402" y="851.5116">co_return</text><polygon fill="#2FA4E7" points="1778.3437,900.2604,1788.7604,904.4271,1778.3437,908.5938,1782.5104,904.4271" style="stroke:#2FA4E7;stroke-width:1.0416666666666667;"/><line style="stroke:#2FA4E7;stroke-width:3.125;" x1="419.7235" x2="1784.5937" y1="904.4271" y2="904.4271"/><text fill="#343A40" font-family="Verdana" font-size="12.5" lengthAdjust="spacing" textLength="92.4316" x="432.2235" y="894.1874">resume(now())</text><path d="M1806.25,879.4596 L1806.25,905.5013 A4.1667,4.1667 0 0 0 1810.4167,909.668 L1952.0833,909.668 A4.1667,4.1667 0 0 0 1956.25,905.5013 L1956.25,885.7096 L1945.8333,875.293 L1810.4167,875.293 A4.1667,4.1667 0 0 0 1806.25,879.4596 " fill="url(#gc106xs8edxyo1)" style="stroke:#033C73;stroke-width:1.0416666666666667;"/><path d="M1945.8333,875.293 L1945.8333,883.6263 A2.0833,2.0833 0 0 0 1947.9167,885.7096 L1956.25,885.7096 L1945.8333,875.293 " fill="url(#gc106xs8edxyo1)" style="stroke:#033C73;stroke-width:1.0416666666666667;"/><text fill="#FFFFFF" font-family="Verdana" font-size="12.5" lengthAdjust="spacing" textLength="118.6707" x="1817.7083" y="897.3124">now() = 10*100ms</text><polygon fill="#2FA4E7" points="2161.7442,942.9362,2172.1608,947.1029,2161.7442,951.2695,2165.9108,947.1029" style="stroke:#2FA4E7;stroke-width:1.0416666666666667;"/><line style="stroke:#2FA4E7;stroke-width:3.125;" x1="1801.2604" x2="2167.9942" y1="947.1029" y2="947.1029"/><text fill="#343A40" font-family="Verdana" font-size="12.5" lengthAdjust="spacing" textLength="94.2688" x="1813.7604" y="936.8632">waiting.begin()</text><polygon fill="#2FA4E7" points="1812.7187,982.487,1802.302,986.6536,1812.7187,990.8203,1808.552,986.6536" style="stroke:#2FA4E7;stroke-width:1.0416666666666667;"/><line style="stroke:#2FA4E7;stroke-width:3.125;" x1="1806.4687" x2="2173.2025" y1="986.6536" y2="986.6536"/><text fill="#343A40" font-family="Verdana" font-size="12.5" lengthAdjust="spacing" textLength="82.8613" x="1824.177" y="976.414">waiting.end()</text><polygon fill="#2FA4E7" points="425.9735,1022.0378,415.5568,1026.2044,425.9735,1030.3711,421.8068,1026.2044" style="stroke:#2FA4E7;stroke-width:1.0416666666666667;"/><line style="stroke:#2FA4E7;stroke-width:3.125;" x1="419.7235" x2="1795.0104" y1="1026.2044" y2="1026.2044"/><text fill="#343A40" font-family="Verdana" font-size="12.5" lengthAdjust="spacing" textLength="120.4712" x="437.4318" y="1015.9648">return false, empty</text><!--SRC=[tLXRRzGu57xFh_3s0MRej2hBKuUBXBf58AsqYCiJWo8tENJC9dPaEmmLuhzpx2JEtSbCGQZaAUCv_dmktpd-bB_q5b8W4SWy0Sg3u4fy9KSNhzyV1GIVZ4hD8fPHhidHAwv1oZpJ6nu9hgL84f17X2h2eW1uJ71l2V0yqkmBa1SvnnV1rG1QIXbVBErsyzetu28BDLN_RxW4bQUCNuU2Xp4az6QnuMylNbx-y_xVopVXEt9FHLk8CO3LXYiThzVHLWekrkkKHL8eG6zZHJAGJCHeyaKaLBC4ICwuVlHtgEyHUmA4aSYvBdoAX1HzdvYIuPRo60ClVSULJkp_NNs6I9Et6OrW8EwBusFoV4UPfbS9M0XQ_UeRLu798kudcgKWdzbTxY-xApB5A7ADkpJ65uK9K_f9PHO2Lkocs6hEmtJMVj-_JrwB7KWYU41DwQW6KrI3p29oyioMYAnDda2l21WcaAA2WRL2XClcebbpIAw-vh58YEZyHrWiaD8onwnr0sxOFGuSXaDk9w5wQcWyfmosTKWZFyxWSGk22qINx7ghMylcAUs9sKwUaWyVMnOcfsPpq5fr3bUfxu9MMQdpxFY8PvoDsXkQcWJI927zDd69M967PsUfMhM97lHWiOmlcCIu363htnY6ozcApZLDyx4kdZHZqxdaf6hl4ViwjAfi9njUxIa9vjabSqumH9QSc64LsXPpl8YBz7npOyCcv_iefclGZZjkFRHzMTjD8hkCjNj_ZWFk_TI-XIfN6P9kKOobvI1ElR_JUExzb745KfSeAwpERh4anmLjXa4zBLAR61JaRwe6RLop3FqvrCNeSlbs2ccMu8Hr7kCPj_QtszhV1i2_Vzm_b0gta_sY4wQ3RvRViwTHvUuawTatsjasRS1Xbz7hScmbGcGOBJ6qLcl2XeyRdGT3Wye5LBcqiEHOUhWpMQucnTW3MvrHMszzPj3j2gxTnRP7YHcwvbXK-kYODC-NzjZ4sTD7cim-Nk9hKWmfh7oSC0vrplP3sNrYnVq_QDwz9WQD2ac1oiavnIffETEhMgGeEUgsEQ3o6huoFUNm65PB0Tdm3TZFx0doQvjYii1tjpbgNq1I1GjswzpvvTtXMIk5IH7kQLdkvM5Dr30O5n1-LTRLJ3tDoKmb9hSrfHOvM6XDYYto-wJMdH1OSnhzPugjpdc_JdXrfy8VARxyjqXGHjZGQC6jLTP4JIfUdO-egj647tXHpBaWpgSkY4dLT3xH9NwrjDVkOPNa7Un-LUGxtQjWl2h8etvcg1w_sjbVvSmavSEpEylA6N9b8WdJycHU5cR8aL6sUkN7-6Zpoetpdjpmo8mq0_EfSz2yP2ngaSwq7fkwuopUZy6UmdcPErYl0nWxmbPtXQE4MGOpv-KdcYWaDrxx-cOeWStFc8tb-dDibpi_0000]--></g></svg>
