<svg xmlns="http://www.w3.org/2000/svg" xmlns:xlink="http://www.w3.org/1999/xlink" contentStyleType="text/css" height="1617.7083px" preserveAspectRatio="none" style="width:1255px;height:1617px;" version="1.1" viewBox="0 0 1255 1617" width="1255.2083px" zoomAndPan="magnify"><defs><linearGradient id="gajqqwf9elmg70" x1="50%" x2="50%" y1="0%" y2="100%"><stop offset="0%" stop-color="#59B6EC"/><stop offset="100%" stop-color="#2FA4E7"/></linearGradient><linearGradient id="gajqqwf9elmg71" x1="50%" x2="50%" y1="0%" y2="100%"><stop offset="0%" stop-color="#35638F"/><stop offset="100%" stop-color="#033C73"/></linearGradient></defs><g><rect fill="#F8F9FA" height="1595.4753" rx="4.1667" ry="4.1667" style="stroke:#868E96;stroke-width:1.0416666666666667;" width="424.3327" x="53.125" y="11.4583"/><text fill="#343A40" font-family="Verdana" font-size="12.5" font-weight="bold" lengthAdjust="spacing" textLength="109.8145" x="210.3841" y="28.2694">Active Function</text><rect fill="#F8F9FA" height="1595.4753" rx="4.1667" ry="4.1667" style="stroke:#868E96;stroke-width:1.0416666666666667;" width="171.3542" x="562.8743" y="11.4583"/><text fill="#343A40" font-family="Verdana" font-size="12.5" font-weight="bold" lengthAdjust="spacing" textLength="30.1208" x="611.4329" y="28.2694">C++</text><text fill="#343A40" font-family="Verdana" font-size="12.5" font-weight="bold" lengthAdjust="spacing" textLength="74.2371" x="611.4329" y="42.8202">Co-routine</text><text fill="#343A40" font-family="Verdana" font-size="12.5" font-weight="bold" lengthAdjust="spacing" textLength="56.5247" x="611.4329" y="57.371">Support</text><rect fill="#F8F9FA" height="1595.4753" rx="4.1667" ry="4.1667" style="stroke:#868E96;stroke-width:1.0416666666666667;" width="156.779" x="819.6452" y="11.4583"/><text fill="#343A40" font-family="Verdana" font-size="12.5" font-weight="bold" lengthAdjust="spacing" textLength="77.4475" x="859.3109" y="28.2694">Abstracted</text><text fill="#343A40" font-family="Verdana" font-size="12.5" font-weight="bold" lengthAdjust="spacing" textLength="19.6289" x="859.3109" y="42.8202">OS</text><rect fill="#F8F9FA" height="1595.4753" rx="4.1667" ry="4.1667" style="stroke:#868E96;stroke-width:1.0416666666666667;" width="176.5727" x="1061.8408" y="11.4583"/><text fill="#343A40" font-family="Verdana" font-size="12.5" font-weight="bold" lengthAdjust="spacing" textLength="28.4851" x="1135.8846" y="28.2694">CPU</text><rect fill="#EDF0F2" height="57.2266" style="stroke:#BABDBF;stroke-width:1.0416666666666667;" width="10.4167" x="165.8112" y="209.1471"/><rect fill="#EDF0F2" height="86.3607" style="stroke:#BABDBF;stroke-width:1.0416666666666667;" width="10.4167" x="165.8112" y="572.3633"/><rect fill="#EDF0F2" height="53.0924" style="stroke:#BABDBF;stroke-width:1.0416666666666667;" width="10.4167" x="165.8112" y="1089.6159"/><rect fill="#EDF0F2" height="65.5924" style="stroke:#BABDBF;stroke-width:1.0416666666666667;" width="10.4167" x="165.8112" y="1473.6979"/><rect fill="#EDF0F2" height="220.638" style="stroke:#BABDBF;stroke-width:1.0416666666666667;" width="10.4167" x="379.0192" y="266.3737"/><rect fill="#EDF0F2" height="163.4115" style="stroke:#BABDBF;stroke-width:1.0416666666666667;" width="10.4167" x="379.0192" y="798.1771"/><rect fill="#EDF0F2" height="148.8607" style="stroke:#BABDBF;stroke-width:1.0416666666666667;" width="10.4167" x="379.0192" y="1282.1615"/><rect fill="#EDF0F2" height="311.1654" style="stroke:#BABDBF;stroke-width:1.0416666666666667;" width="10.4167" x="643.3431" y="487.0117"/><rect fill="#EDF0F2" height="320.5729" style="stroke:#BABDBF;stroke-width:1.0416666666666667;" width="10.4167" x="643.3431" y="961.5885"/><rect fill="#EDF0F2" height="1372.819" style="stroke:#BABDBF;stroke-width:1.0416666666666667;" width="10.4167" x="892.8263" y="166.4714"/><rect fill="#EDF0F2" height="1404.0365" style="stroke:#BABDBF;stroke-width:1.0416666666666667;" width="10.4167" x="1144.9188" y="135.2539"/><rect fill="none" height="513.0859" rx="4.1667" ry="4.1667" style="stroke:#59B6EC;stroke-width:1.0416666666666667;" width="1197.7885" x="46.875" y="587.9883"/><line style="stroke:#BABDBF;stroke-width:1.0416666666666667;stroke-dasharray:5.0,5.0;" x1="170.8333" x2="170.8333" y1="124.8372" y2="1548.6654"/><line style="stroke:#BABDBF;stroke-width:1.0416666666666667;stroke-dasharray:5.0,5.0;" x1="383.7056" x2="383.7056" y1="124.8372" y2="1548.6654"/><line style="stroke:#BABDBF;stroke-width:1.0416666666666667;stroke-dasharray:5.0,5.0;" x1="648.291" x2="648.291" y1="124.8372" y2="1548.6654"/><line style="stroke:#BABDBF;stroke-width:1.0416666666666667;stroke-dasharray:5.0,5.0;" x1="897.7702" x2="897.7702" y1="124.8372" y2="1548.6654"/><line style="stroke:#BABDBF;stroke-width:1.0416666666666667;stroke-dasharray:5.0,5.0;" x1="1149.3408" x2="1149.3408" y1="124.8372" y2="1548.6654"/><rect fill="url(#gajqqwf9elmg70)" height="54.1016" rx="4.1667" ry="4.1667" style="stroke:#2FA4E7;stroke-width:1.0416666666666667;" width="144.1223" x="98.9583" y="69.694"/><text fill="#FFFFFF" font-family="Verdana" font-size="12.5" lengthAdjust="spacing" textLength="119.1223" x="111.4583" y="93.7968">Standard Function:</text><text fill="#FFFFFF" font-family="Verdana" font-size="12.5" lengthAdjust="spacing" textLength="40.9851" x="150.5269" y="108.3476">main()</text><rect fill="url(#gajqqwf9elmg70)" height="54.1016" rx="4.1667" ry="4.1667" style="stroke:#2FA4E7;stroke-width:1.0416666666666667;" width="144.1223" x="98.9583" y="1547.6237"/><text fill="#FFFFFF" font-family="Verdana" font-size="12.5" lengthAdjust="spacing" textLength="119.1223" x="111.4583" y="1571.7265">Standard Function:</text><text fill="#FFFFFF" font-family="Verdana" font-size="12.5" lengthAdjust="spacing" textLength="40.9851" x="150.5269" y="1586.2773">main()</text><rect fill="url(#gajqqwf9elmg70)" height="54.1016" rx="4.1667" ry="4.1667" style="stroke:#2FA4E7;stroke-width:1.0416666666666667;" width="94.7937" x="336.8306" y="69.694"/><text fill="#FFFFFF" font-family="Verdana" font-size="12.5" lengthAdjust="spacing" textLength="69.7937" x="349.3306" y="93.7968">Co-routine:</text><text fill="#FFFFFF" font-family="Verdana" font-size="12.5" lengthAdjust="spacing" textLength="59.9182" x="354.2684" y="108.3476">periodic()</text><rect fill="url(#gajqqwf9elmg70)" height="54.1016" rx="4.1667" ry="4.1667" style="stroke:#2FA4E7;stroke-width:1.0416666666666667;" width="94.7937" x="336.8306" y="1547.6237"/><text fill="#FFFFFF" font-family="Verdana" font-size="12.5" lengthAdjust="spacing" textLength="69.7937" x="349.3306" y="1571.7265">Co-routine:</text><text fill="#FFFFFF" font-family="Verdana" font-size="12.5" lengthAdjust="spacing" textLength="59.9182" x="354.2684" y="1586.2773">periodic()</text><rect fill="url(#gajqqwf9elmg70)" height="54.1016" rx="4.1667" ry="4.1667" style="stroke:#2FA4E7;stroke-width:1.0416666666666667;" width="79.6875" x="608.7077" y="69.694"/><text fill="#FFFFFF" font-family="Verdana" font-size="12.5" lengthAdjust="spacing" textLength="53.2715" x="621.9157" y="93.7968">keyword</text><text fill="#FFFFFF" font-family="Verdana" font-size="12.5" lengthAdjust="spacing" textLength="54.6875" x="621.2077" y="108.3476">co_await</text><rect fill="url(#gajqqwf9elmg70)" height="54.1016" rx="4.1667" ry="4.1667" style="stroke:#2FA4E7;stroke-width:1.0416666666666667;" width="79.6875" x="608.7077" y="1547.6237"/><text fill="#FFFFFF" font-family="Verdana" font-size="12.5" lengthAdjust="spacing" textLength="53.2715" x="621.9157" y="1571.7265">keyword</text><text fill="#FFFFFF" font-family="Verdana" font-size="12.5" lengthAdjust="spacing" textLength="54.6875" x="621.2077" y="1586.2773">co_await</text><rect fill="url(#gajqqwf9elmg70)" height="39.5508" rx="4.1667" ry="4.1667" style="stroke:#2FA4E7;stroke-width:1.0416666666666667;" width="65.1123" x="865.4785" y="84.2448"/><text fill="#FFFFFF" font-family="Verdana" font-size="12.5" lengthAdjust="spacing" textLength="40.1123" x="877.9785" y="108.3476">Kernel</text><rect fill="url(#gajqqwf9elmg70)" height="39.5508" rx="4.1667" ry="4.1667" style="stroke:#2FA4E7;stroke-width:1.0416666666666667;" width="65.1123" x="865.4785" y="1547.6237"/><text fill="#FFFFFF" font-family="Verdana" font-size="12.5" lengthAdjust="spacing" textLength="40.1123" x="877.9785" y="1571.7265">Kernel</text><rect fill="url(#gajqqwf9elmg70)" height="54.1016" rx="4.1667" ry="4.1667" style="stroke:#2FA4E7;stroke-width:1.0416666666666667;" width="84.906" x="1107.6742" y="69.694"/><text fill="#FFFFFF" font-family="Verdana" font-size="12.5" lengthAdjust="spacing" textLength="55.2368" x="1122.5087" y="93.7968">Interrupt</text><text fill="#FFFFFF" font-family="Verdana" font-size="12.5" lengthAdjust="spacing" textLength="59.906" x="1120.1742" y="108.3476">controller</text><rect fill="url(#gajqqwf9elmg70)" height="54.1016" rx="4.1667" ry="4.1667" style="stroke:#2FA4E7;stroke-width:1.0416666666666667;" width="84.906" x="1107.6742" y="1547.6237"/><text fill="#FFFFFF" font-family="Verdana" font-size="12.5" lengthAdjust="spacing" textLength="55.2368" x="1122.5087" y="1571.7265">Interrupt</text><text fill="#FFFFFF" font-family="Verdana" font-size="12.5" lengthAdjust="spacing" textLength="59.906" x="1120.1742" y="1586.2773">controller</text><rect fill="#EDF0F2" height="57.2266" style="stroke:#BABDBF;stroke-width:1.0416666666666667;" width="10.4167" x="165.8112" y="209.1471"/><rect fill="#EDF0F2" height="86.3607" style="stroke:#BABDBF;stroke-width:1.0416666666666667;" width="10.4167" x="165.8112" y="572.3633"/><rect fill="#EDF0F2" height="53.0924" style="stroke:#BABDBF;stroke-width:1.0416666666666667;" width="10.4167" x="165.8112" y="1089.6159"/><rect fill="#EDF0F2" height="65.5924" style="stroke:#BABDBF;stroke-width:1.0416666666666667;" width="10.4167" x="165.8112" y="1473.6979"/><rect fill="#EDF0F2" height="220.638" style="stroke:#BABDBF;stroke-width:1.0416666666666667;" width="10.4167" x="379.0192" y="266.3737"/><rect fill="#EDF0F2" height="163.4115" style="stroke:#BABDBF;stroke-width:1.0416666666666667;" width="10.4167" x="379.0192" y="798.1771"/><rect fill="#EDF0F2" height="148.8607" style="stroke:#BABDBF;stroke-width:1.0416666666666667;" width="10.4167" x="379.0192" y="1282.1615"/><rect fill="#EDF0F2" height="311.1654" style="stroke:#BABDBF;stroke-width:1.0416666666666667;" width="10.4167" x="643.3431" y="487.0117"/><rect fill="#EDF0F2" height="320.5729" style="stroke:#BABDBF;stroke-width:1.0416666666666667;" width="10.4167" x="643.3431" y="961.5885"/><rect fill="#EDF0F2" height="1372.819" style="stroke:#BABDBF;stroke-width:1.0416666666666667;" width="10.4167" x="892.8263" y="166.4714"/><rect fill="#EDF0F2" height="1404.0365" style="stroke:#BABDBF;stroke-width:1.0416666666666667;" width="10.4167" x="1144.9188" y="135.2539"/><polygon fill="#2FA4E7" points="914.7013,162.3047,904.2847,166.4714,914.7013,170.638,910.5347,166.4714" style="stroke:#2FA4E7;stroke-width:1.0416666666666667;"/><line style="stroke:#2FA4E7;stroke-width:3.125;" x1="908.4513" x2="1143.8772" y1="166.4714" y2="166.4714"/><text fill="#343A40" font-family="Verdana" font-size="12.5" lengthAdjust="spacing" textLength="31.9336" x="926.1597" y="156.2317">reset</text><polygon fill="#2FA4E7" points="187.6862,204.9805,177.2695,209.1471,187.6862,213.3138,183.5195,209.1471" style="stroke:#2FA4E7;stroke-width:1.0416666666666667;"/><line style="stroke:#2FA4E7;stroke-width:3.125;" x1="181.4362" x2="891.7847" y1="209.1471" y2="209.1471"/><text fill="#343A40" font-family="Verdana" font-size="12.5" lengthAdjust="spacing" textLength="66.4368" x="199.1445" y="198.9075">call main()</text><path d="M908.3333,184.1797 L908.3333,210.2214 A4.1667,4.1667 0 0 0 912.5,214.388 L1020.8333,214.388 A4.1667,4.1667 0 0 0 1025,210.2214 L1025,190.4297 L1014.5833,180.013 L912.5,180.013 A4.1667,4.1667 0 0 0 908.3333,184.1797 " fill="url(#gajqqwf9elmg71)" style="stroke:#033C73;stroke-width:1.0416666666666667;"/><path d="M1014.5833,180.013 L1014.5833,188.3464 A2.0833,2.0833 0 0 0 1016.6667,190.4297 L1025,190.4297 L1014.5833,180.013 " fill="url(#gajqqwf9elmg71)" style="stroke:#033C73;stroke-width:1.0416666666666667;"/><text fill="#FFFFFF" font-family="Verdana" font-size="12.5" lengthAdjust="spacing" textLength="85.1379" x="919.7917" y="202.0325">pending = {}</text><polygon fill="#2FA4E7" points="366.5192,262.207,376.9358,266.3737,366.5192,270.5404,370.6858,266.3737" style="stroke:#2FA4E7;stroke-width:1.0416666666666667;"/><line style="stroke:#2FA4E7;stroke-width:3.125;" x1="171.0195" x2="372.7692" y1="266.3737" y2="266.3737"/><text fill="#343A40" font-family="Verdana" font-size="12.5" lengthAdjust="spacing" textLength="21.4783" x="183.5195" y="241.5833">call</text><text fill="#343A40" font-family="Verdana" font-size="12.5" lengthAdjust="spacing" textLength="139.2517" x="183.5195" y="256.134">task=periodic(100ms)</text><path d="M393.75,234.1309 L393.75,260.1725 A4.1667,4.1667 0 0 0 397.9167,264.3392 L720.8333,264.3392 A4.1667,4.1667 0 0 0 725,260.1725 L725,240.3809 L714.5833,229.9642 L397.9167,229.9642 A4.1667,4.1667 0 0 0 393.75,234.1309 " fill="url(#gajqqwf9elmg71)" style="stroke:#033C73;stroke-width:1.0416666666666667;"/><path d="M714.5833,229.9642 L714.5833,238.2975 A2.0833,2.0833 0 0 0 716.6667,240.3809 L725,240.3809 L714.5833,229.9642 " fill="url(#gajqqwf9elmg71)" style="stroke:#033C73;stroke-width:1.0416666666666667;"/><text fill="#FFFFFF" font-family="Verdana" font-size="12.5" lengthAdjust="spacing" textLength="299.7437" x="405.2083" y="251.9836">task periodic(std::chrono::microseconds period)</text><polygon fill="#2FA4E7" points="182.4778,312.1582,172.0612,316.3249,182.4778,320.4915,178.3112,316.3249" style="stroke:#2FA4E7;stroke-width:1.0416666666666667;"/><line style="stroke:#2FA4E7;stroke-width:3.125;stroke-dasharray:2.0,2.0;" x1="176.2278" x2="377.9775" y1="316.3249" y2="316.3249"/><text fill="#343A40" font-family="Verdana" font-size="12.5" lengthAdjust="spacing" textLength="69.0002" x="193.9362" y="306.0852">return task</text><path d="M393.75,284.082 L393.75,324.707 A4.1667,4.1667 0 0 0 397.9167,328.8737 L643.75,328.8737 A4.1667,4.1667 0 0 0 647.9167,324.707 L647.9167,290.332 L637.5,279.9154 L397.9167,279.9154 A4.1667,4.1667 0 0 0 393.75,284.082 " fill="url(#gajqqwf9elmg71)" style="stroke:#033C73;stroke-width:1.0416666666666667;"/><path d="M637.5,279.9154 L637.5,288.2487 A2.0833,2.0833 0 0 0 639.5833,290.332 L647.9167,290.332 L637.5,279.9154 " fill="url(#gajqqwf9elmg71)" style="stroke:#033C73;stroke-width:1.0416666666666667;"/><text fill="#FFFFFF" font-family="Verdana" font-size="12.5" lengthAdjust="spacing" textLength="222.6746" x="405.2083" y="301.9348">compiler has identified a co-routine</text><text fill="#FFFFFF" font-family="Verdana" font-size="12.5" lengthAdjust="spacing" textLength="191.1255" x="405.2083" y="316.4856">and created the task structure</text><line style="stroke:#2FA4E7;stroke-width:3.125;" x1="389.4358" x2="433.1858" y1="366.276" y2="366.276"/><line style="stroke:#2FA4E7;stroke-width:3.125;" x1="433.1858" x2="433.1858" y1="366.276" y2="379.8177"/><line style="stroke:#2FA4E7;stroke-width:3.125;" x1="390.4775" x2="433.1858" y1="379.8177" y2="379.8177"/><polygon fill="#2FA4E7" points="400.8942,375.651,390.4775,379.8177,400.8942,383.9844,396.7275,379.8177" style="stroke:#2FA4E7;stroke-width:1.0416666666666667;"/><text fill="#343A40" font-family="Verdana" font-size="12.5" lengthAdjust="spacing" textLength="115.0208" x="401.9358" y="356.0364">resume_count = 0</text><line style="stroke:#2FA4E7;stroke-width:3.125;" x1="389.4358" x2="433.1858" y1="433.9193" y2="433.9193"/><line style="stroke:#2FA4E7;stroke-width:3.125;" x1="433.1858" x2="433.1858" y1="433.9193" y2="447.4609"/><line style="stroke:#2FA4E7;stroke-width:3.125;" x1="390.4775" x2="433.1858" y1="447.4609" y2="447.4609"/><polygon fill="#2FA4E7" points="400.8942,443.2943,390.4775,447.4609,400.8942,451.6276,396.7275,447.4609" style="stroke:#2FA4E7;stroke-width:1.0416666666666667;"/><text fill="#343A40" font-family="Verdana" font-size="12.5" lengthAdjust="spacing" textLength="57.1594" x="401.9358" y="409.1288">run until-</text><text fill="#343A40" font-family="Verdana" font-size="12.5" lengthAdjust="spacing" textLength="54.6875" x="401.9358" y="423.6796">co_await</text><polygon fill="#2FA4E7" points="630.8431,482.8451,641.2598,487.0117,630.8431,491.1784,635.0098,487.0117" style="stroke:#2FA4E7;stroke-width:1.0416666666666667;"/><line style="stroke:#2FA4E7;stroke-width:3.125;" x1="384.2275" x2="637.0931" y1="487.0117" y2="487.0117"/><text fill="#343A40" font-family="Verdana" font-size="12.5" lengthAdjust="spacing" textLength="101.2085" x="396.7275" y="476.7721">co_await 100ms</text><polygon fill="#2FA4E7" points="880.3263,525.5208,890.743,529.6875,880.3263,533.8542,884.493,529.6875" style="stroke:#2FA4E7;stroke-width:1.0416666666666667;"/><line style="stroke:#2FA4E7;stroke-width:3.125;" x1="653.7598" x2="886.5763" y1="529.6875" y2="529.6875"/><text fill="#343A40" font-family="Verdana" font-size="12.5" lengthAdjust="spacing" textLength="128.9612" x="666.2598" y="519.4478">store 100ms, handle</text><path d="M908.3333,504.7201 L908.3333,530.7617 A4.1667,4.1667 0 0 0 912.5,534.9284 L1046.875,534.9284 A4.1667,4.1667 0 0 0 1051.0417,530.7617 L1051.0417,510.9701 L1040.625,500.5534 L912.5,500.5534 A4.1667,4.1667 0 0 0 908.3333,504.7201 " fill="url(#gajqqwf9elmg71)" style="stroke:#033C73;stroke-width:1.0416666666666667;"/><path d="M1040.625,500.5534 L1040.625,508.8867 A2.0833,2.0833 0 0 0 1042.7083,510.9701 L1051.0417,510.9701 L1040.625,500.5534 " fill="url(#gajqqwf9elmg71)" style="stroke:#033C73;stroke-width:1.0416666666666667;"/><text fill="#FFFFFF" font-family="Verdana" font-size="12.5" lengthAdjust="spacing" textLength="111.4502" x="919.7917" y="522.5728">pending = {task}</text><polygon fill="#2FA4E7" points="187.6862,568.1966,177.2695,572.3633,187.6862,576.5299,183.5195,572.3633" style="stroke:#2FA4E7;stroke-width:1.0416666666666667;"/><line style="stroke:#2FA4E7;stroke-width:3.125;stroke-dasharray:2.0,2.0;" x1="181.4362" x2="642.3014" y1="572.3633" y2="572.3633"/><text fill="#343A40" font-family="Verdana" font-size="12.5" lengthAdjust="spacing" textLength="47.1313" x="199.1445" y="562.1236">resume</text><path d="M51.0417,587.9883 L134.5744,587.9883 L134.5744,604.6224 L124.1577,615.0391 L46.875,615.0391 L46.875,592.1549 A4.1667,4.1667 0 0 1 51.0417,587.9883 " fill="#E9ECEF" style="stroke:#868E96;stroke-width:1.0416666666666667;"/><rect fill="none" height="513.0859" rx="4.1667" ry="4.1667" style="stroke:#59B6EC;stroke-width:1.0416666666666667;" width="1197.7885" x="46.875" y="587.9883"/><text fill="#033C73" font-family="Verdana" font-size="12.5" font-weight="bold" lengthAdjust="spacing" textLength="30.4077" x="67.7083" y="605.8411">loop</text><text fill="#343A40" font-family="Verdana" font-size="12.5" font-weight="bold" lengthAdjust="spacing" textLength="86.0107" x="155.4077" y="606.8827">[10 times: i]</text><polygon fill="#2FA4E7" points="880.3263,654.5573,890.743,658.724,880.3263,662.8906,884.493,658.724" style="stroke:#2FA4E7;stroke-width:1.0416666666666667;"/><line style="stroke:#2FA4E7;stroke-width:3.125;" x1="171.0195" x2="886.5763" y1="658.724" y2="658.724"/><text fill="#343A40" font-family="Verdana" font-size="12.5" lengthAdjust="spacing" textLength="36.0107" x="183.5195" y="648.4843">wait()</text><path d="M908.3333,633.7565 L908.3333,659.7982 A4.1667,4.1667 0 0 0 912.5,663.9648 L1086.4583,663.9648 A4.1667,4.1667 0 0 0 1090.625,659.7982 L1090.625,640.0065 L1080.2083,629.5898 L912.5,629.5898 A4.1667,4.1667 0 0 0 908.3333,633.7565 " fill="url(#gajqqwf9elmg71)" style="stroke:#033C73;stroke-width:1.0416666666666667;"/><path d="M1080.2083,629.5898 L1080.2083,637.9232 A2.0833,2.0833 0 0 0 1082.2917,640.0065 L1090.625,640.0065 L1080.2083,629.5898 " fill="url(#gajqqwf9elmg71)" style="stroke:#033C73;stroke-width:1.0416666666666667;"/><text fill="#FFFFFF" font-family="Verdana" font-size="12.5" lengthAdjust="spacing" textLength="150.6287" x="919.7917" y="651.6093">pending = {task, main}</text><polygon fill="#2FA4E7" points="1132.4188,711.7839,1142.8355,715.9505,1132.4188,720.1172,1136.5855,715.9505" style="stroke:#2FA4E7;stroke-width:1.0416666666666667;"/><line style="stroke:#2FA4E7;stroke-width:3.125;" x1="903.243" x2="1138.6688" y1="715.9505" y2="715.9505"/><text fill="#343A40" font-family="Verdana" font-size="12.5" lengthAdjust="spacing" textLength="110.1318" x="915.743" y="691.1601">timer wait 100ms</text><text fill="#343A40" font-family="Verdana" font-size="12.5" lengthAdjust="spacing" textLength="18.0969" x="915.743" y="705.7109">wfi</text><polygon fill="#2FA4E7" points="914.7013,751.3346,904.2847,755.5013,914.7013,759.668,910.5347,755.5013" style="stroke:#2FA4E7;stroke-width:1.0416666666666667;"/><line style="stroke:#2FA4E7;stroke-width:3.125;" x1="908.4513" x2="1143.8772" y1="755.5013" y2="755.5013"/><text fill="#343A40" font-family="Verdana" font-size="12.5" lengthAdjust="spacing" textLength="70.7397" x="926.1597" y="745.2616">wfi wakeup</text><polygon fill="#2FA4E7" points="400.8942,794.0104,390.4775,798.1771,400.8942,802.3438,396.7275,798.1771" style="stroke:#2FA4E7;stroke-width:1.0416666666666667;"/><line style="stroke:#2FA4E7;stroke-width:3.125;" x1="394.6442" x2="891.7847" y1="798.1771" y2="798.1771"/><text fill="#343A40" font-family="Verdana" font-size="12.5" lengthAdjust="spacing" textLength="103.4607" x="412.3525" y="787.9374">handle.resume()</text><path d="M908.3333,773.2096 L908.3333,799.2513 A4.1667,4.1667 0 0 0 912.5,803.418 L1052.0833,803.418 A4.1667,4.1667 0 0 0 1056.25,799.2513 L1056.25,779.4596 L1045.8333,769.043 L912.5,769.043 A4.1667,4.1667 0 0 0 908.3333,773.2096 " fill="url(#gajqqwf9elmg71)" style="stroke:#033C73;stroke-width:1.0416666666666667;"/><path d="M1045.8333,769.043 L1045.8333,777.3763 A2.0833,2.0833 0 0 0 1047.9167,779.4596 L1056.25,779.4596 L1045.8333,769.043 " fill="url(#gajqqwf9elmg71)" style="stroke:#033C73;stroke-width:1.0416666666666667;"/><text fill="#FFFFFF" font-family="Verdana" font-size="12.5" lengthAdjust="spacing" textLength="116.3696" x="919.7917" y="791.0624">pending = {main}</text><line style="stroke:#2FA4E7;stroke-width:3.125;" x1="389.4358" x2="433.1858" y1="840.8529" y2="840.8529"/><line style="stroke:#2FA4E7;stroke-width:3.125;" x1="433.1858" x2="433.1858" y1="840.8529" y2="854.3945"/><line style="stroke:#2FA4E7;stroke-width:3.125;" x1="390.4775" x2="433.1858" y1="854.3945" y2="854.3945"/><polygon fill="#2FA4E7" points="400.8942,850.2279,390.4775,854.3945,400.8942,858.5612,396.7275,854.3945" style="stroke:#2FA4E7;stroke-width:1.0416666666666667;"/><text fill="#343A40" font-family="Verdana" font-size="12.5" lengthAdjust="spacing" textLength="136.9141" x="401.9358" y="830.6132">resume_count = i + 1</text><line style="stroke:#2FA4E7;stroke-width:3.125;" x1="389.4358" x2="433.1858" y1="908.4961" y2="908.4961"/><line style="stroke:#2FA4E7;stroke-width:3.125;" x1="433.1858" x2="433.1858" y1="908.4961" y2="922.0378"/><line style="stroke:#2FA4E7;stroke-width:3.125;" x1="390.4775" x2="433.1858" y1="922.0378" y2="922.0378"/><polygon fill="#2FA4E7" points="400.8942,917.8711,390.4775,922.0378,400.8942,926.2044,396.7275,922.0378" style="stroke:#2FA4E7;stroke-width:1.0416666666666667;"/><text fill="#343A40" font-family="Verdana" font-size="12.5" lengthAdjust="spacing" textLength="57.1594" x="401.9358" y="883.7056">run until-</text><text fill="#343A40" font-family="Verdana" font-size="12.5" lengthAdjust="spacing" textLength="54.6875" x="401.9358" y="898.2564">co_await</text><polygon fill="#2FA4E7" points="630.8431,957.4219,641.2598,961.5885,630.8431,965.7552,635.0098,961.5885" style="stroke:#2FA4E7;stroke-width:1.0416666666666667;"/><line style="stroke:#2FA4E7;stroke-width:3.125;" x1="384.2275" x2="637.0931" y1="961.5885" y2="961.5885"/><text fill="#343A40" font-family="Verdana" font-size="12.5" lengthAdjust="spacing" textLength="101.2085" x="396.7275" y="951.3489">co_await 100ms</text><polygon fill="#2FA4E7" points="880.3263,1000.0977,890.743,1004.2643,880.3263,1008.431,884.493,1004.2643" style="stroke:#2FA4E7;stroke-width:1.0416666666666667;"/><line style="stroke:#2FA4E7;stroke-width:3.125;" x1="653.7598" x2="886.5763" y1="1004.2643" y2="1004.2643"/><text fill="#343A40" font-family="Verdana" font-size="12.5" lengthAdjust="spacing" textLength="128.9612" x="666.2598" y="994.0247">store 100ms, handle</text><path d="M908.3333,979.2969 L908.3333,1005.3385 A4.1667,4.1667 0 0 0 912.5,1009.5052 L1086.4583,1009.5052 A4.1667,4.1667 0 0 0 1090.625,1005.3385 L1090.625,985.5469 L1080.2083,975.1302 L912.5,975.1302 A4.1667,4.1667 0 0 0 908.3333,979.2969 " fill="url(#gajqqwf9elmg71)" style="stroke:#033C73;stroke-width:1.0416666666666667;"/><path d="M1080.2083,975.1302 L1080.2083,983.4635 A2.0833,2.0833 0 0 0 1082.2917,985.5469 L1090.625,985.5469 L1080.2083,975.1302 " fill="url(#gajqqwf9elmg71)" style="stroke:#033C73;stroke-width:1.0416666666666667;"/><text fill="#FFFFFF" font-family="Verdana" font-size="12.5" lengthAdjust="spacing" textLength="150.6287" x="919.7917" y="997.1497">pending = {main, task}</text><polygon fill="#2FA4E7" points="880.3263,1042.7734,890.743,1046.9401,880.3263,1051.1068,884.493,1046.9401" style="stroke:#2FA4E7;stroke-width:1.0416666666666667;"/><line style="stroke:#2FA4E7;stroke-width:3.125;stroke-dasharray:2.0,2.0;" x1="653.7598" x2="886.5763" y1="1046.9401" y2="1046.9401"/><text fill="#343A40" font-family="Verdana" font-size="12.5" lengthAdjust="spacing" textLength="47.1313" x="666.2598" y="1036.7004">resume</text><polygon fill="#2FA4E7" points="187.6862,1085.4492,177.2695,1089.6159,187.6862,1093.7826,183.5195,1089.6159" style="stroke:#2FA4E7;stroke-width:1.0416666666666667;"/><line style="stroke:#2FA4E7;stroke-width:3.125;" x1="181.4362" x2="891.7847" y1="1089.6159" y2="1089.6159"/><text fill="#343A40" font-family="Verdana" font-size="12.5" lengthAdjust="spacing" textLength="38.7146" x="199.1445" y="1079.3762">return</text><path d="M908.3333,1064.6484 L908.3333,1090.6901 A4.1667,4.1667 0 0 0 912.5,1094.8568 L1046.875,1094.8568 A4.1667,4.1667 0 0 0 1051.0417,1090.6901 L1051.0417,1070.8984 L1040.625,1060.4818 L912.5,1060.4818 A4.1667,4.1667 0 0 0 908.3333,1064.6484 " fill="url(#gajqqwf9elmg71)" style="stroke:#033C73;stroke-width:1.0416666666666667;"/><path d="M1040.625,1060.4818 L1040.625,1068.8151 A2.0833,2.0833 0 0 0 1042.7083,1070.8984 L1051.0417,1070.8984 L1040.625,1060.4818 " fill="url(#gajqqwf9elmg71)" style="stroke:#033C73;stroke-width:1.0416666666666667;"/><text fill="#FFFFFF" font-family="Verdana" font-size="12.5" lengthAdjust="spacing" textLength="111.4502" x="919.7917" y="1082.5012">pending = {task}</text><polygon fill="#2FA4E7" points="880.3263,1138.5417,890.743,1142.7083,880.3263,1146.875,884.493,1142.7083" style="stroke:#2FA4E7;stroke-width:1.0416666666666667;"/><line style="stroke:#2FA4E7;stroke-width:3.125;" x1="171.0195" x2="886.5763" y1="1142.7083" y2="1142.7083"/><text fill="#343A40" font-family="Verdana" font-size="12.5" lengthAdjust="spacing" textLength="36.0107" x="183.5195" y="1132.4687">wait()</text><path d="M908.3333,1117.7409 L908.3333,1143.7826 A4.1667,4.1667 0 0 0 912.5,1147.9492 L1086.4583,1147.9492 A4.1667,4.1667 0 0 0 1090.625,1143.7826 L1090.625,1123.9909 L1080.2083,1113.5742 L912.5,1113.5742 A4.1667,4.1667 0 0 0 908.3333,1117.7409 " fill="url(#gajqqwf9elmg71)" style="stroke:#033C73;stroke-width:1.0416666666666667;"/><path d="M1080.2083,1113.5742 L1080.2083,1121.9076 A2.0833,2.0833 0 0 0 1082.2917,1123.9909 L1090.625,1123.9909 L1080.2083,1113.5742 " fill="url(#gajqqwf9elmg71)" style="stroke:#033C73;stroke-width:1.0416666666666667;"/><text fill="#FFFFFF" font-family="Verdana" font-size="12.5" lengthAdjust="spacing" textLength="150.6287" x="919.7917" y="1135.5937">pending = {task, main}</text><polygon fill="#2FA4E7" points="1132.4188,1195.7682,1142.8355,1199.9349,1132.4188,1204.1016,1136.5855,1199.9349" style="stroke:#2FA4E7;stroke-width:1.0416666666666667;"/><line style="stroke:#2FA4E7;stroke-width:3.125;" x1="903.243" x2="1138.6688" y1="1199.9349" y2="1199.9349"/><text fill="#343A40" font-family="Verdana" font-size="12.5" lengthAdjust="spacing" textLength="110.1318" x="915.743" y="1175.1444">timer wait 100ms</text><text fill="#343A40" font-family="Verdana" font-size="12.5" lengthAdjust="spacing" textLength="18.0969" x="915.743" y="1189.6952">wfi</text><polygon fill="#2FA4E7" points="914.7013,1235.319,904.2847,1239.4857,914.7013,1243.6523,910.5347,1239.4857" style="stroke:#2FA4E7;stroke-width:1.0416666666666667;"/><line style="stroke:#2FA4E7;stroke-width:3.125;" x1="908.4513" x2="1143.8772" y1="1239.4857" y2="1239.4857"/><text fill="#343A40" font-family="Verdana" font-size="12.5" lengthAdjust="spacing" textLength="70.7397" x="926.1597" y="1229.246">wfi wakeup</text><polygon fill="#2FA4E7" points="400.8942,1277.9948,390.4775,1282.1615,400.8942,1286.3281,396.7275,1282.1615" style="stroke:#2FA4E7;stroke-width:1.0416666666666667;"/><line style="stroke:#2FA4E7;stroke-width:3.125;" x1="394.6442" x2="891.7847" y1="1282.1615" y2="1282.1615"/><text fill="#343A40" font-family="Verdana" font-size="12.5" lengthAdjust="spacing" textLength="103.4607" x="412.3525" y="1271.9218">handle.resume()</text><path d="M908.3333,1257.194 L908.3333,1283.2357 A4.1667,4.1667 0 0 0 912.5,1287.4023 L1052.0833,1287.4023 A4.1667,4.1667 0 0 0 1056.25,1283.2357 L1056.25,1263.444 L1045.8333,1253.0273 L912.5,1253.0273 A4.1667,4.1667 0 0 0 908.3333,1257.194 " fill="url(#gajqqwf9elmg71)" style="stroke:#033C73;stroke-width:1.0416666666666667;"/><path d="M1045.8333,1253.0273 L1045.8333,1261.3607 A2.0833,2.0833 0 0 0 1047.9167,1263.444 L1056.25,1263.444 L1045.8333,1253.0273 " fill="url(#gajqqwf9elmg71)" style="stroke:#033C73;stroke-width:1.0416666666666667;"/><text fill="#FFFFFF" font-family="Verdana" font-size="12.5" lengthAdjust="spacing" textLength="116.3696" x="919.7917" y="1275.0468">pending = {main}</text><line style="stroke:#2FA4E7;stroke-width:3.125;" x1="389.4358" x2="433.1858" y1="1324.8372" y2="1324.8372"/><line style="stroke:#2FA4E7;stroke-width:3.125;" x1="433.1858" x2="433.1858" y1="1324.8372" y2="1338.3789"/><line style="stroke:#2FA4E7;stroke-width:3.125;" x1="390.4775" x2="433.1858" y1="1338.3789" y2="1338.3789"/><polygon fill="#2FA4E7" points="400.8942,1334.2122,390.4775,1338.3789,400.8942,1342.5456,396.7275,1338.3789" style="stroke:#2FA4E7;stroke-width:1.0416666666666667;"/><text fill="#343A40" font-family="Verdana" font-size="12.5" lengthAdjust="spacing" textLength="141.394" x="401.9358" y="1314.5976">resume_count = 9 + 1</text><line style="stroke:#2FA4E7;stroke-width:3.125;" x1="389.4358" x2="433.1858" y1="1377.9297" y2="1377.9297"/><line style="stroke:#2FA4E7;stroke-width:3.125;" x1="433.1858" x2="433.1858" y1="1377.9297" y2="1391.4714"/><line style="stroke:#2FA4E7;stroke-width:3.125;" x1="390.4775" x2="433.1858" y1="1391.4714" y2="1391.4714"/><polygon fill="#2FA4E7" points="400.8942,1387.3047,390.4775,1391.4714,400.8942,1395.638,396.7275,1391.4714" style="stroke:#2FA4E7;stroke-width:1.0416666666666667;"/><text fill="#343A40" font-family="Verdana" font-size="12.5" lengthAdjust="spacing" textLength="122.8882" x="401.9358" y="1367.69">run until competion</text><polygon fill="#2FA4E7" points="182.4778,1426.8555,172.0612,1431.0221,182.4778,1435.1888,178.3112,1431.0221" style="stroke:#2FA4E7;stroke-width:1.0416666666666667;"/><line style="stroke:#2FA4E7;stroke-width:3.125;stroke-dasharray:2.0,2.0;" x1="176.2278" x2="383.1858" y1="1431.0221" y2="1431.0221"/><text fill="#343A40" font-family="Verdana" font-size="12.5" lengthAdjust="spacing" textLength="59.4849" x="193.9362" y="1420.7825">co_return</text><polygon fill="#2FA4E7" points="187.6862,1469.5313,177.2695,1473.6979,187.6862,1477.8646,183.5195,1473.6979" style="stroke:#2FA4E7;stroke-width:1.0416666666666667;"/><line style="stroke:#2FA4E7;stroke-width:3.125;" x1="181.4362" x2="891.7847" y1="1473.6979" y2="1473.6979"/><text fill="#343A40" font-family="Verdana" font-size="12.5" lengthAdjust="spacing" textLength="38.7146" x="199.1445" y="1463.4583">return</text><path d="M908.3333,1448.7305 L908.3333,1474.7721 A4.1667,4.1667 0 0 0 912.5,1478.9388 L1020.8333,1478.9388 A4.1667,4.1667 0 0 0 1025,1474.7721 L1025,1454.9805 L1014.5833,1444.5638 L912.5,1444.5638 A4.1667,4.1667 0 0 0 908.3333,1448.7305 " fill="url(#gajqqwf9elmg71)" style="stroke:#033C73;stroke-width:1.0416666666666667;"/><path d="M1014.5833,1444.5638 L1014.5833,1452.8971 A2.0833,2.0833 0 0 0 1016.6667,1454.9805 L1025,1454.9805 L1014.5833,1444.5638 " fill="url(#gajqqwf9elmg71)" style="stroke:#033C73;stroke-width:1.0416666666666667;"/><text fill="#FFFFFF" font-family="Verdana" font-size="12.5" lengthAdjust="spacing" textLength="85.1379" x="919.7917" y="1466.5833">pending = {}</text><line style="stroke:#2FA4E7;stroke-width:3.125;" x1="176.2278" x2="219.9778" y1="1516.3737" y2="1516.3737"/><line style="stroke:#2FA4E7;stroke-width:3.125;" x1="219.9778" x2="219.9778" y1="1516.3737" y2="1529.9154"/><line style="stroke:#2FA4E7;stroke-width:3.125;" x1="177.2695" x2="219.9778" y1="1529.9154" y2="1529.9154"/><polygon fill="#2FA4E7" points="187.6862,1525.7487,177.2695,1529.9154,187.6862,1534.082,183.5195,1529.9154" style="stroke:#2FA4E7;stroke-width:1.0416666666666667;"/><text fill="#343A40" font-family="Verdana" font-size="12.5" lengthAdjust="spacing" textLength="60.4431" x="188.7278" y="1506.134">busy loop</text><!--SRC=[tLPDQzj04BthLqnzIOpjaXmhSA641aeF3OJU366zciIBfLanMjKD9V-zioiXoTQ7tHpha-oTDnzltblvWzjXXg2HonGLHT7M_eRP5-tCBuJxakJ1qYm2-UIAdT4cL-HWzkWK9OgJ9YRUKAOCNSzde0hmZttGdLsnBPqXbEWSsTZ4w1gXBTi8AG5feExYRh7OK8lPq6EPvvRTG3jxV3rOJZQaxPCwAEFgdDMN9cyrtBPmhBH32V_nE93iEp9X6ZBim-DfNmy_1r3Vo25pcJlV13csQOeSaXZT9hYwWWTxG0PBaV8iAuS-mASp6bQVwv8G0sE1BXmqWNKx_hSwJ02UQmdNAasXMa4882i0DYyx9uUvD63e1TRmvoqAnzB8Lzzn5zBKQTRN_OGwKizlggwt8QUA_RfPvUtDJLRCUyYsbHWy01f0uP8urZksPECuCvfjWS9UKjGXLQvUGcd-td3XGXD7fmcE3z6S1AsTvWnZhLe-6Lt95FgT6CWJORFSoAvXvtUT83dpR3019IUjTiKke1cbV0BYkOe74MAffGoETDEGBLeeCtpIjXIfhU7cR7n98A4cNRMMcC1K0M6M-Z5iieVei3l8OUTqf6PLjoxILNlXB6DLTYbCKfBY87XCrfxFjpFbkilrV5PEIAtDfJ0uas4HWnbCCcsDKujKKyNWorxF1yEdX7hflCi0VHl5jdU4N2rn692XNU-63iyc6aIVN4KI9xWzbdaqNQUMNxM_ZnNB0mGSwMX4ATDAcw9cd9IkItgcCh20sxEmIytrtndCixg42stMVObveuqhvkYsZVxDTkVl0lajUeT9pvdpFQPydnalD-B59fmotxZwBZVRfCa-zKmsPgxmNaN_rpAQUatB22VQcVBGiUvwiXlV-lY_gLDPrNrjo-8rl5gYlm00]--></g></svg>
